{
.appVersion = "3100";
DisplayStrings = (
al
);
classes = (
{
automatic = 1;
code = "A Aacute Abreve Abreveacute Abrevedotbelow Abrevegrave Abrevehookabove Abrevetilde Acircumflex Acircumflexacute Acircumflexdotbelow Acircumflexgrave Acircumflexhookabove Acircumflextilde Adblgrave Adieresis Adotbelow Agrave Ahookabove Ainvertedbreve Amacron Aogonek Aring Aringacute Atilde AE AEacute B C Cacute Ccaron Ccedilla Ccircumflex Cdotaccent D DZcaron Eth Dcaron Dcroat Dzcaron E Eacute Ebreve Ecaron Ecircumflex Ecircumflexacute Ecircumflexdotbelow Ecircumflexgrave Ecircumflexhookabove Ecircumflextilde Edblgrave Edieresis Edotaccent Edotbelow Egrave Ehookabove Einvertedbreve Emacron Eogonek Etilde F G Gbreve Gcaron Gcircumflex Gcommaaccent Gdotaccent H Hbar Hcircumflex I IJ Iacute Ibreve Icircumflex Idblgrave Idieresis Idotaccent Idotbelow Igrave Ihookabove Iinvertedbreve Imacron Iogonek Itilde J Jcircumflex K Kcommaaccent L LJ Lacute Lcaron Lcommaaccent Ldot Lj Lslash M N NJ Nacute Ncaron Ncommaaccent Eng Nj Ntilde O Oacute Obreve Ocircumflex Ocircumflexacute Ocircumflexdotbelow Ocircumflexgrave Ocircumflexhookabove Ocircumflextilde Odblgrave Odieresis Odieresismacron Odotaccentmacron Odotbelow Ograve Ohookabove Ohorn Ohornacute Ohorndotbelow Ohorngrave Ohornhookabove Ohorntilde Ohungarumlaut Oinvertedbreve Omacron Oogonek Oslash Oslashacute Otilde Otildemacron OE P Thorn Q R Racute Rcaron Rcommaaccent Rdblgrave Rinvertedbreve S Sacute Scaron Scedilla Scircumflex Scommaaccent Germandbls Schwa T Tbar Tcaron Tcedilla Tcommaaccent U Uacute Ubreve Ucircumflex Udblgrave Udieresis Udotbelow Ugrave Uhookabove Uhorn Uhornacute Uhorndotbelow Uhorngrave Uhornhookabove Uhorntilde Uhungarumlaut Uinvertedbreve Umacron Uogonek Uring Utilde V W Wacute Wcircumflex Wdieresis Wgrave X Y Yacute Ycircumflex Ydieresis Ydotbelow Ygrave Yhookabove Ymacron Ytilde Z Zacute Zcaron Zdotaccent Delta Omega";
name = Uppercase;
}
);

glyphs = (
{
glyphname = A;
layers = (
{
anchors = (
{
name = bottom;
position = "{682, 0}";
},
{
name = ogonek;
position = "{1428, 0}";
},
{
name = top;
position = "{963, 1592}";
}
);
guideLines = (
{
angle = 90;
position = "{3471, 1544}";
}
);
layerId = "43807A99-8507-4079-8E7C-8F87E5CA03D3";
paths = (
{
closed = 1;
nodes = (
"592 0 LINE",
"653 345 LINE",
"488 345 LINE",
"984 1395 LINE",
"906 1395 LINE",
"998 345 LINE",
"833 345 LINE",
"772 0 LINE",
"1655 0 LINE",
"1716 345 LINE",
"1571 345 LINE",
"1421 1592 LINE",
"433 1592 LINE",
"372 1247 LINE",
"587 1247 LINE",
"125 345 LINE",
"-20 345 LINE",
"-81 0 LINE"
);
},
{
closed = 1;
nodes = (
"1017 520 LINE",
"1003 770 LINE",
"640 770 LINE",
"534 520 LINE"
);
}
);
width = 1771;
}
);
leftKerningGroup = A;
rightKerningGroup = A;
unicode = 0041;
userData = {
com.typemytype.robofont.layerData = {
};
};
},
{
glyphname = AE;
layers = (
{
anchors = (
{
name = bottom;
position = "{1180, 0}";
},
{
name = top;
position = "{1461, 1592}";
}
);
layerId = "43807A99-8507-4079-8E7C-8F87E5CA03D3";
paths = (
{
closed = 1;
nodes = (
"590 0 LINE",
"651 345 LINE",
"490 345 LINE",
"1300 1473 LINE",
"1184 1473 LINE",
"985 345 LINE",
"831 345 LINE",
"770 0 LINE",
"2182 0 LINE",
"2301 677 LINE",
"1971 677 LINE",
"1877 340 LINE",
"1496 340 LINE",
"1657 1252 LINE",
"2038 1252 LINE",
"2021 959 LINE",
"2351 959 LINE",
"2463 1592 LINE",
"618 1592 LINE",
"557 1247 LINE",
"772 1247 LINE",
"103 345 LINE",
"-34 345 LINE",
"-95 0 LINE"
);
},
{
closed = 1;
nodes = (
"1108 520 LINE",
"1138 770 LINE",
"638 770 LINE",
"532 520 LINE"
);
},
{
closed = 1;
nodes = (
"1817 642 LINE",
"1877 982 LINE",
"1591 982 LINE",
"1531 642 LINE"
);
}
);
width = 2399;
}
);
leftKerningGroup = AE;
rightKerningGroup = E;
rightMetricsKey = E;
unicode = 00C6;
},
{
glyphname = B;
layers = (
{
layerId = "43807A99-8507-4079-8E7C-8F87E5CA03D3";
paths = (
{
closed = 1;
nodes = (
"908 0 LINE SMOOTH",
"1328 0 OFFCURVE",
"1593 205 OFFCURVE",
"1593 515 CURVE SMOOTH",
"1593 717 OFFCURVE",
"1450 841 OFFCURVE",
"1204 854 CURVE",
"1204 770 LINE",
"1494 790 OFFCURVE",
"1690 973 OFFCURVE",
"1690 1224 CURVE SMOOTH",
"1690 1470 OFFCURVE",
"1489 1592 OFFCURVE",
"1093 1592 CURVE SMOOTH",
"250 1592 LINE",
"189 1247 LINE",
"347 1247 LINE",
"188 345 LINE",
"30 345 LINE",
"-31 0 LINE"
);
},
{
closed = 1;
nodes = (
"861 1257 LINE",
"985 1257 LINE SMOOTH",
"1099 1257 OFFCURVE",
"1156 1215 OFFCURVE",
"1156 1127 CURVE SMOOTH",
"1156 1017 OFFCURVE",
"1077 951 OFFCURVE",
"945 951 CURVE SMOOTH",
"779 951 LINE",
"730 673 LINE",
"903 673 LINE SMOOTH",
"1021 673 OFFCURVE",
"1077 628 OFFCURVE",
"1077 533 CURVE SMOOTH",
"1077 408 OFFCURVE",
"995 335 OFFCURVE",
"857 335 CURVE SMOOTH",
"698 335 LINE"
);
}
);
width = 1671;
}
);
leftKerningGroup = H;
unicode = 0042;
userData = {
com.typemytype.robofont.layerData = {
};
};
},
{
glyphname = C;
layers = (
{
anchors = (
{
name = bottom;
position = "{672, 0}";
},
{
name = cedilla;
position = "{808, 0}";
},
{
name = top;
position = "{1049, 1592}";
}
);
layerId = "43807A99-8507-4079-8E7C-8F87E5CA03D3";
paths = (
{
closed = 1;
nodes = (
"1068 -29 OFFCURVE",
"1307 25 OFFCURVE",
"1470 138 CURVE",
"1544 560 LINE",
"1519 572 LINE",
"1370 458 OFFCURVE",
"1195 406 OFFCURVE",
"1047 406 CURVE SMOOTH",
"810 406 OFFCURVE",
"686 533 OFFCURVE",
"686 770 CURVE SMOOTH",
"686 1057 OFFCURVE",
"850 1268 OFFCURVE",
"1063 1268 CURVE SMOOTH",
"1223 1268 OFFCURVE",
"1288 1162 OFFCURVE",
"1264 930 CURVE",
"1629 930 LINE",
"1746 1592 LINE",
"1471 1592 LINE",
"1395 1438 LINE",
"1314 1560 OFFCURVE",
"1173 1621 OFFCURVE",
"976 1621 CURVE SMOOTH",
"479 1621 OFFCURVE",
"115 1235 OFFCURVE",
"115 689 CURVE SMOOTH",
"115 238 OFFCURVE",
"418 -29 OFFCURVE",
"885 -29 CURVE SMOOTH"
);
}
);
width = 1652;
}
);
leftKerningGroup = O;
leftMetricsKey = O;
rightKerningGroup = C;
unicode = 0043;
userData = {
com.typemytype.robofont.layerData = {
};
};
},
{
glyphname = D;
layers = (
{
anchors = (
{
name = center;
position = "{519, 796}";
},
{
name = top;
position = "{999, 1592}";
}
);
layerId = "43807A99-8507-4079-8E7C-8F87E5CA03D3";
paths = (
{
closed = 1;
nodes = (
"704 0 LINE SMOOTH",
"1356 0 OFFCURVE",
"1744 363 OFFCURVE",
"1744 965 CURVE SMOOTH",
"1744 1384 OFFCURVE",
"1479 1592 OFFCURVE",
"946 1592 CURVE SMOOTH",
"240 1592 LINE",
"179 1247 LINE",
"337 1247 LINE",
"178 345 LINE",
"20 345 LINE",
"-41 0 LINE"
);
},
{
closed = 1;
nodes = (
"863 1257 LINE",
"911 1257 LINE SMOOTH",
"1100 1257 OFFCURVE",
"1178 1177 OFFCURVE",
"1178 989 CURVE SMOOTH",
"1178 601 OFFCURVE",
"1008 335 OFFCURVE",
"758 335 CURVE SMOOTH",
"700 335 LINE"
);
}
);
width = 1758;
}
);
leftKerningGroup = H;
leftMetricsKey = I;
rightKerningGroup = O;
rightMetricsKey = O;
unicode = 0044;
userData = {
com.typemytype.robofont.layerData = {
};
};
},
{
glyphname = Eth;
layers = (
{
background = {
paths = (
{
closed = 1;
nodes = (
"893 0 LINE SMOOTH",
"1028 0 OFFCURVE",
"1150 22 OFFCURVE",
"1259 67 CURVE SMOOTH",
"1368 112 OFFCURVE",
"1457 172 OFFCURVE",
"1526 248 CURVE SMOOTH",
"1595 324 OFFCURVE",
"1648 410 OFFCURVE",
"1685 507 CURVE SMOOTH",
"1722 604 OFFCURVE",
"1740 707 OFFCURVE",
"1740 816 CURVE SMOOTH",
"1740 1080 OFFCURVE",
"1672 1280 OFFCURVE",
"1535 1417 CURVE SMOOTH",
"1398 1554 OFFCURVE",
"1192 1622 OFFCURVE",
"917 1622 CURVE SMOOTH",
"87 1622 LINE",
"87 1270 LINE",
"256 1270 LINE",
"254 936 LINE",
"254 669 LINE",
"254 351 LINE",
"91 351 LINE",
"91 0 LINE"
);
},
{
closed = 1;
nodes = (
"788 653 LINE",
"788 952 LINE",
"124 952 LINE",
"124 653 LINE"
);
},
{
closed = 1;
nodes = (
"788 952 LINE",
"889 952 LINE",
"889 653 LINE",
"788 653 LINE"
);
},
{
closed = 1;
nodes = (
"838 350 LINE",
"807 350 LINE",
"803 753 LINE",
"803 1052 LINE",
"803 1170 LINE",
"803 1269 LINE",
"850 1269 LINE SMOOTH",
"899 1269 OFFCURVE",
"942 1259 OFFCURVE",
"979 1240 CURVE SMOOTH",
"1016 1221 OFFCURVE",
"1045 1197 OFFCURVE",
"1066 1168 CURVE SMOOTH",
"1087 1139 OFFCURVE",
"1103 1103 OFFCURVE",
"1115 1061 CURVE SMOOTH",
"1127 1019 OFFCURVE",
"1135 979 OFFCURVE",
"1139 941 CURVE SMOOTH",
"1143 903 OFFCURVE",
"1145 861 OFFCURVE",
"1145 815 CURVE SMOOTH",
"1145 770 OFFCURVE",
"1142 727 OFFCURVE",
"1137 687 CURVE SMOOTH",
"1132 647 OFFCURVE",
"1122 605 OFFCURVE",
"1108 562 CURVE SMOOTH",
"1094 519 OFFCURVE",
"1076 482 OFFCURVE",
"1054 452 CURVE SMOOTH",
"1032 422 OFFCURVE",
"1002 397 OFFCURVE",
"965 377 CURVE SMOOTH",
"928 357 OFFCURVE",
"885 347 OFFCURVE",
"836 347 CURVE"
);
}
);
};
components = (
{
name = D;
},
{
name = strokeshortcomb.case;
transform = "{1, 0, 0, 1, -33, -6}";
}
);
layerId = "43807A99-8507-4079-8E7C-8F87E5CA03D3";
width = 1758;
}
);
leftKerningGroup = H;
rightKerningGroup = O;
unicode = 00D0;
},
{
glyphname = E;
layers = (
{
anchors = (
{
name = bottom;
position = "{677, 0}";
},
{
name = ogonek;
position = "{1285, 1}";
},
{
name = top;
position = "{958, 1592}";
}
);
layerId = "43807A99-8507-4079-8E7C-8F87E5CA03D3";
paths = (
{
closed = 1;
nodes = (
"1385 0 LINE",
"1504 677 LINE",
"1174 677 LINE",
"1080 340 LINE",
"699 340 LINE",
"860 1252 LINE",
"1241 1252 LINE",
"1224 959 LINE",
"1554 959 LINE",
"1666 1592 LINE",
"250 1592 LINE",
"189 1247 LINE",
"347 1247 LINE",
"188 345 LINE",
"30 345 LINE",
"-31 0 LINE"
);
},
{
closed = 1;
nodes = (
"1020 642 LINE",
"1080 982 LINE",
"774 982 LINE",
"714 642 LINE"
);
}
);
width = 1602;
}
);
leftKerningGroup = H;
unicode = 0045;
userData = {
com.typemytype.robofont.layerData = {
};
};
},
{
glyphname = F;
layers = (
{
layerId = "43807A99-8507-4079-8E7C-8F87E5CA03D3";
paths = (
{
closed = 1;
nodes = (
"927 0 LINE",
"988 345 LINE",
"700 345 LINE",
"860 1252 LINE",
"1221 1252 LINE",
"1199 930 LINE",
"1529 930 LINE",
"1646 1592 LINE",
"250 1592 LINE",
"189 1247 LINE",
"347 1247 LINE",
"188 345 LINE",
"30 345 LINE",
"-31 0 LINE"
);
},
{
closed = 1;
nodes = (
"1010 642 LINE",
"1070 982 LINE",
"784 982 LINE",
"724 642 LINE"
);
}
);
width = 1495;
}
);
leftKerningGroup = H;
rightKerningGroup = F;
unicode = 0046;
userData = {
com.typemytype.robofont.layerData = {
};
};
},
{
glyphname = G;
layers = (
{
anchors = (
{
name = bottom;
position = "{805, 0}";
},
{
name = top;
position = "{1086, 1592}";
}
);
layerId = "43807A99-8507-4079-8E7C-8F87E5CA03D3";
paths = (
{
closed = 1;
nodes = (
"1153 -29 OFFCURVE",
"1405 27 OFFCURVE",
"1569 112 CURVE",
"1700 856 LINE",
"1060 856 LINE",
"1007 556 LINE",
"1195 556 LINE",
"1166 394 LINE",
"1122 380 OFFCURVE",
"1069 373 OFFCURVE",
"1022 373 CURVE SMOOTH",
"808 373 OFFCURVE",
"685 497 OFFCURVE",
"685 716 CURVE SMOOTH",
"685 1004 OFFCURVE",
"826 1268 OFFCURVE",
"1099 1268 CURVE SMOOTH",
"1242 1268 OFFCURVE",
"1328 1202 OFFCURVE",
"1324 1013 CURVE",
"1694 1013 LINE",
"1796 1592 LINE",
"1521 1592 LINE",
"1445 1438 LINE",
"1364 1560 OFFCURVE",
"1223 1621 OFFCURVE",
"999 1621 CURVE SMOOTH",
"527 1621 OFFCURVE",
"113 1280 OFFCURVE",
"114 675 CURVE SMOOTH",
"115 242 OFFCURVE",
"430 -29 OFFCURVE",
"943 -29 CURVE SMOOTH"
);
}
);
width = 1754;
}
);
leftKerningGroup = O;
leftMetricsKey = O;
rightKerningGroup = G;
unicode = 0047;
userData = {
com.typemytype.robofont.layerData = {
};
};
},
{
glyphname = H;
layers = (
{
anchors = (
{
name = bottom;
position = "{847, 0}";
},
{
name = center;
position = "{1043, 1110}";
},
{
name = top;
position = "{1128, 1592}";
}
);
layerId = "43807A99-8507-4079-8E7C-8F87E5CA03D3";
paths = (
{
closed = 1;
nodes = (
"1725 0 LINE",
"1786 345 LINE",
"1628 345 LINE",
"1787 1247 LINE",
"1945 1247 LINE",
"2006 1592 LINE",
"1203 1592 LINE",
"1142 1247 LINE",
"1275 1247 LINE",
"1116 345 LINE",
"983 345 LINE",
"922 0 LINE"
);
},
{
closed = 1;
nodes = (
"772 0 LINE",
"833 345 LINE",
"700 345 LINE",
"859 1247 LINE",
"992 1247 LINE",
"1053 1592 LINE",
"250 1592 LINE",
"189 1247 LINE",
"347 1247 LINE",
"188 345 LINE",
"30 345 LINE",
"-31 0 LINE"
);
},
{
closed = 1;
nodes = (
"1206 639 LINE",
"1264 967 LINE",
"762 967 LINE",
"704 639 LINE"
);
}
);
width = 1884;
}
);
leftKerningGroup = H;
rightKerningGroup = H;
rightMetricsKey = "=|";
unicode = 0048;
userData = {
com.typemytype.robofont.guides = (
);
com.typemytype.robofont.layerData = {
};
};
},
{
glyphname = Hbar;
layers = (
{
layerId = "43807A99-8507-4079-8E7C-8F87E5CA03D3";
paths = (
{
closed = 1;
nodes = (
"772 0 LINE",
"833 345 LINE",
"700 345 LINE",
"752 639 LINE",
"1168 639 LINE",
"1116 345 LINE",
"983 345 LINE",
"922 0 LINE",
"1725 0 LINE",
"1786 345 LINE",
"1628 345 LINE",
"1787 1247 LINE",
"1945 1247 LINE",
"2006 1592 LINE",
"1203 1592 LINE",
"1142 1247 LINE",
"1275 1247 LINE",
"1217 917 LINE",
"801 917 LINE",
"859 1247 LINE",
"992 1247 LINE",
"1053 1592 LINE",
"250 1592 LINE",
"189 1247 LINE",
"347 1247 LINE",
"188 345 LINE",
"30 345 LINE",
"-31 0 LINE"
);
},
{
closed = 1;
nodes = (
"1870 991 LINE",
"1902 1174 LINE",
"206 1174 LINE",
"174 991 LINE"
);
}
);
width = 1884;
}
);
leftKerningGroup = H;
leftMetricsKey = "=H";
rightKerningGroup = H;
rightMetricsKey = "=H";
unicode = 0126;
},
{
glyphname = I;
layers = (
{
anchors = (
{
name = bottom;
position = "{389, 0}";
},
{
name = ogonek;
position = "{649, 0}";
},
{
name = top;
position = "{670, 1592}";
}
);
layerId = "43807A99-8507-4079-8E7C-8F87E5CA03D3";
paths = (
{
closed = 1;
nodes = (
"819 0 LINE",
"880 345 LINE",
"712 345 LINE",
"871 1247 LINE",
"1039 1247 LINE",
"1100 1592 LINE",
"240 1592 LINE",
"179 1247 LINE",
"347 1247 LINE",
"188 345 LINE",
"20 345 LINE",
"-41 0 LINE"
);
}
);
width = 968;
}
);
leftKerningGroup = H;
rightKerningGroup = H;
rightMetricsKey = "=|";
unicode = 0049;
userData = {
com.typemytype.robofont.guides = (
);
com.typemytype.robofont.layerData = {
};
};
},
{
glyphname = IJ;
layers = (
{
anchors = (
{
name = top;
position = "{686, 1592}";
}
);
layerId = "43807A99-8507-4079-8E7C-8F87E5CA03D3";
paths = (
{
closed = 1;
nodes = (
"1241 -29 OFFCURVE",
"1593 270 OFFCURVE",
"1682 771 CURVE SMOOTH",
"1766 1247 LINE",
"1909 1247 LINE",
"1970 1592 LINE",
"1190 1592 LINE",
"1129 1247 LINE",
"1242 1247 LINE",
"1162 794 LINE SMOOTH",
"1115 529 OFFCURVE",
"975 406 OFFCURVE",
"720 406 CURVE SMOOTH",
"550 406 OFFCURVE",
"399 463 OFFCURVE",
"287 569 CURVE",
"258 557 LINE",
"185 145 LINE",
"303 38 OFFCURVE",
"520 -29 OFFCURVE",
"743 -29 CURVE SMOOTH"
);
},
{
closed = 1;
nodes = (
"883 670 LINE",
"944 1015 LINE",
"831 1015 LINE",
"872 1247 LINE",
"985 1247 LINE",
"1046 1592 LINE",
"296 1592 LINE",
"235 1247 LINE",
"378 1247 LINE",
"337 1015 LINE",
"194 1015 LINE",
"133 670 LINE"
);
}
);
width = 1811;
}
);
leftKerningGroup = U;
rightKerningGroup = U;
unicode = 0132;
userData = {
com.typemytype.robofont.layerData = {
};
};
},
{
glyphname = J;
layers = (
{
anchors = (
{
name = top;
position = "{1036, 1592}";
}
);
layerId = "43807A99-8507-4079-8E7C-8F87E5CA03D3";
paths = (
{
closed = 1;
nodes = (
"854 -30 OFFCURVE",
"1041 139 OFFCURVE",
"1097 455 CURVE SMOOTH",
"1237 1247 LINE",
"1395 1247 LINE",
"1456 1592 LINE",
"466 1592 LINE",
"405 1247 LINE",
"713 1247 LINE",
"589 545 LINE SMOOTH",
"561 389 OFFCURVE",
"505 324 OFFCURVE",
"424 324 CURVE SMOOTH",
"331 324 OFFCURVE",
"287 403 OFFCURVE",
"317 576 CURVE SMOOTH",
"332 662 LINE",
"42 662 LINE",
"-75 0 LINE",
"200 0 LINE",
"261 128 LINE",
"318 28 OFFCURVE",
"440 -30 OFFCURVE",
"594 -30 CURVE SMOOTH"
);
}
);
width = 1323;
}
);
leftKerningGroup = J;
rightKerningGroup = U;
unicode = 004A;
userData = {
com.typemytype.robofont.layerData = {
};
};
},
{
glyphname = K;
layers = (
{
anchors = (
{
name = bottom;
position = "{778, 0}";
},
{
name = top;
position = "{1059, 1592}";
}
);
layerId = "43807A99-8507-4079-8E7C-8F87E5CA03D3";
paths = (
{
closed = 1;
nodes = (
"1642 0 LINE",
"1703 345 LINE",
"1610 345 LINE SMOOTH",
"1531 345 OFFCURVE",
"1509 380 OFFCURVE",
"1522 461 CURVE SMOOTH",
"1534 534 LINE SMOOTH",
"1571 759 OFFCURVE",
"1467 882 OFFCURVE",
"1216 882 CURVE SMOOTH",
"1081 882 LINE",
"1044 755 LINE",
"1657 1247 LINE",
"1786 1247 LINE",
"1847 1592 LINE",
"1188 1592 LINE",
"1127 1247 LINE",
"1247 1247 LINE",
"720 814 LINE",
"688 641 LINE",
"869 641 LINE SMOOTH",
"972 641 OFFCURVE",
"1016 591 OFFCURVE",
"997 471 CURVE SMOOTH",
"979 358 LINE SMOOTH",
"941 122 OFFCURVE",
"1044 0 OFFCURVE",
"1299 0 CURVE SMOOTH"
);
},
{
closed = 1;
nodes = (
"772 0 LINE",
"833 345 LINE",
"700 345 LINE",
"859 1247 LINE",
"977 1247 LINE",
"1038 1592 LINE",
"250 1592 LINE",
"189 1247 LINE",
"347 1247 LINE",
"188 345 LINE",
"30 345 LINE",
"-31 0 LINE"
);
}
);
width = 1752;
}
);
leftKerningGroup = H;
rightKerningGroup = K;
unicode = 004B;
userData = {
com.typemytype.robofont.layerData = {
};
};
},
{
glyphname = L;
layers = (
{
anchors = (
{
name = bottom;
position = "{657, 0}";
},
{
name = center;
position = "{528, 790}";
},
{
name = top;
position = "{670, 1592}";
},
{
name = topright;
position = "{1250, 1592}";
}
);
layerId = "43807A99-8507-4079-8E7C-8F87E5CA03D3";
paths = (
{
closed = 1;
nodes = (
"1349 0 LINE",
"1475 713 LINE",
"1145 713 LINE",
"1039 340 LINE",
"711 340 LINE",
"871 1247 LINE",
"1089 1247 LINE",
"1150 1592 LINE",
"250 1592 LINE",
"189 1247 LINE",
"347 1247 LINE",
"188 345 LINE",
"30 345 LINE",
"-31 0 LINE"
);
}
);
width = 1485;
}
);
leftKerningGroup = H;
rightKerningGroup = L;
unicode = 004C;
userData = {
com.typemytype.robofont.layerData = {
};
};
},
{
glyphname = Ldot;
layers = (
{
layerId = "43807A99-8507-4079-8E7C-8F87E5CA03D3";
paths = (
{
closed = 1;
nodes = (
"1349 0 LINE",
"1454 593 LINE",
"1124 593 LINE",
"1039 340 LINE",
"711 340 LINE",
"871 1247 LINE",
"1089 1247 LINE",
"1150 1592 LINE",
"250 1592 LINE",
"189 1247 LINE",
"347 1247 LINE",
"188 345 LINE",
"30 345 LINE",
"-31 0 LINE"
);
},
{
closed = 1;
nodes = (
"1432 790 OFFCURVE",
"1527 866 OFFCURVE",
"1527 986 CURVE SMOOTH",
"1527 1086 OFFCURVE",
"1446 1147 OFFCURVE",
"1334 1147 CURVE SMOOTH",
"1210 1147 OFFCURVE",
"1119 1071 OFFCURVE",
"1119 954 CURVE SMOOTH",
"1119 852 OFFCURVE",
"1205 790 OFFCURVE",
"1312 790 CURVE SMOOTH"
);
}
);
width = 1485;
}
);
leftKerningGroup = H;
leftMetricsKey = L;
widthMetricsKey = L;
unicode = 013F;
},
{
glyphname = Lslash;
layers = (
{
background = {
components = (
{
name = slashshortcomb.case;
}
);
paths = (
{
closed = 1;
nodes = (
"1387 0 LINE",
"1387 709 LINE",
"1101 709 LINE",
"1014 359 LINE",
"823 359 LINE",
"823 1270 LINE",
"977 1270 LINE",
"977 1622 LINE",
"109 1622 LINE",
"109 1270 LINE",
"256 1270 LINE",
"256 359 LINE",
"113 359 LINE",
"114 0 LINE"
);
}
);
};
components = (
{
name = L;
},
{
alignment = 1;
name = slashshortcomb.case;
transform = "{1, 0, 0, 1, -82, -19}";
}
);
layerId = "43807A99-8507-4079-8E7C-8F87E5CA03D3";
width = 1485;
}
);
leftKerningGroup = H;
rightKerningGroup = L;
unicode = 0141;
},
{
glyphname = M;
layers = (
{
anchors = (
{
name = bottom;
position = "{1088, 0}";
},
{
name = top;
position = "{1369, 1592}";
}
);
guideLines = (
{
position = "{3824, 1684}";
}
);
layerId = "43807A99-8507-4079-8E7C-8F87E5CA03D3";
paths = (
{
closed = 1;
nodes = (
"595 0 LINE",
"656 345 LINE",
"518 345 LINE",
"665 1180 LINE",
"612 1108 LINE",
"852 0 LINE",
"1136 0 LINE",
"1771 1103 LINE",
"1741 1180 LINE",
"1594 345 LINE",
"1461 345 LINE",
"1400 0 LINE",
"2198 0 LINE",
"2259 345 LINE",
"2101 345 LINE",
"2260 1247 LINE",
"2418 1247 LINE",
"2479 1592 LINE",
"1743 1592 LINE",
"1100 489 LINE",
"1285 489 LINE",
"1055 1592 LINE",
"250 1592 LINE",
"189 1247 LINE",
"347 1247 LINE",
"188 345 LINE",
"30 345 LINE",
"-31 0 LINE"
);
}
);
width = 2357;
}
);
leftKerningGroup = H;
rightKerningGroup = H;
unicode = 004D;
userData = {
com.typemytype.robofont.layerData = {
};
};
},
{
glyphname = N;
layers = (
{
anchors = (
{
name = bottom;
position = "{844, 0}";
},
{
name = top;
position = "{1125, 1592}";
}
);
layerId = "43807A99-8507-4079-8E7C-8F87E5CA03D3";
paths = (
{
closed = 1;
nodes = (
"1561 0 LINE",
"1781 1247 LINE",
"1939 1247 LINE",
"2000 1592 LINE",
"1354 1592 LINE",
"1293 1247 LINE",
"1451 1247 LINE",
"1304 412 LINE",
"1399 567 LINE",
"950 1592 LINE",
"250 1592 LINE",
"189 1247 LINE",
"347 1247 LINE",
"188 345 LINE",
"30 345 LINE",
"-31 0 LINE",
"615 0 LINE",
"676 345 LINE",
"518 345 LINE",
"665 1180 LINE",
"570 1025 LINE",
"1017 -1 LINE"
);
}
);
width = 1878;
}
);
leftKerningGroup = H;
rightKerningGroup = N;
unicode = 004E;
},
{
glyphname = Eng;
layers = (
{
layerId = "43807A99-8507-4079-8E7C-8F87E5CA03D3";
paths = (
{
closed = 1;
nodes = (
"1011 -408 LINE SMOOTH",
"1340 -408 OFFCURVE",
"1515 -265 OFFCURVE",
"1570 50 CURVE SMOOTH",
"1781 1247 LINE",
"1939 1247 LINE",
"2000 1592 LINE",
"1374 1592 LINE",
"1313 1247 LINE",
"1451 1247 LINE",
"1391 908 LINE",
"917 1592 LINE",
"250 1592 LINE",
"189 1247 LINE",
"347 1247 LINE",
"188 345 LINE",
"30 345 LINE",
"-31 0 LINE",
"615 0 LINE",
"676 345 LINE",
"518 345 LINE",
"623 940 LINE",
"1242 59 LINE",
"1233 8 LINE SMOOTH",
"1220 -69 OFFCURVE",
"1160 -108 OFFCURVE",
"1054 -108 CURVE SMOOTH",
"1024 -108 LINE",
"971 -408 LINE"
);
}
);
width = 1878;
}
);
leftKerningGroup = H;
leftMetricsKey = N;
rightKerningGroup = N;
rightMetricsKey = N;
unicode = 014A;
},
{
glyphname = O;
layers = (
{
anchors = (
{
name = bottom;
position = "{778, 0}";
},
{
name = center;
position = "{918, 796}";
},
{
name = ogonek;
position = "{899, 0}";
},
{
name = top;
position = "{1059, 1592}";
},
{
name = topleft;
position = "{206, 1592}";
},
{
name = topright;
position = "{1912, 1592}";
}
);
layerId = "43807A99-8507-4079-8E7C-8F87E5CA03D3";
paths = (
{
closed = 1;
nodes = (
"1351 -29 OFFCURVE",
"1732 376 OFFCURVE",
"1732 967 CURVE SMOOTH",
"1732 1373 OFFCURVE",
"1475 1621 OFFCURVE",
"1031 1621 CURVE SMOOTH",
"487 1621 OFFCURVE",
"106 1216 OFFCURVE",
"106 625 CURVE SMOOTH",
"106 219 OFFCURVE",
"363 -29 OFFCURVE",
"806 -29 CURVE SMOOTH"
);
},
{
closed = 1;
nodes = (
"729 316 OFFCURVE",
"672 414 OFFCURVE",
"672 601 CURVE SMOOTH",
"672 914 OFFCURVE",
"786 1276 OFFCURVE",
"992 1276 CURVE SMOOTH",
"1109 1276 OFFCURVE",
"1166 1178 OFFCURVE",
"1166 992 CURVE SMOOTH",
"1166 678 OFFCURVE",
"1052 316 OFFCURVE",
"845 316 CURVE SMOOTH"
);
}
);
width = 1746;
}
);
leftKerningGroup = O;
rightKerningGroup = O;
rightMetricsKey = "=|";
unicode = 004F;
userData = {
com.typemytype.robofont.layerData = {
};
};
},
{
glyphname = Ohorn;
layers = (
{
anchors = (
{
name = bottom;
position = "{777, 0}";
},
{
name = ogonek;
position = "{889, 0}";
},
{
name = top;
position = "{1058, 1592}";
}
);
layerId = "43807A99-8507-4079-8E7C-8F87E5CA03D3";
paths = (
{
closed = 1;
nodes = (
"1351 -29 OFFCURVE",
"1732 376 OFFCURVE",
"1732 967 CURVE SMOOTH",
"1732 1177 OFFCURVE",
"1662 1361 OFFCURVE",
"1502 1486 CURVE",
"1452 1354 LINE",
"1694 1354 OFFCURVE",
"1838 1475 OFFCURVE",
"1878 1707 CURVE SMOOTH",
"1897 1816 LINE",
"1557 1816 LINE",
"1539 1715 LINE SMOOTH",
"1520 1610 OFFCURVE",
"1477 1578 OFFCURVE",
"1401 1578 CURVE SMOOTH",
"1319 1578 OFFCURVE",
"1204 1621 OFFCURVE",
"1031 1621 CURVE SMOOTH",
"487 1621 OFFCURVE",
"106 1216 OFFCURVE",
"106 625 CURVE SMOOTH",
"106 219 OFFCURVE",
"363 -29 OFFCURVE",
"806 -29 CURVE SMOOTH"
);
},
{
closed = 1;
nodes = (
"729 316 OFFCURVE",
"672 414 OFFCURVE",
"672 601 CURVE SMOOTH",
"672 914 OFFCURVE",
"786 1276 OFFCURVE",
"992 1276 CURVE SMOOTH",
"1109 1276 OFFCURVE",
"1166 1178 OFFCURVE",
"1166 992 CURVE SMOOTH",
"1166 678 OFFCURVE",
"1052 316 OFFCURVE",
"845 316 CURVE SMOOTH"
);
}
);
width = 1746;
}
);
leftKerningGroup = O;
leftMetricsKey = O;
widthMetricsKey = O;
rightKerningGroup = Ohorn;
unicode = 01A0;
},
{
glyphname = Oogonek;
layers = (
{
anchors = (
{
name = top;
position = "{1059, 1592}";
}
);
layerId = "43807A99-8507-4079-8E7C-8F87E5CA03D3";
paths = (
{
closed = 1;
nodes = (
"847 -468 OFFCURVE",
"891 -464 OFFCURVE",
"947 -451 CURVE",
"982 -255 LINE",
"950 -262 OFFCURVE",
"918 -265 OFFCURVE",
"887 -265 CURVE SMOOTH",
"811 -265 OFFCURVE",
"771 -231 OFFCURVE",
"771 -176 CURVE SMOOTH",
"771 -104 OFFCURVE",
"849 -46 OFFCURVE",
"1043 -1 CURVE SMOOTH",
"1408 83 OFFCURVE",
"1732 415 OFFCURVE",
"1732 967 CURVE SMOOTH",
"1732 1373 OFFCURVE",
"1475 1621 OFFCURVE",
"1031 1621 CURVE SMOOTH",
"487 1621 OFFCURVE",
"106 1216 OFFCURVE",
"106 625 CURVE SMOOTH",
"106 285 OFFCURVE",
"294 20 OFFCURVE",
"684 -22 CURVE",
"570 -80 OFFCURVE",
"524 -181 OFFCURVE",
"524 -259 CURVE SMOOTH",
"524 -401 OFFCURVE",
"643 -468 OFFCURVE",
"803 -468 CURVE SMOOTH"
);
},
{
closed = 1;
nodes = (
"729 316 OFFCURVE",
"672 414 OFFCURVE",
"672 601 CURVE SMOOTH",
"672 914 OFFCURVE",
"786 1276 OFFCURVE",
"992 1276 CURVE SMOOTH",
"1109 1276 OFFCURVE",
"1166 1178 OFFCURVE",
"1166 992 CURVE SMOOTH",
"1166 678 OFFCURVE",
"1052 316 OFFCURVE",
"845 316 CURVE SMOOTH"
);
}
);
width = 1746;
}
);
leftKerningGroup = O;
leftMetricsKey = O;
rightKerningGroup = O;
rightMetricsKey = O;
unicode = 01EA;
},
{
glyphname = Oslash;
layers = (
{
anchors = (
{
name = bottom;
position = "{778, 0}";
},
{
name = top;
position = "{1059, 1592}";
}
);
background = {
paths = (
{
closed = 1;
nodes = (
"1268 -29 OFFCURVE",
"1628 285 OFFCURVE",
"1718 794 CURVE SMOOTH",
"1808 1306 OFFCURVE",
"1559 1621 OFFCURVE",
"1064 1621 CURVE SMOOTH",
"569 1621 OFFCURVE",
"208 1306 OFFCURVE",
"118 794 CURVE SMOOTH",
"28 285 OFFCURVE",
"278 -29 OFFCURVE",
"773 -29 CURVE SMOOTH"
);
},
{
closed = 1;
nodes = (
"685 316 OFFCURVE",
"631 481 OFFCURVE",
"687 797 CURVE SMOOTH",
"742 1113 OFFCURVE",
"854 1278 OFFCURVE",
"1003 1278 CURVE SMOOTH",
"1152 1278 OFFCURVE",
"1206 1113 OFFCURVE",
"1151 797 CURVE SMOOTH",
"1095 481 OFFCURVE",
"983 316 OFFCURVE",
"834 316 CURVE SMOOTH"
);
},
{
closed = 1;
nodes = (
"1420 1750 LINE",
"1246 1790 LINE",
"417 -158 LINE",
"591 -198 LINE"
);
}
);
};
components = (
{
name = O;
},
{
alignment = 1;
name = slashlongcomb.case;
transform = "{1, 0, 0, 1, -13, 0}";
}
);
layerId = "43807A99-8507-4079-8E7C-8F87E5CA03D3";
width = 1746;
}
);
leftKerningGroup = O;
rightKerningGroup = O;
unicode = 00D8;
},
{
glyphname = OE;
layers = (
{
anchors = (
{
name = bottom;
position = "{1183, 0}";
},
{
name = top;
position = "{1465, 1592}";
}
);
layerId = "43807A99-8507-4079-8E7C-8F87E5CA03D3";
paths = (
{
closed = 1;
nodes = (
"2185 0 LINE",
"2304 677 LINE",
"1974 677 LINE",
"1880 340 LINE",
"1499 340 LINE",
"1660 1252 LINE",
"2041 1252 LINE",
"2024 959 LINE",
"2354 959 LINE",
"2466 1592 LINE",
"1146 1592 LINE SMOOTH",
"494 1592 OFFCURVE",
"106 1229 OFFCURVE",
"106 627 CURVE SMOOTH",
"106 208 OFFCURVE",
"371 0 OFFCURVE",
"904 0 CURVE SMOOTH"
);
},
{
closed = 1;
nodes = (
"750 335 OFFCURVE",
"672 415 OFFCURVE",
"672 603 CURVE SMOOTH",
"672 991 OFFCURVE",
"842 1257 OFFCURVE",
"1092 1257 CURVE SMOOTH",
"1149 1257 LINE",
"986 335 LINE",
"939 335 LINE SMOOTH"
);
},
{
closed = 1;
nodes = (
"1820 642 LINE",
"1880 982 LINE",
"1596 982 LINE",
"1536 642 LINE"
);
}
);
width = 2402;
}
);
leftKerningGroup = O;
leftMetricsKey = O;
rightKerningGroup = E;
rightMetricsKey = E;
unicode = 0152;
},
{
glyphname = P;
layers = (
{
layerId = "43807A99-8507-4079-8E7C-8F87E5CA03D3";
paths = (
{
closed = 1;
nodes = (
"927 0 LINE",
"988 345 LINE",
"700 345 LINE",
"861 1257 LINE",
"980 1257 LINE SMOOTH",
"1103 1257 OFFCURVE",
"1158 1213 OFFCURVE",
"1158 1115 CURVE SMOOTH",
"1158 976 OFFCURVE",
"1075 897 OFFCURVE",
"930 897 CURVE SMOOTH",
"779 897 LINE",
"725 592 LINE",
"954 592 LINE SMOOTH",
"1413 592 OFFCURVE",
"1687 811 OFFCURVE",
"1687 1176 CURVE SMOOTH",
"1687 1456 OFFCURVE",
"1494 1592 OFFCURVE",
"1096 1592 CURVE SMOOTH",
"250 1592 LINE",
"189 1247 LINE",
"347 1247 LINE",
"188 345 LINE",
"30 345 LINE",
"-31 0 LINE"
);
}
);
width = 1625;
}
);
leftKerningGroup = H;
rightKerningGroup = P;
unicode = 0050;
},
{
glyphname = Thorn;
layers = (
{
layerId = "43807A99-8507-4079-8E7C-8F87E5CA03D3";
paths = (
{
closed = 1;
nodes = (
"927 0 LINE",
"988 345 LINE",
"700 345 LINE",
"859 1247 LINE",
"1147 1247 LINE",
"1208 1592 LINE",
"250 1592 LINE",
"189 1247 LINE",
"347 1247 LINE",
"188 345 LINE",
"30 345 LINE",
"-31 0 LINE"
);
},
{
closed = 1;
nodes = (
"1147 474 LINE SMOOTH",
"1519 474 OFFCURVE",
"1746 615 OFFCURVE",
"1746 853 CURVE SMOOTH",
"1746 1056 OFFCURVE",
"1581 1157 OFFCURVE",
"1242 1157 CURVE SMOOTH",
"751 1157 LINE",
"706 902 LINE",
"1081 902 LINE SMOOTH",
"1176 902 OFFCURVE",
"1219 879 OFFCURVE",
"1219 825 CURVE SMOOTH",
"1219 761 OFFCURVE",
"1168 729 OFFCURVE",
"1061 729 CURVE SMOOTH",
"676 729 LINE",
"631 474 LINE"
);
}
);
width = 1731;
}
);
leftKerningGroup = H;
rightKerningGroup = Thorn;
unicode = 00DE;
},
{
glyphname = Q;
layers = (
{
layerId = "43807A99-8507-4079-8E7C-8F87E5CA03D3";
paths = (
{
closed = 1;
nodes = (
"1331 -29 OFFCURVE",
"1732 396 OFFCURVE",
"1732 967 CURVE SMOOTH",
"1732 1373 OFFCURVE",
"1474 1621 OFFCURVE",
"1031 1621 CURVE SMOOTH",
"487 1621 OFFCURVE",
"106 1216 OFFCURVE",
"106 625 CURVE SMOOTH",
"106 219 OFFCURVE",
"363 -29 OFFCURVE",
"806 -29 CURVE SMOOTH"
);
},
{
closed = 1;
nodes = (
"1641 0 LINE",
"1702 345 LINE",
"1406 345 LINE SMOOTH",
"1298 345 OFFCURVE",
"1252 376 OFFCURVE",
"1248 451 CURVE SMOOTH",
"1241 571 LINE SMOOTH",
"1229 762 OFFCURVE",
"1142 852 OFFCURVE",
"968 852 CURVE SMOOTH",
"787 852 OFFCURVE",
"638 733 OFFCURVE",
"603 571 CURVE",
"663 573 LINE",
"663 644 OFFCURVE",
"672 717 OFFCURVE",
"684 797 CURVE SMOOTH",
"732 1111 OFFCURVE",
"851 1276 OFFCURVE",
"993 1276 CURVE SMOOTH",
"1109 1276 OFFCURVE",
"1169 1178 OFFCURVE",
"1169 992 CURVE SMOOTH",
"1169 618 OFFCURVE",
"1050 311 OFFCURVE",
"841 311 CURVE SMOOTH",
"743 311 OFFCURVE",
"685 363 OFFCURVE",
"685 450 CURVE SMOOTH",
"685 555 OFFCURVE",
"756 622 OFFCURVE",
"844 622 CURVE SMOOTH",
"918 622 OFFCURVE",
"952 580 OFFCURVE",
"960 483 CURVE SMOOTH",
"971 348 LINE SMOOTH",
"990 109 OFFCURVE",
"1135 0 OFFCURVE",
"1423 0 CURVE SMOOTH"
);
}
);
width = 1786;
}
);
leftKerningGroup = O;
leftMetricsKey = O;
rightKerningGroup = O;
unicode = 0051;
},
{
glyphname = R;
layers = (
{
anchors = (
{
name = bottom;
position = "{784, 0}";
},
{
name = top;
position = "{1065, 1592}";
}
);
layerId = "43807A99-8507-4079-8E7C-8F87E5CA03D3";
paths = (
{
closed = 1;
nodes = (
"772 0 LINE",
"833 345 LINE",
"700 345 LINE",
"861 1257 LINE",
"1004 1257 LINE SMOOTH",
"1122 1257 OFFCURVE",
"1180 1213 OFFCURVE",
"1180 1117 CURVE SMOOTH",
"1180 995 OFFCURVE",
"1101 919 OFFCURVE",
"964 919 CURVE SMOOTH",
"737 919 LINE",
"688 641 LINE",
"869 641 LINE SMOOTH",
"970 641 OFFCURVE",
"1016 591 OFFCURVE",
"997 471 CURVE SMOOTH",
"979 358 LINE SMOOTH",
"941 122 OFFCURVE",
"1044 0 OFFCURVE",
"1299 0 CURVE SMOOTH",
"1642 0 LINE",
"1703 345 LINE",
"1610 345 LINE SMOOTH",
"1531 345 OFFCURVE",
"1509 380 OFFCURVE",
"1522 461 CURVE SMOOTH",
"1534 534 LINE SMOOTH",
"1563 712 OFFCURVE",
"1462 818 OFFCURVE",
"1207 818 CURVE",
"1208 764 LINE",
"1503 764 OFFCURVE",
"1717 947 OFFCURVE",
"1717 1225 CURVE SMOOTH",
"1717 1466 OFFCURVE",
"1524 1592 OFFCURVE",
"1149 1592 CURVE SMOOTH",
"250 1592 LINE",
"189 1247 LINE",
"347 1247 LINE",
"188 345 LINE",
"30 345 LINE",
"-31 0 LINE"
);
}
);
width = 1752;
}
);
leftKerningGroup = H;
rightKerningGroup = R;
unicode = 0052;
userData = {
com.typemytype.robofont.layerData = {
};
};
},
{
glyphname = S;
layers = (
{
anchors = (
{
name = bottom;
position = "{775, 0}";
},
{
name = cedilla;
position = "{741, 0}";
},
{
name = top;
position = "{1006, 1592}";
}
);
layerId = "43807A99-8507-4079-8E7C-8F87E5CA03D3";
paths = (
{
closed = 1;
nodes = (
"1237 -29 OFFCURVE",
"1496 214 OFFCURVE",
"1496 579 CURVE SMOOTH",
"1496 1171 OFFCURVE",
"708 943 OFFCURVE",
"708 1188 CURVE SMOOTH",
"708 1270 OFFCURVE",
"779 1323 OFFCURVE",
"901 1323 CURVE SMOOTH",
"1058 1323 OFFCURVE",
"1164 1229 OFFCURVE",
"1179 1076 CURVE",
"1560 1076 LINE",
"1651 1592 LINE",
"1376 1592 LINE",
"1300 1440 LINE",
"1215 1561 OFFCURVE",
"1063 1623 OFFCURVE",
"850 1623 CURVE SMOOTH",
"423 1623 OFFCURVE",
"157 1379 OFFCURVE",
"157 1017 CURVE SMOOTH",
"157 419 OFFCURVE",
"943 681 OFFCURVE",
"943 407 CURVE SMOOTH",
"943 324 OFFCURVE",
"877 271 OFFCURVE",
"759 271 CURVE SMOOTH",
"568 271 OFFCURVE",
"441 376 OFFCURVE",
"440 536 CURVE",
"67 536 LINE",
"-28 0 LINE",
"247 0 LINE",
"323 152 LINE",
"416 33 OFFCURVE",
"585 -29 OFFCURVE",
"815 -29 CURVE SMOOTH"
);
}
);
width = 1561;
}
);
leftKerningGroup = S;
rightKerningGroup = S;
rightMetricsKey = "=|";
unicode = 0053;
},
{
glyphname = Germandbls;
layers = (
{
layerId = "43807A99-8507-4079-8E7C-8F87E5CA03D3";
paths = (
{
closed = 1;
nodes = (
"756 0 LINE",
"817 345 LINE",
"684 345 LINE",
"805 1029 LINE SMOOTH",
"834 1195 OFFCURVE",
"942 1274 OFFCURVE",
"1100 1274 CURVE SMOOTH",
"1169 1274 OFFCURVE",
"1224 1264 OFFCURVE",
"1277 1237 CURVE",
"920 899 LINE",
"880 673 LINE",
"990 673 LINE SMOOTH",
"1129 673 OFFCURVE",
"1192 627 OFFCURVE",
"1192 531 CURVE SMOOTH",
"1192 418 OFFCURVE",
"1116 345 OFFCURVE",
"1001 345 CURVE SMOOTH",
"957 345 LINE",
"896 0 LINE",
"986 0 LINE SMOOTH",
"1450 0 OFFCURVE",
"1711 209 OFFCURVE",
"1711 548 CURVE SMOOTH",
"1711 794 OFFCURVE",
"1507 944 OFFCURVE",
"1151 942 CURVE",
"1165 744 LINE",
"1624 1178 LINE",
"1674 1464 LINE",
"1537 1567 OFFCURVE",
"1319 1623 OFFCURVE",
"1088 1623 CURVE SMOOTH",
"640 1623 OFFCURVE",
"357 1397 OFFCURVE",
"284 981 CURVE SMOOTH",
"172 345 LINE",
"14 345 LINE",
"-47 0 LINE"
);
}
);
width = 1771;
}
);
leftKerningGroup = H;
rightKerningGroup = Germandbls;
unicode = 1E9E;
},
{
glyphname = Schwa;
layers = (
{
anchors = (
{
name = bottom;
position = "{746, 0}";
},
{
name = top;
position = "{1027, 1592}";
}
);
layerId = "43807A99-8507-4079-8E7C-8F87E5CA03D3";
paths = (
{
closed = 1;
nodes = (
"1300 -29 OFFCURVE",
"1678 366 OFFCURVE",
"1678 937 CURVE SMOOTH",
"1678 1373 OFFCURVE",
"1404 1621 OFFCURVE",
"937 1621 CURVE SMOOTH",
"697 1621 OFFCURVE",
"467 1559 OFFCURVE",
"299 1457 CURVE",
"224 1035 LINE",
"249 1023 LINE",
"407 1131 OFFCURVE",
"585 1186 OFFCURVE",
"753 1186 CURVE SMOOTH",
"1052 1186 OFFCURVE",
"1139 1021 OFFCURVE",
"1110 849 CURVE",
"1067 611 LINE",
"1023 397 OFFCURVE",
"928 307 OFFCURVE",
"782 307 CURVE SMOOTH",
"631 307 OFFCURVE",
"556 407 OFFCURVE",
"589 611 CURVE",
"1111 611 LINE",
"1160 890 LINE",
"146 890 LINE",
"108 776 OFFCURVE",
"88 669 OFFCURVE",
"88 559 CURVE SMOOTH",
"88 193 OFFCURVE",
"348 -29 OFFCURVE",
"764 -29 CURVE SMOOTH"
);
}
);
width = 1696;
}
);
leftKerningGroup = O;
leftMetricsKey = "=O";
rightKerningGroup = O;
rightMetricsKey = "=O";
unicode = 018F;
},
{
glyphname = T;
layers = (
{
anchors = (
{
name = bottom;
position = "{759, 0}";
},
{
name = cedilla;
position = "{769, 0}";
},
{
name = center;
position = "{896, 776}";
},
{
name = top;
position = "{1040, 1592}";
}
);
layerId = "43807A99-8507-4079-8E7C-8F87E5CA03D3";
paths = (
{
closed = 1;
nodes = (
"1309 0 LINE",
"1370 345 LINE",
"1082 345 LINE",
"1245 1267 LINE",
"1424 1267 LINE",
"1405 930 LINE",
"1735 930 LINE",
"1852 1592 LINE",
"230 1592 LINE",
"113 930 LINE",
"443 930 LINE",
"542 1267 LINE",
"721 1267 LINE",
"558 345 LINE",
"270 345 LINE",
"209 0 LINE"
);
}
);
width = 1710;
}
);
leftKerningGroup = T;
rightKerningGroup = T;
rightMetricsKey = "=|";
unicode = 0054;
},
{
glyphname = U;
layers = (
{
anchors = (
{
name = bottom;
position = "{820, 0}";
},
{
name = ogonek;
position = "{1069, 0}";
},
{
name = top;
position = "{1101, 1592}";
}
);
layerId = "43807A99-8507-4079-8E7C-8F87E5CA03D3";
paths = (
{
closed = 1;
nodes = (
"1262 -29 OFFCURVE",
"1510 189 OFFCURVE",
"1587 625 CURVE SMOOTH",
"1697 1247 LINE",
"1857 1247 LINE",
"1918 1592 LINE",
"1259 1592 LINE",
"1198 1247 LINE",
"1363 1247 LINE",
"1261 669 LINE SMOOTH",
"1226 471 OFFCURVE",
"1126 368 OFFCURVE",
"967 368 CURVE SMOOTH",
"791 368 OFFCURVE",
"719 475 OFFCURVE",
"758 696 CURVE SMOOTH",
"855 1247 LINE",
"1018 1247 LINE",
"1079 1592 LINE",
"234 1592 LINE",
"173 1247 LINE",
"331 1247 LINE",
"234 695 LINE SMOOTH",
"151 225 OFFCURVE",
"402 -29 OFFCURVE",
"853 -29 CURVE SMOOTH"
);
}
);
width = 1780;
}
);
leftKerningGroup = U;
rightKerningGroup = U;
rightMetricsKey = "=|";
unicode = 0055;
},
{
glyphname = Uhorn;
layers = (
{
anchors = (
{
name = bottom;
position = "{820, 0}";
},
{
name = ogonek;
position = "{1069, 0}";
},
{
name = top;
position = "{1101, 1592}";
}
);
layerId = "43807A99-8507-4079-8E7C-8F87E5CA03D3";
paths = (
{
closed = 1;
nodes = (
"1262 -29 OFFCURVE",
"1510 189 OFFCURVE",
"1587 625 CURVE SMOOTH",
"1699 1257 LINE",
"1916 1282 OFFCURVE",
"2053 1430 OFFCURVE",
"2098 1685 CURVE SMOOTH",
"2121 1816 LINE",
"1781 1816 LINE",
"1764 1717 LINE SMOOTH",
"1750 1631 OFFCURVE",
"1698 1592 OFFCURVE",
"1600 1592 CURVE SMOOTH",
"1259 1592 LINE",
"1198 1247 LINE",
"1363 1247 LINE",
"1261 669 LINE SMOOTH",
"1226 471 OFFCURVE",
"1126 368 OFFCURVE",
"967 368 CURVE SMOOTH",
"791 368 OFFCURVE",
"719 475 OFFCURVE",
"758 696 CURVE SMOOTH",
"855 1247 LINE",
"1018 1247 LINE",
"1079 1592 LINE",
"234 1592 LINE",
"173 1247 LINE",
"331 1247 LINE",
"234 695 LINE SMOOTH",
"151 225 OFFCURVE",
"402 -29 OFFCURVE",
"853 -29 CURVE SMOOTH"
);
}
);
width = 1780;
}
);
leftKerningGroup = U;
leftMetricsKey = U;
widthMetricsKey = U;
rightKerningGroup = Uhorn;
unicode = 01AF;
},
{
glyphname = Uogonek;
layers = (
{
layerId = "43807A99-8507-4079-8E7C-8F87E5CA03D3";
paths = (
{
closed = 1;
nodes = (
"897 -468 OFFCURVE",
"941 -464 OFFCURVE",
"997 -451 CURVE",
"1032 -255 LINE",
"1000 -262 OFFCURVE",
"968 -265 OFFCURVE",
"937 -265 CURVE SMOOTH",
"861 -265 OFFCURVE",
"821 -231 OFFCURVE",
"821 -174 CURVE SMOOTH",
"821 -85 OFFCURVE",
"910 -38 OFFCURVE",
"1049 -9 CURVE SMOOTH",
"1338 52 OFFCURVE",
"1522 257 OFFCURVE",
"1587 625 CURVE SMOOTH",
"1697 1247 LINE",
"1857 1247 LINE",
"1918 1592 LINE",
"1259 1592 LINE",
"1198 1247 LINE",
"1363 1247 LINE",
"1261 669 LINE SMOOTH",
"1226 471 OFFCURVE",
"1126 368 OFFCURVE",
"967 368 CURVE SMOOTH",
"791 368 OFFCURVE",
"719 475 OFFCURVE",
"758 696 CURVE SMOOTH",
"855 1247 LINE",
"1018 1247 LINE",
"1079 1592 LINE",
"234 1592 LINE",
"173 1247 LINE",
"331 1247 LINE",
"234 695 LINE SMOOTH",
"159 269 OFFCURVE",
"358 21 OFFCURVE",
"735 -23 CURVE",
"636 -74 OFFCURVE",
"574 -163 OFFCURVE",
"574 -259 CURVE SMOOTH",
"574 -401 OFFCURVE",
"693 -468 OFFCURVE",
"853 -468 CURVE SMOOTH"
);
}
);
width = 1780;
}
);
leftKerningGroup = U;
leftMetricsKey = U;
widthMetricsKey = U;
rightKerningGroup = U;
unicode = 0172;
},
{
glyphname = V;
layers = (
{
layerId = "43807A99-8507-4079-8E7C-8F87E5CA03D3";
paths = (
{
closed = 1;
nodes = (
"1127 0 LINE",
"1738 1247 LINE",
"1883 1247 LINE",
"1944 1592 LINE",
"1268 1592 LINE",
"1207 1247 LINE",
"1372 1247 LINE",
"896 217 LINE",
"978 217 LINE",
"862 1247 LINE",
"1027 1247 LINE",
"1088 1592 LINE",
"200 1592 LINE",
"139 1247 LINE",
"284 1247 LINE",
"460 0 LINE"
);
}
);
width = 1772;
}
);
leftKerningGroup = V;
rightKerningGroup = V;
rightMetricsKey = "=|";
unicode = 0056;
},
{
glyphname = W;
layers = (
{
anchors = (
{
name = top;
position = "{1650, 1592}";
}
);
layerId = "43807A99-8507-4079-8E7C-8F87E5CA03D3";
paths = (
{
closed = 1;
nodes = (
"1031 0 LINE",
"1472 929 LINE",
"1372 929 LINE",
"1486 0 LINE",
"2055 0 LINE",
"2653 1247 LINE",
"2798 1247 LINE",
"2859 1592 LINE",
"2191 1592 LINE",
"2130 1247 LINE",
"2296 1247 LINE",
"1827 207 LINE",
"1977 207 LINE",
"1841 1592 LINE",
"1448 1592 LINE",
"803 207 LINE",
"961 207 LINE",
"867 1247 LINE",
"1032 1247 LINE",
"1093 1592 LINE",
"205 1592 LINE",
"144 1247 LINE",
"289 1247 LINE",
"447 0 LINE"
);
}
);
width = 2692;
}
);
leftKerningGroup = V;
rightKerningGroup = V;
rightMetricsKey = "=|";
unicode = 0057;
},
{
glyphname = X;
layers = (
{
layerId = "43807A99-8507-4079-8E7C-8F87E5CA03D3";
paths = (
{
closed = 1;
nodes = (
"1744 0 LINE",
"1805 345 LINE",
"1660 345 LINE",
"981 1248 LINE",
"1084 1248 LINE",
"1145 1593 LINE",
"242 1593 LINE",
"181 1248 LINE",
"326 1248 LINE",
"1005 345 LINE",
"840 345 LINE",
"779 0 LINE"
);
},
{
closed = 1;
nodes = (
"635 0 LINE",
"696 345 LINE",
"531 345 LINE",
"1030 886 LINE",
"647 886 LINE",
"125 345 LINE",
"-20 345 LINE",
"-81 0 LINE"
);
},
{
closed = 1;
nodes = (
"1215 707 LINE",
"1737 1248 LINE",
"1882 1248 LINE",
"1943 1593 LINE",
"1290 1593 LINE",
"1229 1248 LINE",
"1332 1248 LINE",
"832 707 LINE"
);
}
);
width = 1853;
}
);
leftKerningGroup = X;
rightKerningGroup = X;
unicode = 0058;
},
{
glyphname = Y;
layers = (
{
anchors = (
{
name = bottom;
position = "{769, 0}";
},
{
name = top;
position = "{1050, 1592}";
},
{
name = topleft;
position = "{122, 1592}";
}
);
layerId = "43807A99-8507-4079-8E7C-8F87E5CA03D3";
paths = (
{
closed = 1;
nodes = (
"1313 0 LINE",
"1374 345 LINE",
"1086 345 LINE",
"1202 1002 LINE",
"1061 594 LINE",
"1663 1248 LINE",
"1808 1248 LINE",
"1869 1593 LINE",
"1224 1593 LINE",
"1163 1248 LINE",
"1275 1248 LINE",
"988 929 LINE",
"1124 919 LINE",
"907 1248 LINE",
"1019 1248 LINE",
"1080 1593 LINE",
"187 1593 LINE",
"126 1248 LINE",
"271 1248 LINE",
"805 461 LINE",
"668 877 LINE",
"574 345 LINE",
"286 345 LINE",
"225 0 LINE"
);
}
);
width = 1728;
}
);
leftKerningGroup = Y;
rightKerningGroup = Y;
unicode = 0059;
},
{
glyphname = Z;
layers = (
{
anchors = (
{
name = bottom;
position = "{690, 0}";
},
{
name = top;
position = "{971, 1592}";
}
);
layerId = "43807A99-8507-4079-8E7C-8F87E5CA03D3";
paths = (
{
closed = 1;
nodes = (
"1401 0 LINE",
"1518 662 LINE",
"1188 662 LINE",
"1088 325 LINE",
"720 325 LINE",
"1615 1272 LINE",
"1671 1592 LINE",
"271 1592 LINE",
"154 930 LINE",
"484 930 LINE",
"583 1267 LINE",
"931 1267 LINE",
"36 320 LINE",
"-20 0 LINE"
);
}
);
width = 1570;
}
);
leftKerningGroup = Z;
rightKerningGroup = Z;
rightMetricsKey = "=|";
unicode = 005A;
},
{
glyphname = a;
layers = (
{
anchors = (
{
name = bottom;
position = "{630, 0}";
},
{
name = ogonek;
position = "{1227, 0}";
},
{
name = top;
position = "{754, 1072}";
}
);
layerId = "43807A99-8507-4079-8E7C-8F87E5CA03D3";
paths = (
{
closed = 1;
nodes = (
"505 -18 OFFCURVE",
"623 43 OFFCURVE",
"700 139 CURVE",
"750 0 LINE",
"1247 0 LINE",
"1300 300 LINE",
"1172 300 LINE",
"1232 640 LINE SMOOTH",
"1288 959 OFFCURVE",
"1115 1090 OFFCURVE",
"714 1090 CURVE SMOOTH",
"540 1090 OFFCURVE",
"348 1061 OFFCURVE",
"213 1007 CURVE",
"161 715 LINE",
"186 703 LINE",
"284 758 OFFCURVE",
"416 790 OFFCURVE",
"539 790 CURVE SMOOTH",
"705 790 OFFCURVE",
"765 730 OFFCURVE",
"746 626 CURVE SMOOTH",
"741 600 LINE",
"660 620 OFFCURVE",
"585 630 OFFCURVE",
"495 630 CURVE SMOOTH",
"217 630 OFFCURVE",
"22 489 OFFCURVE",
"22 264 CURVE SMOOTH",
"22 84 OFFCURVE",
"159 -18 OFFCURVE",
"353 -18 CURVE SMOOTH"
);
},
{
closed = 1;
nodes = (
"522 238 OFFCURVE",
"482 274 OFFCURVE",
"482 330 CURVE SMOOTH",
"482 406 OFFCURVE",
"537 459 OFFCURVE",
"622 459 CURVE SMOOTH",
"649 459 OFFCURVE",
"682 455 OFFCURVE",
"714 444 CURVE",
"687 293 LINE",
"664 259 OFFCURVE",
"623 238 OFFCURVE",
"579 238 CURVE SMOOTH"
);
}
);
width = 1399;
}
);
leftKerningGroup = a_rom;
rightKerningGroup = n;
unicode = 0061;
userData = {
com.typemytype.robofont.layerData = {
};
};
},
{
glyphname = ae;
layers = (
{
anchors = (
{
name = bottom;
position = "{900, 0}";
},
{
name = top;
position = "{1089, 1072}";
}
);
guideLines = (
{
angle = 90;
position = "{3163, 1225}";
}
);
layerId = "43807A99-8507-4079-8E7C-8F87E5CA03D3";
paths = (
{
closed = 1;
nodes = (
"859 -18 OFFCURVE",
"1022 146 OFFCURVE",
"1127 400 CURVE",
"1174 669 LINE SMOOTH",
"1226 964 OFFCURVE",
"1042 1090 OFFCURVE",
"713 1090 CURVE SMOOTH",
"559 1090 OFFCURVE",
"367 1061 OFFCURVE",
"232 1007 CURVE",
"180 715 LINE",
"205 703 LINE",
"303 758 OFFCURVE",
"435 790 OFFCURVE",
"558 790 CURVE SMOOTH",
"726 790 OFFCURVE",
"787 730 OFFCURVE",
"767 626 CURVE SMOOTH",
"762 600 LINE",
"679 620 OFFCURVE",
"604 630 OFFCURVE",
"514 630 CURVE SMOOTH",
"226 630 OFFCURVE",
"42 489 OFFCURVE",
"42 284 CURVE SMOOTH",
"42 84 OFFCURVE",
"227 -18 OFFCURVE",
"500 -18 CURVE SMOOTH"
);
},
{
closed = 1;
nodes = (
"541 228 OFFCURVE",
"501 263 OFFCURVE",
"501 328 CURVE SMOOTH",
"501 405 OFFCURVE",
"557 459 OFFCURVE",
"641 459 CURVE SMOOTH",
"668 459 OFFCURVE",
"703 455 OFFCURVE",
"735 444 CURVE",
"707 285 LINE",
"685 250 OFFCURVE",
"644 228 OFFCURVE",
"598 228 CURVE SMOOTH"
);
},
{
closed = 1;
nodes = (
"1467 -18 OFFCURVE",
"1671 22 OFFCURVE",
"1768 97 CURVE",
"1819 384 LINE",
"1794 396 LINE",
"1695 321 OFFCURVE",
"1579 282 OFFCURVE",
"1474 282 CURVE SMOOTH",
"1281 282 OFFCURVE",
"1194 368 OFFCURVE",
"1220 527 CURVE",
"1237 647 LINE",
"1259 761 OFFCURVE",
"1319 844 OFFCURVE",
"1410 844 CURVE SMOOTH",
"1501 844 OFFCURVE",
"1541 764 OFFCURVE",
"1516 647 CURVE",
"1209 647 LINE",
"1178 473 LINE",
"1859 473 LINE",
"1879 537 OFFCURVE",
"1895 630 OFFCURVE",
"1895 686 CURVE SMOOTH",
"1895 931 OFFCURVE",
"1728 1090 OFFCURVE",
"1441 1090 CURVE SMOOTH",
"1141 1090 OFFCURVE",
"888 880 OFFCURVE",
"829 546 CURVE SMOOTH",
"769 203 OFFCURVE",
"978 -18 OFFCURVE",
"1324 -18 CURVE SMOOTH"
);
}
);
width = 1931;
}
);
leftKerningGroup = a_rom;
rightKerningGroup = e;
rightMetricsKey = e;
unicode = 00E6;
},
{
glyphname = b;
layers = (
{
layerId = "43807A99-8507-4079-8E7C-8F87E5CA03D3";
paths = (
{
closed = 1;
nodes = (
"1187 -18 OFFCURVE",
"1426 253 OFFCURVE",
"1426 653 CURVE SMOOTH",
"1426 950 OFFCURVE",
"1249 1090 OFFCURVE",
"1034 1090 CURVE SMOOTH",
"927 1090 OFFCURVE",
"820 1054 OFFCURVE",
"732 973 CURVE",
"835 1560 LINE",
"211 1495 LINE",
"163 1222 LINE",
"291 1222 LINE",
"76 0 LINE",
"458 -1 LINE",
"527 72 LINE",
"607 15 OFFCURVE",
"738 -18 OFFCURVE",
"836 -18 CURVE SMOOTH"
);
},
{
closed = 1;
nodes = (
"692 281 OFFCURVE",
"646 293 OFFCURVE",
"616 315 CURVE",
"676 655 LINE",
"718 750 OFFCURVE",
"783 790 OFFCURVE",
"840 790 CURVE SMOOTH",
"912 790 OFFCURVE",
"951 734 OFFCURVE",
"951 629 CURVE SMOOTH",
"951 418 OFFCURVE",
"869 281 OFFCURVE",
"731 281 CURVE SMOOTH"
);
}
);
width = 1478;
}
);
leftKerningGroup = b;
rightKerningGroup = o;
unicode = 0062;
userData = {
com.typemytype.robofont.layerData = {
};
};
},
{
glyphname = c;
layers = (
{
anchors = (
{
name = bottom;
position = "{521, 0}";
},
{
name = cedilla;
position = "{564, 0}";
},
{
name = top;
position = "{710, 1072}";
}
);
layerId = "43807A99-8507-4079-8E7C-8F87E5CA03D3";
paths = (
{
closed = 1;
nodes = (
"763 -18 OFFCURVE",
"938 30 OFFCURVE",
"1036 97 CURVE",
"1088 394 LINE",
"1064 406 LINE",
"964 328 OFFCURVE",
"854 292 OFFCURVE",
"749 292 CURVE SMOOTH",
"605 292 OFFCURVE",
"526 367 OFFCURVE",
"526 492 CURVE SMOOTH",
"526 673 OFFCURVE",
"618 799 OFFCURVE",
"743 799 CURVE SMOOTH",
"823 799 OFFCURVE",
"871 743 OFFCURVE",
"864 628 CURVE",
"1152 628 LINE",
"1230 1072 LINE",
"1009 1072 LINE",
"949 957 LINE",
"884 1046 OFFCURVE",
"793 1090 OFFCURVE",
"652 1090 CURVE SMOOTH",
"330 1090 OFFCURVE",
"48 836 OFFCURVE",
"48 441 CURVE SMOOTH",
"48 158 OFFCURVE",
"271 -18 OFFCURVE",
"591 -18 CURVE SMOOTH"
);
}
);
width = 1197;
}
);
leftKerningGroup = o;
leftMetricsKey = o;
rightKerningGroup = c;
unicode = 0063;
userData = {
com.typemytype.robofont.layerData = {
};
};
},
{
glyphname = d;
layers = (
{
anchors = (
{
name = bottom;
position = "{652, 0}";
},
{
name = center;
position = "{747, 536}";
},
{
name = top;
position = "{1242, 1540}";
},
{
name = topright;
position = "{1586, 1560}";
}
);
layerId = "43807A99-8507-4079-8E7C-8F87E5CA03D3";
paths = (
{
closed = 1;
nodes = (
"571 -18 OFFCURVE",
"698 31 OFFCURVE",
"796 135 CURVE",
"842 0 LINE",
"1351 0 LINE",
"1404 300 LINE",
"1266 300 LINE",
"1488 1560 LINE",
"820 1495 LINE",
"771 1222 LINE",
"944 1222 LINE",
"905 1001 LINE",
"840 1057 OFFCURVE",
"732 1090 OFFCURVE",
"642 1090 CURVE SMOOTH",
"291 1090 OFFCURVE",
"52 819 OFFCURVE",
"52 419 CURVE SMOOTH",
"52 122 OFFCURVE",
"229 -18 OFFCURVE",
"444 -18 CURVE SMOOTH"
);
},
{
closed = 1;
nodes = (
"566 282 OFFCURVE",
"527 338 OFFCURVE",
"527 443 CURVE SMOOTH",
"527 654 OFFCURVE",
"609 791 OFFCURVE",
"747 791 CURVE SMOOTH",
"786 791 OFFCURVE",
"832 779 OFFCURVE",
"862 757 CURVE",
"802 417 LINE",
"760 322 OFFCURVE",
"695 282 OFFCURVE",
"638 282 CURVE SMOOTH"
);
}
);
width = 1493;
}
);
leftKerningGroup = o;
rightKerningGroup = l;
unicode = 0064;
},
{
glyphname = eth;
layers = (
{
layerId = "43807A99-8507-4079-8E7C-8F87E5CA03D3";
paths = (
{
closed = 1;
nodes = (
"1053 -18 OFFCURVE",
"1340 383 OFFCURVE",
"1340 896 CURVE SMOOTH",
"1340 1301 OFFCURVE",
"1074 1551 OFFCURVE",
"617 1551 CURVE SMOOTH",
"559 1551 OFFCURVE",
"486 1548 OFFCURVE",
"418 1537 CURVE",
"345 1237 LINE",
"449 1237 LINE SMOOTH",
"763 1237 OFFCURVE",
"914 1118 OFFCURVE",
"865 815 CURVE",
"933 771 LINE",
"908 909 OFFCURVE",
"819 1006 OFFCURVE",
"605 1006 CURVE SMOOTH",
"269 1006 OFFCURVE",
"42 741 OFFCURVE",
"42 417 CURVE SMOOTH",
"42 155 OFFCURVE",
"235 -18 OFFCURVE",
"566 -18 CURVE SMOOTH"
);
},
{
closed = 1;
nodes = (
"547 273 OFFCURVE",
"512 326 OFFCURVE",
"512 418 CURVE SMOOTH",
"512 555 OFFCURVE",
"568 715 OFFCURVE",
"692 715 CURVE SMOOTH",
"761 715 OFFCURVE",
"796 662 OFFCURVE",
"796 570 CURVE SMOOTH",
"796 433 OFFCURVE",
"740 273 OFFCURVE",
"616 273 CURVE SMOOTH"
);
},
{
closed = 1;
nodes = (
"1286 1437 LINE",
"1237 1553 LINE",
"347 1120 LINE",
"397 1004 LINE"
);
}
);
width = 1349;
}
);
leftKerningGroup = o;
rightKerningGroup = eth;
unicode = 00F0;
},
{
glyphname = dcroat;
layers = (
{
layerId = "43807A99-8507-4079-8E7C-8F87E5CA03D3";
paths = (
{
closed = 1;
nodes = (
"571 -18 OFFCURVE",
"698 31 OFFCURVE",
"796 135 CURVE",
"842 0 LINE",
"1351 0 LINE",
"1404 300 LINE",
"1266 300 LINE",
"1488 1560 LINE",
"996 1514 LINE",
"905 1001 LINE",
"840 1057 OFFCURVE",
"732 1090 OFFCURVE",
"642 1090 CURVE SMOOTH",
"291 1090 OFFCURVE",
"52 819 OFFCURVE",
"52 419 CURVE SMOOTH",
"52 122 OFFCURVE",
"229 -18 OFFCURVE",
"444 -18 CURVE SMOOTH"
);
},
{
closed = 1;
nodes = (
"566 282 OFFCURVE",
"527 338 OFFCURVE",
"527 443 CURVE SMOOTH",
"527 654 OFFCURVE",
"609 791 OFFCURVE",
"747 791 CURVE SMOOTH",
"786 791 OFFCURVE",
"832 779 OFFCURVE",
"862 757 CURVE",
"802 417 LINE",
"760 322 OFFCURVE",
"695 282 OFFCURVE",
"638 282 CURVE SMOOTH"
);
},
{
closed = 1;
nodes = (
"1536 1222 LINE",
"1569 1405 LINE",
"619 1405 LINE",
"586 1222 LINE"
);
}
);
width = 1493;
}
);
leftKerningGroup = o;
leftMetricsKey = d;
widthMetricsKey = d;
rightKerningGroup = l;
unicode = 0111;
},
{
glyphname = e;
layers = (
{
anchors = (
{
name = bottom;
position = "{545, 0}";
},
{
name = ogonek;
position = "{769, 0}";
},
{
name = top;
position = "{734, 1072}";
}
);
layerId = "43807A99-8507-4079-8E7C-8F87E5CA03D3";
paths = (
{
closed = 1;
nodes = (
"772 -18 OFFCURVE",
"974 22 OFFCURVE",
"1073 97 CURVE",
"1124 384 LINE",
"1099 396 LINE",
"1000 321 OFFCURVE",
"884 282 OFFCURVE",
"779 282 CURVE SMOOTH",
"586 282 OFFCURVE",
"499 368 OFFCURVE",
"525 527 CURVE",
"542 647 LINE",
"564 761 OFFCURVE",
"624 844 OFFCURVE",
"715 844 CURVE SMOOTH",
"806 844 OFFCURVE",
"846 764 OFFCURVE",
"821 647 CURVE",
"514 647 LINE",
"483 473 LINE",
"1164 473 LINE",
"1184 537 OFFCURVE",
"1200 630 OFFCURVE",
"1200 686 CURVE SMOOTH",
"1200 931 OFFCURVE",
"1033 1090 OFFCURVE",
"716 1090 CURVE SMOOTH",
"328 1090 OFFCURVE",
"49 838 OFFCURVE",
"49 446 CURVE SMOOTH",
"49 158 OFFCURVE",
"252 -18 OFFCURVE",
"619 -18 CURVE SMOOTH"
);
}
);
width = 1236;
}
);
leftKerningGroup = o;
leftMetricsKey = o;
rightKerningGroup = e;
unicode = 0065;
userData = {
com.typemytype.robofont.layerData = {
};
};
},
{
glyphname = eogonek;
layers = (
{
layerId = "43807A99-8507-4079-8E7C-8F87E5CA03D3";
paths = (
{
closed = 1;
nodes = (
"636 -18 OFFCURVE",
"653 -17 OFFCURVE",
"672 -16 CURVE",
"1073 97 LINE",
"1124 384 LINE",
"1099 396 LINE",
"1000 321 OFFCURVE",
"884 282 OFFCURVE",
"779 282 CURVE SMOOTH",
"586 282 OFFCURVE",
"499 368 OFFCURVE",
"525 527 CURVE",
"542 647 LINE",
"564 761 OFFCURVE",
"624 844 OFFCURVE",
"715 844 CURVE SMOOTH",
"806 844 OFFCURVE",
"846 764 OFFCURVE",
"821 647 CURVE",
"514 647 LINE",
"483 473 LINE",
"1164 473 LINE",
"1184 537 OFFCURVE",
"1200 630 OFFCURVE",
"1200 686 CURVE SMOOTH",
"1200 931 OFFCURVE",
"1033 1090 OFFCURVE",
"716 1090 CURVE SMOOTH",
"328 1090 OFFCURVE",
"49 838 OFFCURVE",
"49 446 CURVE SMOOTH",
"49 158 OFFCURVE",
"252 -18 OFFCURVE",
"619 -18 CURVE SMOOTH"
);
},
{
closed = 1;
nodes = (
"776 -468 OFFCURVE",
"820 -464 OFFCURVE",
"876 -451 CURVE",
"911 -255 LINE",
"879 -262 OFFCURVE",
"847 -265 OFFCURVE",
"816 -265 CURVE SMOOTH",
"740 -265 OFFCURVE",
"700 -231 OFFCURVE",
"700 -174 CURVE SMOOTH",
"700 -77 OFFCURVE",
"795 -5 OFFCURVE",
"1073 97 CURVE",
"656 0 LINE",
"535 -49 OFFCURVE",
"453 -148 OFFCURVE",
"453 -259 CURVE SMOOTH",
"453 -401 OFFCURVE",
"572 -468 OFFCURVE",
"732 -468 CURVE SMOOTH"
);
}
);
width = 1236;
}
);
leftKerningGroup = o;
leftMetricsKey = e;
widthMetricsKey = e;
rightKerningGroup = e;
unicode = 0119;
userData = {
com.typemytype.robofont.layerData = {
};
};
},
{
glyphname = schwa;
layers = (
{
anchors = (
{
name = bottom;
position = "{502, 0}";
},
{
name = top;
position = "{700, 1072}";
}
);
layerId = "43807A99-8507-4079-8E7C-8F87E5CA03D3";
paths = (
{
closed = 1;
nodes = (
"906 -18 OFFCURVE",
"1185 234 OFFCURVE",
"1185 626 CURVE SMOOTH",
"1185 914 OFFCURVE",
"982 1090 OFFCURVE",
"615 1090 CURVE SMOOTH",
"443 1090 OFFCURVE",
"282 1055 OFFCURVE",
"167 1005 CURVE",
"117 718 LINE",
"142 706 LINE",
"228 755 OFFCURVE",
"344 790 OFFCURVE",
"455 790 CURVE SMOOTH",
"648 790 OFFCURVE",
"735 704 OFFCURVE",
"709 545 CURVE",
"692 425 LINE",
"670 311 OFFCURVE",
"610 228 OFFCURVE",
"519 228 CURVE SMOOTH",
"428 228 OFFCURVE",
"388 308 OFFCURVE",
"413 425 CURVE",
"720 425 LINE",
"751 599 LINE",
"70 599 LINE",
"50 535 OFFCURVE",
"34 442 OFFCURVE",
"34 386 CURVE SMOOTH",
"34 141 OFFCURVE",
"201 -18 OFFCURVE",
"518 -18 CURVE SMOOTH"
);
}
);
width = 1236;
}
);
leftKerningGroup = o;
leftMetricsKey = "=e";
rightKerningGroup = o;
rightMetricsKey = "=e";
unicode = 0259;
},
{
glyphname = f;
layers = (
{
layerId = "43807A99-8507-4079-8E7C-8F87E5CA03D3";
paths = (
{
closed = 1;
nodes = (
"847 0 LINE",
"900 300 LINE",
"660 300 LINE",
"743 772 LINE",
"983 772 LINE",
"1036 1072 LINE",
"796 1072 LINE",
"807 1135 LINE SMOOTH",
"820 1208 OFFCURVE",
"864 1252 OFFCURVE",
"952 1252 CURVE SMOOTH",
"1006 1252 OFFCURVE",
"1035 1241 OFFCURVE",
"1062 1230 CURVE",
"1091 1242 LINE",
"1141 1528 LINE",
"1069 1548 OFFCURVE",
"987 1558 OFFCURVE",
"885 1558 CURVE SMOOTH",
"577 1558 OFFCURVE",
"373 1414 OFFCURVE",
"325 1145 CURVE SMOOTH",
"310 1061 LINE",
"144 1045 LINE",
"96 772 LINE",
"259 772 LINE",
"176 300 LINE",
"23 300 LINE",
"-30 0 LINE"
);
}
);
width = 962;
}
);
leftKerningGroup = n;
rightKerningGroup = f;
unicode = 0066;
},
{
glyphname = g;
layers = (
{
anchors = (
{
name = top;
position = "{861, 1072}";
}
);
layerId = "43807A99-8507-4079-8E7C-8F87E5CA03D3";
paths = (
{
closed = 1;
nodes = (
"860 -417 OFFCURVE",
"1168 -253 OFFCURVE",
"1242 166 CURVE SMOOTH",
"1349 772 LINE",
"1454 772 LINE",
"1507 1072 LINE",
"1021 1072 LINE",
"951 1000 LINE",
"871 1057 OFFCURVE",
"740 1090 OFFCURVE",
"642 1090 CURVE SMOOTH",
"291 1090 OFFCURVE",
"52 819 OFFCURVE",
"58 455 CURVE SMOOTH",
"63 158 OFFCURVE",
"235 18 OFFCURVE",
"450 18 CURVE SMOOTH",
"557 18 OFFCURVE",
"663 54 OFFCURVE",
"758 138 CURVE",
"750 92 LINE SMOOTH",
"726 -45 OFFCURVE",
"627 -115 OFFCURVE",
"474 -115 CURVE SMOOTH",
"362 -115 OFFCURVE",
"211 -91 OFFCURVE",
"95 -34 CURVE",
"66 -46 LINE",
"14 -338 LINE",
"146 -387 OFFCURVE",
"318 -414 OFFCURVE",
"497 -415 CURVE SMOOTH"
);
},
{
closed = 1;
nodes = (
"574 317 OFFCURVE",
"534 373 OFFCURVE",
"534 463 CURVE SMOOTH",
"534 660 OFFCURVE",
"612 791 OFFCURVE",
"747 791 CURVE SMOOTH",
"786 791 OFFCURVE",
"832 779 OFFCURVE",
"862 757 CURVE",
"808 452 LINE",
"766 357 OFFCURVE",
"701 317 OFFCURVE",
"644 317 CURVE SMOOTH"
);
}
);
width = 1483;
}
);
leftKerningGroup = o;
leftMetricsKey = "=o+5";
rightKerningGroup = g;
unicode = 0067;
},
{
glyphname = h;
layers = (
{
anchors = (
{
name = center;
position = "{714, 536}";
},
{
name = top;
position = "{604, 1540}";
}
);
layerId = "43807A99-8507-4079-8E7C-8F87E5CA03D3";
paths = (
{
closed = 1;
nodes = (
"660 0 LINE",
"713 300 LINE",
"627 300 LINE",
"849 1560 LINE",
"212 1501 LINE",
"164 1228 LINE",
"307 1228 LINE",
"143 300 LINE",
"0 300 LINE",
"-53 0 LINE"
);
},
{
closed = 1;
nodes = (
"1407 0 LINE",
"1460 300 LINE",
"1322 300 LINE",
"1391 689 LINE SMOOTH",
"1438 955 OFFCURVE",
"1332 1091 OFFCURVE",
"1083 1091 CURVE SMOOTH",
"936 1091 OFFCURVE",
"810 1038 OFFCURVE",
"718 936 CURVE",
"678 716 LINE",
"690 658 LINE",
"726 747 OFFCURVE",
"787 791 OFFCURVE",
"844 791 CURVE SMOOTH",
"892 791 OFFCURVE",
"918 755 OFFCURVE",
"904 676 CURVE SMOOTH",
"785 0 LINE"
);
}
);
width = 1549;
}
);
leftKerningGroup = l;
rightKerningGroup = n;
unicode = 0068;
userData = {
com.typemytype.robofont.layerData = {
};
};
},
{
glyphname = hbar;
layers = (
{
layerId = "43807A99-8507-4079-8E7C-8F87E5CA03D3";
paths = (
{
closed = 1;
nodes = (
"660 0 LINE",
"713 300 LINE",
"627 300 LINE",
"849 1560 LINE",
"357 1514 LINE",
"143 300 LINE",
"0 300 LINE",
"-53 0 LINE"
);
},
{
closed = 1;
nodes = (
"1407 0 LINE",
"1460 300 LINE",
"1322 300 LINE",
"1391 689 LINE SMOOTH",
"1438 955 OFFCURVE",
"1332 1091 OFFCURVE",
"1083 1091 CURVE SMOOTH",
"936 1091 OFFCURVE",
"810 1038 OFFCURVE",
"718 936 CURVE",
"678 716 LINE",
"690 658 LINE",
"726 747 OFFCURVE",
"787 791 OFFCURVE",
"844 791 CURVE SMOOTH",
"892 791 OFFCURVE",
"918 755 OFFCURVE",
"904 676 CURVE SMOOTH",
"785 0 LINE"
);
},
{
closed = 1;
nodes = (
"1147 1222 LINE",
"1180 1405 LINE",
"230 1405 LINE",
"197 1222 LINE"
);
}
);
width = 1549;
}
);
leftKerningGroup = l;
leftMetricsKey = h;
widthMetricsKey = h;
rightKerningGroup = n;
unicode = 0127;
},
{
glyphname = i;
layers = (
{
anchors = (
{
name = bottom;
position = "{365, 0}";
},
{
name = ogonek;
position = "{580, 0}";
}
);
background = {
paths = (
{
closed = 1;
nodes = (
"828 0 LINE",
"828 301 LINE",
"700 301 LINE",
"700 1072 LINE",
"92 1008 LINE",
"92 761 LINE",
"220 761 LINE",
"220 301 LINE",
"92 301 LINE",
"92 0 LINE"
);
},
{
closed = 1;
nodes = (
"618 1175 OFFCURVE",
"748 1249 OFFCURVE",
"748 1405 CURVE SMOOTH",
"748 1562 OFFCURVE",
"622 1630 OFFCURVE",
"461 1630 CURVE SMOOTH",
"304 1630 OFFCURVE",
"172 1560 OFFCURVE",
"172 1405 CURVE SMOOTH",
"172 1250 OFFCURVE",
"305 1175 OFFCURVE",
"460 1175 CURVE SMOOTH"
);
}
);
};
components = (
{
name = idotless;
},
{
name = dotaccentcomb.i;
}
);
layerId = "43807A99-8507-4079-8E7C-8F87E5CA03D3";
width = 887;
}
);
leftKerningGroup = n;
rightKerningGroup = u;
unicode = 0069;
userData = {
com.typemytype.robofont.layerData = {
};
};
},
{
glyphname = idotless;
layers = (
{
anchors = (
{
name = bottom;
position = "{365, 0}";
},
{
name = ogonek;
position = "{605, 0}";
},
{
name = top;
position = "{554, 1072}";
}
);
layerId = "43807A99-8507-4079-8E7C-8F87E5CA03D3";
paths = (
{
closed = 1;
nodes = (
"760 0 LINE",
"813 300 LINE",
"660 300 LINE",
"799 1091 LINE",
"152 1032 LINE",
"104 759 LINE",
"257 759 LINE",
"176 300 LINE",
"23 300 LINE",
"-30 0 LINE"
);
}
);
width = 887;
}
);
leftKerningGroup = n;
rightKerningGroup = u;
unicode = 0131;
},
{
glyphname = ij;
layers = (
{
layerId = "43807A99-8507-4079-8E7C-8F87E5CA03D3";
paths = (
{
closed = 1;
nodes = (
"919 -417 OFFCURVE",
"1216 -253 OFFCURVE",
"1290 166 CURVE SMOOTH",
"1453 1091 LINE",
"871 1032 LINE",
"823 759 LINE",
"911 759 LINE",
"791 82 LINE SMOOTH",
"766 -58 OFFCURVE",
"682 -115 OFFCURVE",
"507 -115 CURVE SMOOTH",
"375 -115 OFFCURVE",
"244 -91 OFFCURVE",
"137 -36 CURVE",
"108 -48 LINE",
"56 -340 LINE",
"179 -387 OFFCURVE",
"341 -414 OFFCURVE",
"530 -415 CURVE SMOOTH"
);
},
{
closed = 1;
nodes = (
"614 18 OFFCURVE",
"750 68 OFFCURVE",
"850 170 CURVE",
"868 393 LINE",
"857 454 LINE",
"821 365 OFFCURVE",
"760 318 OFFCURVE",
"705 318 CURVE SMOOTH",
"657 318 OFFCURVE",
"631 354 OFFCURVE",
"645 433 CURVE SMOOTH",
"761 1091 LINE",
"129 1032 LINE",
"81 759 LINE",
"219 759 LINE",
"159 420 LINE SMOOTH",
"112 154 OFFCURVE",
"218 18 OFFCURVE",
"466 18 CURVE SMOOTH"
);
},
{
closed = 1;
nodes = (
"737 1158 OFFCURVE",
"861 1251 OFFCURVE",
"861 1407 CURVE SMOOTH",
"861 1533 OFFCURVE",
"764 1613 OFFCURVE",
"593 1613 CURVE SMOOTH",
"406 1613 OFFCURVE",
"283 1524 OFFCURVE",
"283 1369 CURVE SMOOTH",
"283 1244 OFFCURVE",
"386 1158 OFFCURVE",
"551 1158 CURVE SMOOTH"
);
},
{
closed = 1;
nodes = (
"1430 1158 OFFCURVE",
"1554 1251 OFFCURVE",
"1554 1407 CURVE SMOOTH",
"1554 1533 OFFCURVE",
"1457 1613 OFFCURVE",
"1286 1613 CURVE SMOOTH",
"1099 1613 OFFCURVE",
"976 1524 OFFCURVE",
"976 1369 CURVE SMOOTH",
"976 1244 OFFCURVE",
"1079 1158 OFFCURVE",
"1244 1158 CURVE SMOOTH"
);
}
);
width = 1494;
}
);
leftKerningGroup = u;
leftMetricsKey = u;
rightKerningGroup = j;
unicode = 0133;
},
{
glyphname = jdotless;
layers = (
{
anchors = (
{
name = bottom;
position = "{332, 0}";
},
{
name = top;
position = "{521, 1072}";
}
);
layerId = "43807A99-8507-4079-8E7C-8F87E5CA03D3";
paths = (
{
closed = 1;
nodes = (
"328 -408 OFFCURVE",
"523 -290 OFFCURVE",
"585 60 CURVE SMOOTH",
"767 1091 LINE",
"119 1032 LINE",
"71 759 LINE",
"224 759 LINE",
"95 28 LINE SMOOTH",
"77 -73 OFFCURVE",
"33 -108 OFFCURVE",
"-87 -108 CURVE",
"-140 -408 LINE"
);
}
);
width = 797;
}
);
leftKerningGroup = p;
rightKerningGroup = j;
unicode = 0237;
},
{
glyphname = k;
layers = (
{
anchors = (
{
name = bottom;
position = "{702, 0}";
},
{
name = top;
position = "{604, 1540}";
}
);
layerId = "43807A99-8507-4079-8E7C-8F87E5CA03D3";
paths = (
{
closed = 1;
nodes = (
"574 0 LINE",
"849 1560 LINE",
"210 1495 LINE",
"162 1222 LINE",
"305 1222 LINE",
"143 300 LINE",
"0 300 LINE",
"-53 0 LINE"
);
},
{
closed = 1;
nodes = (
"1360 0 LINE",
"1413 300 LINE",
"1261 300 LINE",
"1036 723 LINE",
"1036 565 LINE",
"1309 772 LINE",
"1475 772 LINE",
"1528 1072 LINE",
"857 1072 LINE",
"804 772 LINE",
"952 772 LINE",
"629 532 LINE",
"607 475 LINE",
"852 0 LINE"
);
}
);
width = 1481;
}
);
leftKerningGroup = l;
rightKerningGroup = k;
unicode = 006B;
userData = {
com.typemytype.robofont.layerData = {
};
};
},
{
glyphname = kgreenlandic;
layers = (
{
layerId = "43807A99-8507-4079-8E7C-8F87E5CA03D3";
paths = (
{
closed = 1;
nodes = (
"1403 0 LINE",
"1456 300 LINE",
"1304 300 LINE",
"1079 723 LINE",
"1079 565 LINE",
"1352 772 LINE",
"1518 772 LINE",
"1571 1072 LINE",
"900 1072 LINE",
"847 772 LINE",
"995 772 LINE",
"672 532 LINE",
"650 475 LINE",
"895 0 LINE"
);
},
{
closed = 1;
nodes = (
"616 0 LINE",
"805 1072 LINE",
"170 1072 LINE",
"117 772 LINE",
"270 772 LINE",
"187 300 LINE",
"34 300 LINE",
"-19 0 LINE"
);
}
);
width = 1524;
}
);
leftKerningGroup = n;
leftMetricsKey = n;
rightKerningGroup = k;
rightMetricsKey = k;
unicode = 0138;
},
{
glyphname = l;
layers = (
{
anchors = (
{
name = bottom;
position = "{332, 0}";
},
{
name = center;
position = "{466, 761}";
},
{
name = top;
position = "{604, 1540}";
},
{
name = topright;
position = "{947, 1560}";
}
);
layerId = "43807A99-8507-4079-8E7C-8F87E5CA03D3";
paths = (
{
closed = 1;
nodes = (
"727 0 LINE",
"780 300 LINE",
"627 300 LINE",
"849 1560 LINE",
"201 1495 LINE",
"152 1222 LINE",
"305 1222 LINE",
"143 300 LINE",
"-10 300 LINE",
"-63 0 LINE"
);
}
);
width = 854;
}
);
leftKerningGroup = l;
rightKerningGroup = l;
unicode = 006C;
userData = {
com.typemytype.robofont.layerData = {
};
};
},
{
glyphname = ldot;
layers = (
{
layerId = "43807A99-8507-4079-8E7C-8F87E5CA03D3";
paths = (
{
closed = 1;
nodes = (
"727 0 LINE",
"780 300 LINE",
"627 300 LINE",
"849 1560 LINE",
"201 1495 LINE",
"152 1222 LINE",
"305 1222 LINE",
"143 300 LINE",
"-10 300 LINE",
"-63 0 LINE"
);
},
{
closed = 1;
nodes = (
"1128 585 OFFCURVE",
"1224 661 OFFCURVE",
"1224 782 CURVE SMOOTH",
"1224 880 OFFCURVE",
"1146 942 OFFCURVE",
"1031 942 CURVE SMOOTH",
"906 942 OFFCURVE",
"816 866 OFFCURVE",
"816 747 CURVE SMOOTH",
"816 647 OFFCURVE",
"899 585 OFFCURVE",
"1008 585 CURVE SMOOTH"
);
}
);
width = 1106;
}
);
leftKerningGroup = l;
leftMetricsKey = l;
unicode = 0140;
},
{
glyphname = lslash;
layers = (
{
background = {
paths = (
{
closed = 1;
nodes = (
"838 0 LINE",
"838 305 LINE",
"760 305 LINE",
"760 861 LINE",
"970 974 LINE",
"871 1153 LINE",
"760 1093 LINE",
"760 1630 LINE",
"181 1630 LINE",
"181 1317 LINE",
"265 1317 LINE",
"265 828 LINE",
"59 718 LINE",
"159 540 LINE",
"265 596 LINE",
"265 305 LINE",
"191 305 LINE",
"191 0 LINE"
);
}
);
};
components = (
{
name = l;
},
{
name = slashshortcomb;
transform = "{1, 0, 0, 1, -103, -85}";
}
);
layerId = "43807A99-8507-4079-8E7C-8F87E5CA03D3";
width = 854;
}
);
leftKerningGroup = l;
rightKerningGroup = l;
unicode = 0142;
},
{
glyphname = m;
layers = (
{
anchors = (
{
name = bottom;
position = "{1050, 0}";
},
{
name = top;
position = "{1239, 1072}";
}
);
layerId = "43807A99-8507-4079-8E7C-8F87E5CA03D3";
paths = (
{
closed = 1;
nodes = (
"693 0 LINE",
"746 300 LINE",
"660 300 LINE",
"760 867 LINE",
"756 912 LINE",
"787 1091 LINE",
"162 1032 LINE",
"114 759 LINE",
"257 759 LINE",
"176 300 LINE",
"33 300 LINE",
"-20 0 LINE"
);
},
{
closed = 1;
nodes = (
"1378 0 LINE",
"1431 300 LINE",
"1345 300 LINE",
"1450 895 LINE",
"1411 903 LINE",
"1378 1032 OFFCURVE",
"1268 1091 OFFCURVE",
"1111 1091 CURVE SMOOTH",
"969 1091 OFFCURVE",
"843 1040 OFFCURVE",
"751 941 CURVE",
"711 716 LINE",
"723 658 LINE",
"759 747 OFFCURVE",
"820 791 OFFCURVE",
"872 791 CURVE SMOOTH",
"915 791 OFFCURVE",
"941 755 OFFCURVE",
"927 676 CURVE SMOOTH",
"808 0 LINE"
);
},
{
closed = 1;
nodes = (
"2115 0 LINE",
"2168 300 LINE",
"2030 300 LINE",
"2099 689 LINE SMOOTH",
"2146 955 OFFCURVE",
"2040 1091 OFFCURVE",
"1786 1091 CURVE SMOOTH",
"1627 1091 OFFCURVE",
"1481 1030 OFFCURVE",
"1367 914 CURVE",
"1397 721 LINE",
"1408 658 LINE",
"1444 747 OFFCURVE",
"1505 791 OFFCURVE",
"1557 791 CURVE SMOOTH",
"1600 791 OFFCURVE",
"1626 755 OFFCURVE",
"1612 676 CURVE SMOOTH",
"1493 0 LINE"
);
}
);
width = 2257;
}
);
leftKerningGroup = n;
rightKerningGroup = n;
unicode = 006D;
userData = {
com.typemytype.robofont.layerData = {
};
};
},
{
glyphname = n;
layers = (
{
anchors = (
{
name = bottom;
position = "{710, 0}";
},
{
name = top;
position = "{899, 1072}";
}
);
layerId = "43807A99-8507-4079-8E7C-8F87E5CA03D3";
paths = (
{
closed = 1;
nodes = (
"695 0 LINE",
"748 300 LINE",
"660 300 LINE",
"760 867 LINE",
"756 912 LINE",
"787 1091 LINE",
"162 1032 LINE",
"114 759 LINE",
"257 759 LINE",
"176 300 LINE",
"33 300 LINE",
"-20 0 LINE"
);
},
{
closed = 1;
nodes = (
"1440 0 LINE",
"1493 300 LINE",
"1355 300 LINE",
"1424 689 LINE SMOOTH",
"1471 955 OFFCURVE",
"1365 1091 OFFCURVE",
"1116 1091 CURVE SMOOTH",
"969 1091 OFFCURVE",
"843 1040 OFFCURVE",
"751 941 CURVE",
"711 716 LINE",
"723 658 LINE",
"759 747 OFFCURVE",
"820 791 OFFCURVE",
"877 791 CURVE SMOOTH",
"925 791 OFFCURVE",
"951 755 OFFCURVE",
"937 676 CURVE SMOOTH",
"818 0 LINE"
);
}
);
width = 1582;
}
);
leftKerningGroup = n;
rightKerningGroup = n;
unicode = 006E;
userData = {
com.typemytype.robofont.guides = (
);
com.typemytype.robofont.layerData = {
};
};
},
{
glyphname = eng;
layers = (
{
layerId = "43807A99-8507-4079-8E7C-8F87E5CA03D3";
paths = (
{
closed = 1;
nodes = (
"1056 -408 OFFCURVE",
"1251 -290 OFFCURVE",
"1313 60 CURVE SMOOTH",
"1424 689 LINE SMOOTH",
"1471 955 OFFCURVE",
"1365 1091 OFFCURVE",
"1116 1091 CURVE SMOOTH",
"969 1091 OFFCURVE",
"843 1040 OFFCURVE",
"751 941 CURVE",
"711 716 LINE",
"723 658 LINE",
"759 747 OFFCURVE",
"820 791 OFFCURVE",
"877 791 CURVE SMOOTH",
"925 791 OFFCURVE",
"951 755 OFFCURVE",
"937 676 CURVE SMOOTH",
"822 21 LINE SMOOTH",
"803 -75 OFFCURVE",
"758 -108 OFFCURVE",
"641 -108 CURVE",
"588 -408 LINE"
);
},
{
closed = 1;
nodes = (
"695 0 LINE",
"748 300 LINE",
"660 300 LINE",
"760 867 LINE",
"756 912 LINE",
"787 1091 LINE",
"162 1032 LINE",
"114 759 LINE",
"257 759 LINE",
"176 300 LINE",
"33 300 LINE",
"-20 0 LINE"
);
}
);
width = 1525;
}
);
leftKerningGroup = n;
leftMetricsKey = n;
rightKerningGroup = j;
rightMetricsKey = jdotless;
unicode = 014B;
},
{
glyphname = o;
layers = (
{
anchors = (
{
name = bottom;
position = "{566, 0}";
},
{
name = center;
position = "{661, 536}";
},
{
name = ogonek;
position = "{729, 0}";
},
{
name = top;
position = "{755, 1072}";
},
{
name = topright;
position = "{1396, 1072}";
}
);
layerId = "43807A99-8507-4079-8E7C-8F87E5CA03D3";
paths = (
{
closed = 1;
nodes = (
"994 -18 OFFCURVE",
"1274 245 OFFCURVE",
"1274 631 CURVE SMOOTH",
"1274 917 OFFCURVE",
"1072 1090 OFFCURVE",
"739 1090 CURVE SMOOTH",
"327 1090 OFFCURVE",
"48 828 OFFCURVE",
"48 441 CURVE SMOOTH",
"48 155 OFFCURVE",
"250 -18 OFFCURVE",
"583 -18 CURVE SMOOTH"
);
},
{
closed = 1;
nodes = (
"551 273 OFFCURVE",
"516 327 OFFCURVE",
"516 429 CURVE SMOOTH",
"516 631 OFFCURVE",
"602 799 OFFCURVE",
"705 799 CURVE SMOOTH",
"771 799 OFFCURVE",
"806 745 OFFCURVE",
"806 643 CURVE SMOOTH",
"806 441 OFFCURVE",
"720 273 OFFCURVE",
"617 273 CURVE SMOOTH"
);
}
);
width = 1322;
}
);
leftKerningGroup = o;
rightKerningGroup = o;
rightMetricsKey = "=|";
unicode = 006F;
},
{
glyphname = ohorn;
layers = (
{
anchors = (
{
name = bottom;
position = "{566, 0}";
},
{
name = top;
position = "{755, 1072}";
}
);
layerId = "43807A99-8507-4079-8E7C-8F87E5CA03D3";
paths = (
{
closed = 1;
nodes = (
"994 -18 OFFCURVE",
"1274 245 OFFCURVE",
"1274 631 CURVE SMOOTH",
"1274 765 OFFCURVE",
"1232 881 OFFCURVE",
"1128 972 CURVE",
"1065 834 LINE",
"1287 834 OFFCURVE",
"1440 945 OFFCURVE",
"1480 1177 CURVE SMOOTH",
"1499 1286 LINE",
"1159 1286 LINE",
"1140 1177 LINE SMOOTH",
"1125 1092 OFFCURVE",
"1086 1058 OFFCURVE",
"1025 1058 CURVE SMOOTH",
"944 1058 OFFCURVE",
"870 1090 OFFCURVE",
"739 1090 CURVE SMOOTH",
"327 1090 OFFCURVE",
"48 828 OFFCURVE",
"48 441 CURVE SMOOTH",
"48 155 OFFCURVE",
"250 -18 OFFCURVE",
"583 -18 CURVE SMOOTH"
);
},
{
closed = 1;
nodes = (
"551 273 OFFCURVE",
"516 327 OFFCURVE",
"516 429 CURVE SMOOTH",
"516 631 OFFCURVE",
"602 799 OFFCURVE",
"705 799 CURVE SMOOTH",
"771 799 OFFCURVE",
"806 745 OFFCURVE",
"806 643 CURVE SMOOTH",
"806 441 OFFCURVE",
"720 273 OFFCURVE",
"617 273 CURVE SMOOTH"
);
}
);
width = 1322;
}
);
leftKerningGroup = o;
leftMetricsKey = o;
widthMetricsKey = o;
rightKerningGroup = ohorn;
unicode = 01A1;
},
{
glyphname = oogonek;
layers = (
{
anchors = (
{
name = center;
position = "{661, 536}";
},
{
name = top;
position = "{755, 1072}";
}
);
layerId = "43807A99-8507-4079-8E7C-8F87E5CA03D3";
paths = (
{
closed = 1;
nodes = (
"605 -468 OFFCURVE",
"649 -464 OFFCURVE",
"705 -451 CURVE",
"740 -255 LINE",
"708 -262 OFFCURVE",
"676 -265 OFFCURVE",
"645 -265 CURVE SMOOTH",
"569 -265 OFFCURVE",
"529 -231 OFFCURVE",
"529 -174 CURVE SMOOTH",
"529 -82 OFFCURVE",
"618 -33 OFFCURVE",
"762 0 CURVE SMOOTH",
"1082 73 OFFCURVE",
"1274 304 OFFCURVE",
"1274 631 CURVE SMOOTH",
"1274 917 OFFCURVE",
"1072 1090 OFFCURVE",
"739 1090 CURVE SMOOTH",
"327 1090 OFFCURVE",
"48 828 OFFCURVE",
"48 441 CURVE SMOOTH",
"48 155 OFFCURVE",
"250 -18 OFFCURVE",
"583 -18 CURVE",
"676 50 LINE",
"424 20 OFFCURVE",
"282 -100 OFFCURVE",
"282 -259 CURVE SMOOTH",
"282 -401 OFFCURVE",
"401 -468 OFFCURVE",
"561 -468 CURVE SMOOTH"
);
},
{
closed = 1;
nodes = (
"551 273 OFFCURVE",
"516 327 OFFCURVE",
"516 429 CURVE SMOOTH",
"516 631 OFFCURVE",
"602 799 OFFCURVE",
"705 799 CURVE SMOOTH",
"771 799 OFFCURVE",
"806 745 OFFCURVE",
"806 643 CURVE SMOOTH",
"806 441 OFFCURVE",
"720 273 OFFCURVE",
"617 273 CURVE SMOOTH"
);
}
);
width = 1322;
}
);
leftKerningGroup = o;
leftMetricsKey = o;
widthMetricsKey = o;
rightKerningGroup = o;
unicode = 01EB;
},
{
glyphname = oe;
layers = (
{
anchors = (
{
name = bottom;
position = "{947, 0}";
},
{
name = top;
position = "{1136, 1072}";
}
);
layerId = "43807A99-8507-4079-8E7C-8F87E5CA03D3";
paths = (
{
closed = 1;
nodes = (
"919 -18 OFFCURVE",
"1199 245 OFFCURVE",
"1199 631 CURVE SMOOTH",
"1199 917 OFFCURVE",
"1064 1090 OFFCURVE",
"739 1090 CURVE SMOOTH",
"327 1090 OFFCURVE",
"48 828 OFFCURVE",
"48 441 CURVE SMOOTH",
"48 155 OFFCURVE",
"250 -18 OFFCURVE",
"583 -18 CURVE SMOOTH"
);
},
{
closed = 1;
nodes = (
"551 273 OFFCURVE",
"516 327 OFFCURVE",
"516 429 CURVE SMOOTH",
"516 631 OFFCURVE",
"602 799 OFFCURVE",
"705 799 CURVE SMOOTH",
"771 799 OFFCURVE",
"806 745 OFFCURVE",
"806 643 CURVE SMOOTH",
"806 441 OFFCURVE",
"720 273 OFFCURVE",
"617 273 CURVE SMOOTH"
);
},
{
closed = 1;
nodes = (
"1525 -18 OFFCURVE",
"1717 22 OFFCURVE",
"1816 97 CURVE",
"1867 384 LINE",
"1842 396 LINE",
"1743 321 OFFCURVE",
"1627 282 OFFCURVE",
"1522 282 CURVE SMOOTH",
"1329 282 OFFCURVE",
"1242 368 OFFCURVE",
"1268 527 CURVE",
"1285 647 LINE",
"1307 761 OFFCURVE",
"1367 844 OFFCURVE",
"1458 844 CURVE SMOOTH",
"1549 844 OFFCURVE",
"1589 764 OFFCURVE",
"1564 647 CURVE",
"1257 647 LINE",
"1226 473 LINE",
"1907 473 LINE",
"1927 537 OFFCURVE",
"1943 630 OFFCURVE",
"1943 686 CURVE SMOOTH",
"1943 931 OFFCURVE",
"1776 1090 OFFCURVE",
"1489 1090 CURVE SMOOTH",
"1144 1090 OFFCURVE",
"865 838 OFFCURVE",
"865 446 CURVE SMOOTH",
"865 158 OFFCURVE",
"1048 -18 OFFCURVE",
"1392 -18 CURVE SMOOTH"
);
}
);
width = 1979;
}
);
leftKerningGroup = o;
leftMetricsKey = o;
rightKerningGroup = e;
rightMetricsKey = e;
unicode = 0153;
},
{
glyphname = p;
layers = (
{
layerId = "43807A99-8507-4079-8E7C-8F87E5CA03D3";
paths = (
{
closed = 1;
nodes = (
"648 -398 LINE",
"701 -98 LINE",
"558 -98 LINE",
"588 71 LINE",
"653 15 OFFCURVE",
"761 -18 OFFCURVE",
"851 -18 CURVE SMOOTH",
"1202 -18 OFFCURVE",
"1441 253 OFFCURVE",
"1441 653 CURVE SMOOTH",
"1441 950 OFFCURVE",
"1264 1090 OFFCURVE",
"1049 1090 CURVE SMOOTH",
"940 1090 OFFCURVE",
"830 1054 OFFCURVE",
"733 963 CURVE",
"755 1091 LINE",
"130 1032 LINE",
"82 759 LINE",
"225 759 LINE",
"74 -98 LINE",
"-69 -98 LINE",
"-122 -398 LINE"
);
},
{
closed = 1;
nodes = (
"707 281 OFFCURVE",
"661 293 OFFCURVE",
"631 315 CURVE",
"691 655 LINE",
"733 750 OFFCURVE",
"798 790 OFFCURVE",
"855 790 CURVE SMOOTH",
"927 790 OFFCURVE",
"966 734 OFFCURVE",
"966 629 CURVE SMOOTH",
"966 418 OFFCURVE",
"884 281 OFFCURVE",
"746 281 CURVE SMOOTH"
);
}
);
width = 1493;
}
);
leftKerningGroup = p;
rightKerningGroup = o;
rightMetricsKey = "=o+5";
unicode = 0070;
userData = {
com.typemytype.robofont.layerData = {
};
};
},
{
glyphname = thorn;
layers = (
{
layerId = "43807A99-8507-4079-8E7C-8F87E5CA03D3";
paths = (
{
closed = 1;
nodes = (
"648 -398 LINE",
"701 -98 LINE",
"558 -98 LINE",
"588 71 LINE",
"653 15 OFFCURVE",
"761 -18 OFFCURVE",
"851 -18 CURVE SMOOTH",
"1202 -18 OFFCURVE",
"1441 253 OFFCURVE",
"1441 653 CURVE SMOOTH",
"1441 950 OFFCURVE",
"1264 1090 OFFCURVE",
"1049 1090 CURVE SMOOTH",
"940 1090 OFFCURVE",
"830 1054 OFFCURVE",
"733 963 CURVE",
"839 1560 LINE",
"213 1503 LINE",
"165 1230 LINE",
"308 1230 LINE",
"74 -98 LINE",
"-69 -98 LINE",
"-122 -398 LINE"
);
},
{
closed = 1;
nodes = (
"707 281 OFFCURVE",
"661 293 OFFCURVE",
"631 315 CURVE",
"691 655 LINE",
"733 750 OFFCURVE",
"798 790 OFFCURVE",
"855 790 CURVE SMOOTH",
"927 790 OFFCURVE",
"966 734 OFFCURVE",
"966 629 CURVE SMOOTH",
"966 418 OFFCURVE",
"884 281 OFFCURVE",
"746 281 CURVE SMOOTH"
);
}
);
width = 1493;
}
);
leftKerningGroup = l;
widthMetricsKey = p;
rightKerningGroup = o;
rightMetricsKey = p;
unicode = 00FE;
},
{
glyphname = q;
layers = (
{
layerId = "43807A99-8507-4079-8E7C-8F87E5CA03D3";
paths = (
{
closed = 1;
nodes = (
"1286 -398 LINE",
"1339 -98 LINE",
"1196 -98 LINE",
"1402 1072 LINE",
"1021 1072 LINE",
"951 1000 LINE",
"871 1057 OFFCURVE",
"740 1090 OFFCURVE",
"642 1090 CURVE SMOOTH",
"291 1090 OFFCURVE",
"52 819 OFFCURVE",
"52 419 CURVE SMOOTH",
"52 122 OFFCURVE",
"229 -18 OFFCURVE",
"444 -18 CURVE SMOOTH",
"551 -18 OFFCURVE",
"658 18 OFFCURVE",
"746 99 CURVE",
"711 -98 LINE",
"568 -98 LINE",
"515 -398 LINE"
);
},
{
closed = 1;
nodes = (
"566 282 OFFCURVE",
"527 338 OFFCURVE",
"527 443 CURVE SMOOTH",
"527 654 OFFCURVE",
"609 791 OFFCURVE",
"747 791 CURVE SMOOTH",
"786 791 OFFCURVE",
"832 779 OFFCURVE",
"862 757 CURVE",
"802 417 LINE",
"760 322 OFFCURVE",
"695 282 OFFCURVE",
"638 282 CURVE SMOOTH"
);
}
);
width = 1451;
}
);
leftKerningGroup = o;
rightKerningGroup = q;
unicode = 0071;
},
{
glyphname = r;
layers = (
{
anchors = (
{
name = bottom;
position = "{365, 0}";
},
{
name = top;
position = "{710, 1072}";
}
);
layerId = "43807A99-8507-4079-8E7C-8F87E5CA03D3";
paths = (
{
closed = 1;
nodes = (
"835 0 LINE",
"888 300 LINE",
"660 300 LINE",
"707 566 LINE",
"745 650 OFFCURVE",
"824 695 OFFCURVE",
"937 695 CURVE SMOOTH",
"985 695 OFFCURVE",
"1030 687 OFFCURVE",
"1075 671 CURVE",
"1150 1095 LINE",
"978 1095 OFFCURVE",
"833 1015 OFFCURVE",
"745 854 CURVE",
"787 1091 LINE",
"162 1032 LINE",
"114 759 LINE",
"257 759 LINE",
"176 300 LINE",
"33 300 LINE",
"-20 0 LINE"
);
}
);
width = 1092;
}
);
leftKerningGroup = n;
rightKerningGroup = r;
unicode = 0072;
userData = {
com.typemytype.robofont.layerData = {
};
};
},
{
glyphname = s;
layers = (
{
anchors = (
{
name = bottom;
position = "{489, 0}";
},
{
name = cedilla;
position = "{523, 0}";
},
{
name = top;
position = "{678, 1072}";
}
);
layerId = "43807A99-8507-4079-8E7C-8F87E5CA03D3";
paths = (
{
closed = 1;
nodes = (
"886 -18 OFFCURVE",
"1095 134 OFFCURVE",
"1095 386 CURVE SMOOTH",
"1095 751 OFFCURVE",
"616 643 OFFCURVE",
"616 801 CURVE SMOOTH",
"616 845 OFFCURVE",
"651 875 OFFCURVE",
"721 875 CURVE SMOOTH",
"790 875 OFFCURVE",
"850 839 OFFCURVE",
"878 728 CURVE",
"1134 728 LINE",
"1195 1072 LINE",
"975 1072 LINE",
"939 1009 LINE",
"852 1067 OFFCURVE",
"744 1091 OFFCURVE",
"614 1091 CURVE SMOOTH",
"316 1091 OFFCURVE",
"99 945 OFFCURVE",
"99 696 CURVE SMOOTH",
"99 340 OFFCURVE",
"569 463 OFFCURVE",
"569 288 CURVE SMOOTH",
"569 238 OFFCURVE",
"534 208 OFFCURVE",
"472 208 CURVE SMOOTH",
"389 208 OFFCURVE",
"317 262 OFFCURVE",
"294 376 CURVE",
"38 376 LINE",
"-28 0 LINE",
"192 0 LINE",
"236 71 LINE",
"327 13 OFFCURVE",
"454 -18 OFFCURVE",
"590 -18 CURVE SMOOTH"
);
}
);
width = 1173;
}
);
leftKerningGroup = s;
rightKerningGroup = s;
unicode = 0073;
userData = {
com.typemytype.robofont.layerData = {
};
};
},
{
glyphname = germandbls;
layers = (
{
layerId = "43807A99-8507-4079-8E7C-8F87E5CA03D3";
paths = (
{
closed = 1;
nodes = (
"662 0 LINE",
"715 300 LINE",
"627 300 LINE",
"761 1061 LINE SMOOTH",
"785 1200 OFFCURVE",
"858 1274 OFFCURVE",
"977 1274 CURVE SMOOTH",
"1064 1274 OFFCURVE",
"1115 1228 OFFCURVE",
"1115 1147 CURVE SMOOTH",
"1115 1031 OFFCURVE",
"1032 953 OFFCURVE",
"907 953 CURVE SMOOTH",
"860 953 LINE",
"807 653 LINE",
"910 653 LINE SMOOTH",
"1034 653 OFFCURVE",
"1096 605 OFFCURVE",
"1096 510 CURVE SMOOTH",
"1096 382 OFFCURVE",
"1015 300 OFFCURVE",
"887 300 CURVE SMOOTH",
"855 300 LINE",
"802 0 LINE",
"887 0 LINE SMOOTH",
"1314 0 OFFCURVE",
"1568 196 OFFCURVE",
"1568 525 CURVE SMOOTH",
"1568 766 OFFCURVE",
"1368 910 OFFCURVE",
"1037 908 CURVE",
"1049 831 LINE",
"1300 831 OFFCURVE",
"1465 983 OFFCURVE",
"1465 1214 CURVE SMOOTH",
"1465 1428 OFFCURVE",
"1284 1558 OFFCURVE",
"984 1558 CURVE SMOOTH",
"596 1558 OFFCURVE",
"328 1346 OFFCURVE",
"264 985 CURVE SMOOTH",
"145 310 LINE",
"2 310 LINE",
"-53 0 LINE"
);
}
);
width = 1625;
}
);
leftKerningGroup = l;
rightKerningGroup = o;
unicode = 00DF;
},
{
glyphname = t;
layers = (
{
anchors = (
{
name = bottom;
position = "{437, 0}";
},
{
name = cedilla;
position = "{449, 0}";
},
{
name = center;
position = "{424, 576}";
},
{
name = top;
position = "{560, 1345}";
},
{
name = topright;
position = "{975, 1769}";
}
);
layerId = "43807A99-8507-4079-8E7C-8F87E5CA03D3";
paths = (
{
closed = 1;
nodes = (
"662 -18 OFFCURVE",
"738 -8 OFFCURVE",
"817 11 CURVE",
"867 297 LINE",
"842 309 LINE",
"812 299 OFFCURVE",
"779 288 OFFCURVE",
"730 288 CURVE SMOOTH",
"648 288 OFFCURVE",
"624 335 OFFCURVE",
"639 418 CURVE SMOOTH",
"701 772 LINE",
"941 772 LINE",
"994 1072 LINE",
"754 1072 LINE",
"813 1406 LINE",
"310 1301 LINE",
"268 1061 LINE",
"102 1045 LINE",
"54 772 LINE",
"217 772 LINE",
"156 425 LINE SMOOTH",
"104 130 OFFCURVE",
"247 -18 OFFCURVE",
"565 -18 CURVE SMOOTH"
);
}
);
width = 947;
}
);
leftKerningGroup = u;
rightKerningGroup = t;
unicode = 0074;
userData = {
com.typemytype.robofont.layerData = {
};
};
},
{
glyphname = u;
layers = (
{
anchors = (
{
name = bottom;
position = "{673, 0}";
},
{
name = ogonek;
position = "{1299, 0}";
},
{
name = top;
position = "{862, 1072}";
}
);
layerId = "43807A99-8507-4079-8E7C-8F87E5CA03D3";
paths = (
{
closed = 1;
nodes = (
"608 -19 OFFCURVE",
"744 31 OFFCURVE",
"844 133 CURVE",
"890 0 LINE",
"1399 0 LINE",
"1452 300 LINE",
"1314 300 LINE",
"1453 1091 LINE",
"871 1032 LINE",
"823 759 LINE",
"911 759 LINE",
"851 417 LINE",
"815 328 OFFCURVE",
"754 281 OFFCURVE",
"699 281 CURVE SMOOTH",
"651 281 OFFCURVE",
"625 317 OFFCURVE",
"639 396 CURVE SMOOTH",
"761 1091 LINE",
"129 1032 LINE",
"81 759 LINE",
"219 759 LINE",
"153 383 LINE SMOOTH",
"106 117 OFFCURVE",
"212 -19 OFFCURVE",
"460 -19 CURVE SMOOTH"
);
}
);
width = 1541;
}
);
leftKerningGroup = u;
rightKerningGroup = u;
unicode = 0075;
userData = {
com.typemytype.robofont.layerData = {
};
};
},
{
glyphname = uhorn;
layers = (
{
anchors = (
{
name = bottom;
position = "{673, 0}";
},
{
name = ogonek;
position = "{1224, 0}";
},
{
name = top;
position = "{862, 1072}";
}
);
layerId = "43807A99-8507-4079-8E7C-8F87E5CA03D3";
paths = (
{
closed = 1;
nodes = (
"608 -19 OFFCURVE",
"744 31 OFFCURVE",
"844 133 CURVE",
"890 0 LINE",
"1399 0 LINE",
"1452 300 LINE",
"1314 300 LINE",
"1413 863 LINE",
"1539 924 OFFCURVE",
"1615 1028 OFFCURVE",
"1642 1177 CURVE SMOOTH",
"1661 1286 LINE",
"1321 1286 LINE",
"1303 1184 LINE SMOOTH",
"1288 1101 OFFCURVE",
"1240 1069 OFFCURVE",
"1171 1062 CURVE SMOOTH",
"871 1032 LINE",
"823 759 LINE",
"911 759 LINE",
"851 417 LINE",
"815 328 OFFCURVE",
"754 281 OFFCURVE",
"699 281 CURVE SMOOTH",
"651 281 OFFCURVE",
"625 317 OFFCURVE",
"639 396 CURVE SMOOTH",
"761 1091 LINE",
"129 1032 LINE",
"81 759 LINE",
"219 759 LINE",
"153 383 LINE SMOOTH",
"106 117 OFFCURVE",
"212 -19 OFFCURVE",
"460 -19 CURVE SMOOTH"
);
}
);
width = 1541;
}
);
leftKerningGroup = u;
leftMetricsKey = u;
rightKerningGroup = uhorn;
unicode = 01B0;
},
{
glyphname = v;
layers = (
{
layerId = "43807A99-8507-4079-8E7C-8F87E5CA03D3";
paths = (
{
closed = 1;
nodes = (
"882 0 LINE",
"1330 772 LINE",
"1425 772 LINE",
"1478 1072 LINE",
"964 1072 LINE",
"911 772 LINE",
"1030 772 LINE",
"678 153 LINE",
"780 153 LINE",
"667 772 LINE",
"786 772 LINE",
"839 1072 LINE",
"123 1072 LINE",
"70 772 LINE",
"165 772 LINE",
"336 0 LINE"
);
}
);
width = 1413;
}
);
leftKerningGroup = v;
rightKerningGroup = v;
unicode = 0076;
userData = {
com.typemytype.robofont.layerData = {
};
};
},
{
glyphname = w;
layers = (
{
anchors = (
{
name = bottom;
position = "{963, 0}";
},
{
name = top;
position = "{1250, 1072}";
}
);
layerId = "43807A99-8507-4079-8E7C-8F87E5CA03D3";
paths = (
{
closed = 1;
nodes = (
"819 0 LINE",
"1137 615 LINE",
"996 615 LINE",
"1093 0 LINE",
"1615 0 LINE",
"2020 772 LINE",
"2115 772 LINE",
"2168 1072 LINE",
"1655 1072 LINE",
"1602 772 LINE",
"1722 772 LINE",
"1411 153 LINE",
"1509 153 LINE",
"1404 1072 LINE",
"1084 1072 LINE",
"624 153 LINE",
"752 153 LINE",
"681 772 LINE",
"801 772 LINE",
"854 1072 LINE",
"136 1072 LINE",
"83 772 LINE",
"178 772 LINE",
"311 0 LINE"
);
}
);
width = 2116;
}
);
leftKerningGroup = v;
rightKerningGroup = v;
unicode = 0077;
},
{
glyphname = x;
layers = (
{
layerId = "43807A99-8507-4079-8E7C-8F87E5CA03D3";
paths = (
{
closed = 1;
nodes = (
"284 0 LINE",
"503 340 LINE",
"879 445 LINE",
"1121 772 LINE",
"1251 772 LINE",
"1304 1072 LINE",
"991 1072 LINE",
"767 732 LINE",
"385 626 LINE",
"148 300 LINE",
"3 300 LINE",
"-50 0 LINE"
);
},
{
closed = 1;
nodes = (
"1132 0 LINE",
"1185 300 LINE",
"1050 300 LINE",
"692 1072 LINE",
"164 1072 LINE",
"111 772 LINE",
"241 772 LINE",
"594 0 LINE"
);
}
);
width = 1276;
}
);
leftKerningGroup = x;
rightKerningGroup = x;
unicode = 0078;
},
{
glyphname = y;
layers = (
{
anchors = (
{
name = bottom;
position = "{1153, 44}";
},
{
name = top;
position = "{822, 1072}";
}
);
layerId = "43807A99-8507-4079-8E7C-8F87E5CA03D3";
paths = (
{
closed = 1;
nodes = (
"816 -398 LINE",
"869 -98 LINE",
"724 -98 LINE",
"1310 772 LINE",
"1405 772 LINE",
"1458 1072 LINE",
"945 1072 LINE",
"892 772 LINE",
"1012 772 LINE",
"426 -98 LINE",
"185 -98 LINE",
"132 -398 LINE"
);
},
{
closed = 1;
nodes = (
"822 304 LINE",
"647 772 LINE",
"767 772 LINE",
"820 1072 LINE",
"103 1072 LINE",
"50 772 LINE",
"145 772 LINE",
"495 -66 LINE"
);
}
);
width = 1413;
}
);
leftKerningGroup = v;
rightKerningGroup = v;
unicode = 0079;
},
{
glyphname = z;
layers = (
{
anchors = (
{
name = bottom;
position = "{538, 0}";
},
{
name = top;
position = "{727, 1072}";
}
);
layerId = "43807A99-8507-4079-8E7C-8F87E5CA03D3";
paths = (
{
closed = 1;
nodes = (
"1087 0 LINE",
"1163 440 LINE",
"945 440 LINE",
"888 235 LINE",
"642 235 LINE",
"1208 812 LINE",
"1254 1072 LINE",
"177 1072 LINE",
"106 672 LINE",
"326 672 LINE",
"376 837 LINE",
"612 837 LINE",
"36 260 LINE",
"-10 0 LINE"
);
}
);
width = 1245;
}
);
rightKerningGroup = z;
unicode = 007A;
},
{
color = 9;
glyphname = a.ss01;
layers = (
{
anchors = (
{
name = bottom;
position = "{668, 0}";
},
{
name = ogonek;
position = "{1331, 0}";
},
{
name = top;
position = "{857, 1072}";
}
);
layerId = "43807A99-8507-4079-8E7C-8F87E5CA03D3";
paths = (
{
closed = 1;
nodes = (
"569 -18 OFFCURVE",
"696 31 OFFCURVE",
"796 135 CURVE",
"842 0 LINE",
"1351 0 LINE",
"1404 300 LINE",
"1266 300 LINE",
"1403 1072 LINE",
"1021 1072 LINE",
"951 1000 LINE",
"871 1057 OFFCURVE",
"740 1090 OFFCURVE",
"642 1090 CURVE SMOOTH",
"291 1090 OFFCURVE",
"52 819 OFFCURVE",
"52 419 CURVE SMOOTH",
"52 122 OFFCURVE",
"229 -18 OFFCURVE",
"444 -18 CURVE SMOOTH"
);
},
{
closed = 1;
nodes = (
"566 282 OFFCURVE",
"527 338 OFFCURVE",
"527 443 CURVE SMOOTH",
"527 654 OFFCURVE",
"609 791 OFFCURVE",
"747 791 CURVE SMOOTH",
"786 791 OFFCURVE",
"832 779 OFFCURVE",
"862 757 CURVE",
"802 417 LINE",
"760 322 OFFCURVE",
"695 282 OFFCURVE",
"638 282 CURVE SMOOTH"
);
}
);
width = 1526;
}
);
leftKerningGroup = o;
leftMetricsKey = "=o+5";
rightKerningGroup = u;
},
{
color = 9;
glyphname = ae.ss01;
layers = (
{
anchors = (
{
name = bottom;
position = "{881, 0}";
},
{
name = top;
position = "{1070, 1072}";
}
);
guideLines = (
{
angle = 90;
position = "{3144, 1225}";
}
);
layerId = "43807A99-8507-4079-8E7C-8F87E5CA03D3";
paths = (
{
closed = 1;
nodes = (
"841 -18 OFFCURVE",
"1003 146 OFFCURVE",
"1108 400 CURVE",
"1155 669 LINE SMOOTH",
"1207 964 OFFCURVE",
"1023 1090 OFFCURVE",
"694 1090 CURVE SMOOTH",
"540 1090 OFFCURVE",
"348 1061 OFFCURVE",
"213 1007 CURVE",
"161 715 LINE",
"186 703 LINE",
"284 758 OFFCURVE",
"416 790 OFFCURVE",
"539 790 CURVE SMOOTH",
"707 790 OFFCURVE",
"768 730 OFFCURVE",
"748 626 CURVE SMOOTH",
"743 600 LINE",
"660 620 OFFCURVE",
"585 630 OFFCURVE",
"495 630 CURVE SMOOTH",
"207 630 OFFCURVE",
"23 489 OFFCURVE",
"23 274 CURVE SMOOTH",
"23 84 OFFCURVE",
"209 -18 OFFCURVE",
"483 -18 CURVE SMOOTH"
);
},
{
closed = 1;
nodes = (
"522 228 OFFCURVE",
"482 263 OFFCURVE",
"482 328 CURVE SMOOTH",
"482 405 OFFCURVE",
"538 459 OFFCURVE",
"622 459 CURVE SMOOTH",
"649 459 OFFCURVE",
"684 455 OFFCURVE",
"716 444 CURVE",
"688 285 LINE",
"666 250 OFFCURVE",
"625 228 OFFCURVE",
"579 228 CURVE SMOOTH"
);
},
{
closed = 1;
nodes = (
"1448 -18 OFFCURVE",
"1652 22 OFFCURVE",
"1749 97 CURVE",
"1800 384 LINE",
"1775 396 LINE",
"1676 321 OFFCURVE",
"1560 282 OFFCURVE",
"1455 282 CURVE SMOOTH",
"1262 282 OFFCURVE",
"1175 368 OFFCURVE",
"1201 527 CURVE",
"1218 647 LINE",
"1240 761 OFFCURVE",
"1300 844 OFFCURVE",
"1403 844 CURVE SMOOTH",
"1461 844 OFFCURVE",
"1506 812 OFFCURVE",
"1506 742 CURVE SMOOTH",
"1506 694 OFFCURVE",
"1474 653 OFFCURVE",
"1395 646 CURVE SMOOTH",
"1190 627 LINE",
"1162 433 LINE",
"1566 471 LINE SMOOTH",
"1820 495 OFFCURVE",
"1874 630 OFFCURVE",
"1874 746 CURVE SMOOTH",
"1874 931 OFFCURVE",
"1711 1090 OFFCURVE",
"1418 1090 CURVE SMOOTH",
"1122 1090 OFFCURVE",
"869 880 OFFCURVE",
"810 546 CURVE SMOOTH",
"750 203 OFFCURVE",
"959 -18 OFFCURVE",
"1305 -18 CURVE SMOOTH"
);
}
);
width = 1909;
}
);
leftKerningGroup = a_rom;
leftMetricsKey = a;
rightKerningGroup = e;
rightMetricsKey = e.ss01;
},
{
color = 9;
glyphname = e.ss01;
layers = (
{
anchors = (
{
name = bottom;
position = "{545, 0}";
},
{
name = ogonek;
position = "{769, 0}";
},
{
name = top;
position = "{734, 1072}";
}
);
layerId = "43807A99-8507-4079-8E7C-8F87E5CA03D3";
paths = (
{
closed = 1;
nodes = (
"772 -18 OFFCURVE",
"974 22 OFFCURVE",
"1073 97 CURVE",
"1124 384 LINE",
"1099 396 LINE",
"1000 321 OFFCURVE",
"884 282 OFFCURVE",
"779 282 CURVE SMOOTH",
"586 282 OFFCURVE",
"499 368 OFFCURVE",
"525 527 CURVE",
"542 647 LINE",
"564 761 OFFCURVE",
"624 844 OFFCURVE",
"727 844 CURVE SMOOTH",
"785 844 OFFCURVE",
"830 812 OFFCURVE",
"830 742 CURVE SMOOTH",
"830 694 OFFCURVE",
"798 653 OFFCURVE",
"719 646 CURVE SMOOTH",
"514 627 LINE",
"486 433 LINE",
"890 471 LINE SMOOTH",
"1144 495 OFFCURVE",
"1198 630 OFFCURVE",
"1198 746 CURVE SMOOTH",
"1198 931 OFFCURVE",
"1035 1090 OFFCURVE",
"736 1090 CURVE SMOOTH",
"328 1090 OFFCURVE",
"49 838 OFFCURVE",
"49 446 CURVE SMOOTH",
"49 158 OFFCURVE",
"252 -18 OFFCURVE",
"619 -18 CURVE SMOOTH"
);
}
);
width = 1233;
}
);
leftKerningGroup = o;
leftMetricsKey = o;
rightKerningGroup = e;
userData = {
com.typemytype.robofont.layerData = {
};
};
},
{
color = 9;
glyphname = eogonek.ss01;
layers = (
{
layerId = "43807A99-8507-4079-8E7C-8F87E5CA03D3";
paths = (
{
closed = 1;
nodes = (
"636 -18 OFFCURVE",
"653 -17 OFFCURVE",
"672 -16 CURVE",
"1073 97 LINE",
"1124 384 LINE",
"1099 396 LINE",
"1000 321 OFFCURVE",
"884 282 OFFCURVE",
"779 282 CURVE SMOOTH",
"586 282 OFFCURVE",
"499 368 OFFCURVE",
"525 527 CURVE",
"542 647 LINE",
"564 761 OFFCURVE",
"624 844 OFFCURVE",
"727 844 CURVE SMOOTH",
"785 844 OFFCURVE",
"830 812 OFFCURVE",
"830 742 CURVE SMOOTH",
"830 694 OFFCURVE",
"798 653 OFFCURVE",
"719 646 CURVE SMOOTH",
"514 627 LINE",
"486 433 LINE",
"890 471 LINE SMOOTH",
"1144 495 OFFCURVE",
"1198 630 OFFCURVE",
"1198 746 CURVE SMOOTH",
"1198 931 OFFCURVE",
"1035 1090 OFFCURVE",
"736 1090 CURVE SMOOTH",
"328 1090 OFFCURVE",
"49 838 OFFCURVE",
"49 446 CURVE SMOOTH",
"49 158 OFFCURVE",
"252 -18 OFFCURVE",
"619 -18 CURVE SMOOTH"
);
},
{
closed = 1;
nodes = (
"776 -468 OFFCURVE",
"820 -464 OFFCURVE",
"876 -451 CURVE",
"911 -255 LINE",
"879 -262 OFFCURVE",
"847 -265 OFFCURVE",
"816 -265 CURVE SMOOTH",
"740 -265 OFFCURVE",
"700 -231 OFFCURVE",
"700 -174 CURVE SMOOTH",
"700 -77 OFFCURVE",
"795 -5 OFFCURVE",
"1073 97 CURVE",
"656 0 LINE",
"535 -49 OFFCURVE",
"453 -148 OFFCURVE",
"453 -259 CURVE SMOOTH",
"453 -401 OFFCURVE",
"572 -468 OFFCURVE",
"732 -468 CURVE SMOOTH"
);
}
);
width = 1236;
}
);
leftKerningGroup = o;
leftMetricsKey = e;
widthMetricsKey = e;
rightKerningGroup = e;
userData = {
com.typemytype.robofont.layerData = {
};
};
},
{
color = 8;
glyphname = g.ss01;
layers = (
{
anchors = (
{
name = top;
position = "{745, 1072}";
}
);
layerId = "43807A99-8507-4079-8E7C-8F87E5CA03D3";
paths = (
{
closed = 1;
nodes = (
"910 781 LINE",
"1395 781 LINE",
"1449 1091 LINE",
"839 1032 LINE"
);
},
{
closed = 1;
nodes = (
"570 275 LINE SMOOTH",
"526 275 OFFCURVE",
"504 285 OFFCURVE",
"504 305 CURVE SMOOTH",
"504 333 OFFCURVE",
"532 346 OFFCURVE",
"593 346 CURVE SMOOTH",
"1001 346 OFFCURVE",
"1266 508 OFFCURVE",
"1266 757 CURVE SMOOTH",
"1266 965 OFFCURVE",
"1055 1090 OFFCURVE",
"732 1090 CURVE SMOOTH",
"334 1090 OFFCURVE",
"76 926 OFFCURVE",
"76 674 CURVE SMOOTH",
"76 503 OFFCURVE",
"218 389 OFFCURVE",
"469 357 CURVE",
"558 408 LINE",
"254 412 OFFCURVE",
"60 304 OFFCURVE",
"60 131 CURVE SMOOTH",
"60 6 OFFCURVE",
"175 -66 OFFCURVE",
"374 -66 CURVE SMOOTH",
"671 -66 LINE SMOOTH",
"722 -66 OFFCURVE",
"744 -79 OFFCURVE",
"744 -110 CURVE SMOOTH",
"744 -183 OFFCURVE",
"648 -226 OFFCURVE",
"483 -226 CURVE SMOOTH",
"330 -226 OFFCURVE",
"247 -187 OFFCURVE",
"247 -115 CURVE SMOOTH",
"247 -76 OFFCURVE",
"271 -31 OFFCURVE",
"309 0 CURVE",
"150 19 LINE",
"20 -2 OFFCURVE",
"-66 -80 OFFCURVE",
"-66 -177 CURVE SMOOTH",
"-66 -332 OFFCURVE",
"132 -418 OFFCURVE",
"489 -418 CURVE SMOOTH",
"948 -418 OFFCURVE",
"1231 -249 OFFCURVE",
"1231 26 CURVE SMOOTH",
"1231 192 OFFCURVE",
"1110 275 OFFCURVE",
"867 275 CURVE SMOOTH"
);
},
{
closed = 1;
nodes = (
"788 878 OFFCURVE",
"835 831 OFFCURVE",
"835 755 CURVE SMOOTH",
"835 635 OFFCURVE",
"756 558 OFFCURVE",
"656 558 CURVE SMOOTH",
"584 558 OFFCURVE",
"538 615 OFFCURVE",
"538 680 CURVE SMOOTH",
"538 800 OFFCURVE",
"615 878 OFFCURVE",
"713 878 CURVE SMOOTH"
);
}
);
width = 1367;
}
);
leftKerningGroup = g_ss;
rightKerningGroup = g_ss;
},
{
color = 9;
glyphname = oe.ss01;
layers = (
{
anchors = (
{
name = bottom;
position = "{947, 0}";
},
{
name = top;
position = "{1136, 1072}";
}
);
layerId = "43807A99-8507-4079-8E7C-8F87E5CA03D3";
paths = (
{
closed = 1;
nodes = (
"919 -18 OFFCURVE",
"1199 245 OFFCURVE",
"1199 631 CURVE SMOOTH",
"1199 917 OFFCURVE",
"1064 1090 OFFCURVE",
"739 1090 CURVE SMOOTH",
"327 1090 OFFCURVE",
"48 828 OFFCURVE",
"48 441 CURVE SMOOTH",
"48 155 OFFCURVE",
"250 -18 OFFCURVE",
"583 -18 CURVE SMOOTH"
);
},
{
closed = 1;
nodes = (
"551 273 OFFCURVE",
"516 327 OFFCURVE",
"516 429 CURVE SMOOTH",
"516 631 OFFCURVE",
"602 799 OFFCURVE",
"705 799 CURVE SMOOTH",
"771 799 OFFCURVE",
"806 745 OFFCURVE",
"806 643 CURVE SMOOTH",
"806 441 OFFCURVE",
"720 273 OFFCURVE",
"617 273 CURVE SMOOTH"
);
},
{
closed = 1;
nodes = (
"1515 -18 OFFCURVE",
"1717 22 OFFCURVE",
"1816 97 CURVE",
"1867 384 LINE",
"1842 396 LINE",
"1743 321 OFFCURVE",
"1627 282 OFFCURVE",
"1522 282 CURVE SMOOTH",
"1329 282 OFFCURVE",
"1242 368 OFFCURVE",
"1268 527 CURVE",
"1285 647 LINE",
"1307 761 OFFCURVE",
"1367 844 OFFCURVE",
"1470 844 CURVE SMOOTH",
"1528 844 OFFCURVE",
"1573 812 OFFCURVE",
"1573 742 CURVE SMOOTH",
"1573 694 OFFCURVE",
"1541 653 OFFCURVE",
"1462 646 CURVE SMOOTH",
"1257 627 LINE",
"1229 433 LINE",
"1633 471 LINE SMOOTH",
"1887 495 OFFCURVE",
"1941 630 OFFCURVE",
"1941 746 CURVE SMOOTH",
"1941 931 OFFCURVE",
"1778 1090 OFFCURVE",
"1489 1090 CURVE SMOOTH",
"1144 1090 OFFCURVE",
"865 838 OFFCURVE",
"865 446 CURVE SMOOTH",
"865 158 OFFCURVE",
"1048 -18 OFFCURVE",
"1382 -18 CURVE SMOOTH"
);
}
);
width = 1976;
}
);
leftKerningGroup = o;
leftMetricsKey = o;
rightKerningGroup = e;
rightMetricsKey = e.ss01;
},
{
glyphname = fi;
layers = (
{
anchors = (
{
name = caret_1;
position = "{924.5, 0}";
}
);
layerId = "43807A99-8507-4079-8E7C-8F87E5CA03D3";
paths = (
{
closed = 1;
nodes = (
"776 0 LINE",
"829 300 LINE",
"660 300 LINE",
"743 772 LINE",
"1221 772 LINE",
"1138 300 LINE",
"969 300 LINE",
"916 0 LINE",
"1722 0 LINE",
"1775 300 LINE",
"1622 300 LINE",
"1758 1072 LINE",
"796 1072 LINE",
"807 1135 LINE SMOOTH",
"820 1208 OFFCURVE",
"864 1252 OFFCURVE",
"952 1252 CURVE SMOOTH",
"1006 1252 OFFCURVE",
"1035 1241 OFFCURVE",
"1062 1230 CURVE",
"1091 1242 LINE",
"1141 1528 LINE",
"1069 1548 OFFCURVE",
"987 1558 OFFCURVE",
"885 1558 CURVE SMOOTH",
"577 1558 OFFCURVE",
"373 1414 OFFCURVE",
"325 1145 CURVE SMOOTH",
"310 1061 LINE",
"144 1045 LINE",
"96 772 LINE",
"259 772 LINE",
"176 300 LINE",
"23 300 LINE",
"-30 0 LINE"
);
},
{
closed = 1;
nodes = (
"1737 1158 OFFCURVE",
"1861 1251 OFFCURVE",
"1861 1407 CURVE SMOOTH",
"1861 1533 OFFCURVE",
"1764 1613 OFFCURVE",
"1593 1613 CURVE SMOOTH",
"1406 1613 OFFCURVE",
"1283 1524 OFFCURVE",
"1283 1369 CURVE SMOOTH",
"1283 1244 OFFCURVE",
"1386 1158 OFFCURVE",
"1551 1158 CURVE SMOOTH"
);
}
);
width = 1849;
}
);
leftKerningGroup = n;
leftMetricsKey = f;
rightKerningGroup = u;
rightMetricsKey = i;
unicode = FB01;
},
{
glyphname = fl;
layers = (
{
anchors = (
{
name = caret_1;
position = "{908, 0}";
}
);
layerId = "43807A99-8507-4079-8E7C-8F87E5CA03D3";
paths = (
{
closed = 1;
nodes = (
"760 0 LINE",
"813 300 LINE",
"660 300 LINE",
"743 772 LINE",
"983 772 LINE",
"1036 1072 LINE",
"796 1072 LINE",
"807 1135 LINE SMOOTH",
"820 1208 OFFCURVE",
"864 1252 OFFCURVE",
"952 1252 CURVE SMOOTH",
"1006 1252 OFFCURVE",
"1035 1241 OFFCURVE",
"1062 1230 CURVE",
"1091 1242 LINE",
"1141 1528 LINE",
"1069 1548 OFFCURVE",
"987 1558 OFFCURVE",
"885 1558 CURVE SMOOTH",
"577 1558 OFFCURVE",
"373 1414 OFFCURVE",
"325 1145 CURVE SMOOTH",
"310 1061 LINE",
"144 1045 LINE",
"96 772 LINE",
"259 772 LINE",
"176 300 LINE",
"23 300 LINE",
"-30 0 LINE"
);
},
{
closed = 1;
nodes = (
"1689 0 LINE",
"1742 300 LINE",
"1589 300 LINE",
"1811 1560 LINE",
"1223 1501 LINE",
"1174 1222 LINE",
"1267 1222 LINE",
"1105 300 LINE",
"953 300 LINE",
"900 0 LINE"
);
}
);
width = 1816;
}
);
leftKerningGroup = n;
leftMetricsKey = f;
rightKerningGroup = l;
rightMetricsKey = l;
unicode = FB02;
},
{
glyphname = ordfeminine;
layers = (
{
layerId = "43807A99-8507-4079-8E7C-8F87E5CA03D3";
paths = (
{
closed = 1;
nodes = (
"497 807 OFFCURVE",
"599 855 OFFCURVE",
"649 935 CURVE",
"667 820 LINE",
"1090 820 LINE",
"1132 1060 LINE",
"1035 1060 LINE",
"1076 1293 LINE SMOOTH",
"1121 1548 OFFCURVE",
"943 1623 OFFCURVE",
"684 1623 CURVE SMOOTH",
"542 1623 OFFCURVE",
"400 1601 OFFCURVE",
"292 1562 CURVE",
"253 1337 LINE",
"278 1325 LINE",
"349 1366 OFFCURVE",
"451 1392 OFFCURVE",
"544 1392 CURVE SMOOTH",
"653 1392 OFFCURVE",
"712 1354 OFFCURVE",
"700 1287 CURVE SMOOTH",
"695 1258 LINE",
"638 1276 OFFCURVE",
"581 1284 OFFCURVE",
"511 1284 CURVE SMOOTH",
"314 1284 OFFCURVE",
"148 1191 OFFCURVE",
"148 1012 CURVE SMOOTH",
"148 888 OFFCURVE",
"248 807 OFFCURVE",
"389 807 CURVE SMOOTH"
);
},
{
closed = 1;
nodes = (
"546 1005 OFFCURVE",
"517 1028 OFFCURVE",
"517 1065 CURVE SMOOTH",
"517 1116 OFFCURVE",
"553 1148 OFFCURVE",
"608 1148 CURVE SMOOTH",
"633 1148 OFFCURVE",
"654 1144 OFFCURVE",
"672 1136 CURVE",
"657 1050 LINE",
"638 1015 OFFCURVE",
"613 1005 OFFCURVE",
"581 1005 CURVE SMOOTH"
);
}
);
width = 1080;
}
);
leftKerningGroup = ord_a;
rightKerningGroup = ord_a;
rightMetricsKey = "=a*0.7";
unicode = 00AA;
},
{
glyphname = ordmasculine;
layers = (
{
layerId = "43807A99-8507-4079-8E7C-8F87E5CA03D3";
paths = (
{
closed = 1;
nodes = (
"866 806 OFFCURVE",
"1075 1000 OFFCURVE",
"1075 1285 CURVE SMOOTH",
"1075 1495 OFFCURVE",
"925 1623 OFFCURVE",
"672 1623 CURVE SMOOTH",
"360 1623 OFFCURVE",
"153 1430 OFFCURVE",
"153 1144 CURVE SMOOTH",
"153 934 OFFCURVE",
"301 806 OFFCURVE",
"554 806 CURVE SMOOTH"
);
},
{
closed = 1;
nodes = (
"529 1017 OFFCURVE",
"501 1056 OFFCURVE",
"501 1136 CURVE SMOOTH",
"501 1285 OFFCURVE",
"567 1412 OFFCURVE",
"645 1412 CURVE SMOOTH",
"696 1412 OFFCURVE",
"723 1373 OFFCURVE",
"723 1293 CURVE SMOOTH",
"723 1144 OFFCURVE",
"657 1017 OFFCURVE",
"579 1017 CURVE SMOOTH"
);
}
);
width = 988;
}
);
leftKerningGroup = ord_o;
leftMetricsKey = "=o*0.7";
rightKerningGroup = ord_o;
rightMetricsKey = "=o*0.7";
unicode = 00BA;
},
{
color = 9;
glyphname = ordfeminine.ss01;
layers = (
{
layerId = "43807A99-8507-4079-8E7C-8F87E5CA03D3";
paths = (
{
closed = 1;
nodes = (
"543 806 OFFCURVE",
"637 842 OFFCURVE",
"711 919 CURVE",
"745 819 LINE",
"1126 819 LINE",
"1165 1040 LINE",
"1063 1040 LINE",
"1164 1610 LINE",
"877 1610 LINE",
"825 1557 LINE",
"766 1599 OFFCURVE",
"669 1623 OFFCURVE",
"597 1623 CURVE SMOOTH",
"332 1623 OFFCURVE",
"156 1423 OFFCURVE",
"156 1128 CURVE SMOOTH",
"156 909 OFFCURVE",
"287 806 OFFCURVE",
"451 806 CURVE SMOOTH"
);
},
{
closed = 1;
nodes = (
"541 1027 OFFCURVE",
"512 1068 OFFCURVE",
"512 1146 CURVE SMOOTH",
"512 1301 OFFCURVE",
"573 1402 OFFCURVE",
"675 1402 CURVE SMOOTH",
"703 1402 OFFCURVE",
"737 1394 OFFCURVE",
"759 1377 CURVE",
"715 1127 LINE",
"684 1057 OFFCURVE",
"636 1027 OFFCURVE",
"594 1027 CURVE SMOOTH"
);
}
);
width = 1132;
}
);
leftKerningGroup = ord_o;
leftMetricsKey = "=a.ss01*0.7";
rightKerningGroup = ord_a;
rightMetricsKey = "=a.ss01*0.7";
},
{
glyphname = Delta;
layers = (
{
layerId = "43807A99-8507-4079-8E7C-8F87E5CA03D3";
paths = (
{
closed = 1;
nodes = (
"1558 0 LINE",
"1619 345 LINE",
"1405 1592 LINE",
"738 1592 LINE",
"85 345 LINE",
"24 0 LINE"
);
},
{
closed = 1;
nodes = (
"898 1238 LINE",
"1036 345 LINE",
"446 345 LINE"
);
}
);
width = 1772;
}
);
rightMetricsKey = "=|";
unicode = 0394;
},
{
glyphname = Omega;
layers = (
{
layerId = "43807A99-8507-4079-8E7C-8F87E5CA03D3";
paths = (
{
closed = 1;
nodes = (
"710 0 LINE",
"769 335 LINE",
"705 439 OFFCURVE",
"680 557 OFFCURVE",
"680 693 CURVE SMOOTH",
"680 931 OFFCURVE",
"784 1276 OFFCURVE",
"1004 1276 CURVE SMOOTH",
"1119 1276 OFFCURVE",
"1181 1185 OFFCURVE",
"1181 1012 CURVE SMOOTH",
"1181 779 OFFCURVE",
"1081 510 OFFCURVE",
"909 335 CURVE",
"850 0 LINE",
"1580 0 LINE",
"1641 345 LINE",
"1271 345 LINE",
"1227 285 LINE",
"1539 440 OFFCURVE",
"1747 695 OFFCURVE",
"1747 992 CURVE SMOOTH",
"1747 1371 OFFCURVE",
"1484 1621 OFFCURVE",
"1035 1621 CURVE SMOOTH",
"528 1621 OFFCURVE",
"131 1279 OFFCURVE",
"131 814 CURVE SMOOTH",
"131 589 OFFCURVE",
"242 401 OFFCURVE",
"438 285 CURVE",
"411 345 LINE",
"41 345 LINE",
"-20 0 LINE"
);
}
);
width = 1746;
}
);
leftMetricsKey = O;
rightMetricsKey = O;
unicode = 03A9;
},
{
glyphname = mu;
layers = (
{
layerId = "43807A99-8507-4079-8E7C-8F87E5CA03D3";
paths = (
{
closed = 1;
nodes = (
"504 -398 LINE",
"599 142 LINE",
"598 32 OFFCURVE",
"629 -19 OFFCURVE",
"690 -19 CURVE SMOOTH",
"741 -19 OFFCURVE",
"793 32 OFFCURVE",
"828 138 CURVE",
"877 0 LINE",
"1404 0 LINE",
"1457 300 LINE",
"1319 300 LINE",
"1458 1091 LINE",
"876 1032 LINE",
"828 759 LINE",
"916 759 LINE",
"866 476 LINE SMOOTH",
"846 363 OFFCURVE",
"790 321 OFFCURVE",
"735 321 CURVE SMOOTH",
"680 321 OFFCURVE",
"638 363 OFFCURVE",
"658 476 CURVE SMOOTH",
"766 1091 LINE",
"134 1032 LINE",
"86 759 LINE",
"224 759 LINE",
"20 -398 LINE"
);
}
);
width = 1546;
}
);
unicode = 03BC;
},
{
glyphname = pi;
layers = (
{
layerId = "43807A99-8507-4079-8E7C-8F87E5CA03D3";
paths = (
{
closed = 1;
nodes = (
"695 0 LINE",
"748 300 LINE",
"660 300 LINE",
"765 898 LINE",
"281 898 LINE",
"176 300 LINE",
"33 300 LINE",
"-20 0 LINE"
);
},
{
closed = 1;
nodes = (
"1502 296 LINE",
"1382 296 OFFCURVE",
"1350 331 OFFCURVE",
"1370 444 CURVE SMOOTH",
"1451 899 LINE",
"967 899 LINE",
"895 495 LINE SMOOTH",
"829 124 OFFCURVE",
"982 -14 OFFCURVE",
"1448 -14 CURVE"
);
},
{
closed = 1;
nodes = (
"1566 772 LINE",
"1619 1072 LINE",
"592 1072 LINE",
"162 1032 LINE",
"116 772 LINE"
);
}
);
width = 1605;
},
{
associatedMasterId = "43807A99-8507-4079-8E7C-8F87E5CA03D3";
background = {
paths = (
{
closed = 1;
nodes = (
"586 -9 OFFCURVE",
"622 10 OFFCURVE",
"622 53 CURVE SMOOTH",
"622 86 OFFCURVE",
"604 104 OFFCURVE",
"562 107 CURVE SMOOTH",
"534 109 LINE SMOOTH",
"501 111 OFFCURVE",
"482 132 OFFCURVE",
"482 169 CURVE SMOOTH",
"482 437 LINE",
"326 437 LINE",
"326 181 LINE SMOOTH",
"326 71 OFFCURVE",
"382 6 OFFCURVE",
"502 -3 CURVE SMOOTH",
"530 -5 LINE SMOOTH"
);
},
{
closed = 1;
nodes = (
"249 167 OFFCURVE",
"259 294 OFFCURVE",
"259 437 CURVE",
"105 437 LINE",
"105 294 OFFCURVE",
"82 186 OFFCURVE",
"54 83 CURVE SMOOTH",
"28 -13 OFFCURVE",
"177 -43 OFFCURVE",
"207 45 CURVE SMOOTH"
);
},
{
closed = 1;
nodes = (
"529 375 LINE SMOOTH",
"577 375 OFFCURVE",
"599 396 OFFCURVE",
"599 433 CURVE SMOOTH",
"599 470 OFFCURVE",
"577 491 OFFCURVE",
"529 491 CURVE SMOOTH",
"59 491 LINE SMOOTH",
"11 491 OFFCURVE",
"-11 470 OFFCURVE",
"-11 433 CURVE SMOOTH",
"-11 396 OFFCURVE",
"11 375 OFFCURVE",
"59 375 CURVE SMOOTH"
);
}
);
};
layerId = "90268967-F535-4F02-BB70-620A3F8B42F3";
name = "new Layer";
paths = (
{
closed = 1;
nodes = (
"251 167 OFFCURVE",
"259 294 OFFCURVE",
"259 437 CURVE",
"105 437 LINE",
"105 284 OFFCURVE",
"78 159 OFFCURVE",
"33 -1 CURVE",
"193 0 LINE"
);
},
{
closed = 1;
nodes = (
"584 375 LINE",
"584 491 LINE",
"4 491 LINE",
"4 375 LINE"
);
},
{
closed = 1;
nodes = (
"326 211 LINE SMOOTH",
"326 61 OFFCURVE",
"386 4 OFFCURVE",
"553 -6 CURVE SMOOTH",
"601 -9 LINE",
"612 103 LINE",
"560 107 LINE SMOOTH",
"504 111 OFFCURVE",
"482 133 OFFCURVE",
"482 184 CURVE SMOOTH",
"482 437 LINE",
"326 437 LINE"
);
}
);
width = 619;
}
);
unicode = 03C0;
},
{
glyphname = zero;
layers = (
{
layerId = "43807A99-8507-4079-8E7C-8F87E5CA03D3";
paths = (
{
closed = 1;
nodes = (
"1043 -26 OFFCURVE",
"1353 329 OFFCURVE",
"1353 853 CURVE SMOOTH",
"1353 1183 OFFCURVE",
"1144 1372 OFFCURVE",
"832 1372 CURVE SMOOTH",
"392 1372 OFFCURVE",
"82 1018 OFFCURVE",
"82 493 CURVE SMOOTH",
"82 163 OFFCURVE",
"291 -26 OFFCURVE",
"603 -26 CURVE SMOOTH"
);
},
{
closed = 1;
nodes = (
"580 292 OFFCURVE",
"538 358 OFFCURVE",
"538 489 CURVE SMOOTH",
"538 713 OFFCURVE",
"616 1054 OFFCURVE",
"779 1054 CURVE SMOOTH",
"855 1054 OFFCURVE",
"897 988 OFFCURVE",
"897 857 CURVE SMOOTH",
"897 633 OFFCURVE",
"819 292 OFFCURVE",
"656 292 CURVE SMOOTH"
);
}
);
width = 1386;
}
);
leftKerningGroup = zero;
leftMetricsKey = O;
rightKerningGroup = zero;
rightMetricsKey = "=|";
unicode = 0030;
},
{
glyphname = one;
layers = (
{
layerId = "43807A99-8507-4079-8E7C-8F87E5CA03D3";
paths = (
{
closed = 1;
nodes = (
"824 0 LINE",
"880 320 LINE",
"727 320 LINE",
"913 1372 LINE",
"196 1203 LINE",
"144 910 LINE",
"352 910 LINE",
"248 320 LINE",
"60 320 LINE",
"4 0 LINE"
);
}
);
width = 972;
}
);
leftKerningGroup = one;
rightKerningGroup = one;
unicode = 0031;
},
{
glyphname = two;
layers = (
{
layerId = "43807A99-8507-4079-8E7C-8F87E5CA03D3";
paths = (
{
closed = 1;
nodes = (
"1125 0 LINE",
"1181 345 LINE",
"430 345 LINE",
"433 281 LINE",
"949 404 OFFCURVE",
"1255 660 OFFCURVE",
"1255 989 CURVE SMOOTH",
"1255 1231 OFFCURVE",
"1064 1372 OFFCURVE",
"759 1372 CURVE SMOOTH",
"384 1372 OFFCURVE",
"123 1149 OFFCURVE",
"123 827 CURVE SMOOTH",
"123 739 OFFCURVE",
"145 656 OFFCURVE",
"182 606 CURVE",
"458 705 LINE",
"442 750 OFFCURVE",
"434 792 OFFCURVE",
"434 836 CURVE SMOOTH",
"434 985 OFFCURVE",
"510 1085 OFFCURVE",
"637 1085 CURVE SMOOTH",
"721 1085 OFFCURVE",
"771 1032 OFFCURVE",
"771 934 CURVE SMOOTH",
"771 675 OFFCURVE",
"513 444 OFFCURVE",
"52 285 CURVE",
"2 0 LINE"
);
}
);
width = 1264;
}
);
leftKerningGroup = two;
rightKerningGroup = two;
unicode = 0032;
},
{
glyphname = three;
layers = (
{
layerId = "43807A99-8507-4079-8E7C-8F87E5CA03D3";
paths = (
{
closed = 1;
nodes = (
"919 -28 OFFCURVE",
"1201 171 OFFCURVE",
"1201 472 CURVE SMOOTH",
"1201 692 OFFCURVE",
"1018 814 OFFCURVE",
"690 814 CURVE",
"759 730 LINE",
"1260 1077 LINE",
"1308 1352 LINE",
"238 1352 LINE",
"177 1007 LINE",
"1044 1007 LINE",
"843 1067 LINE",
"345 720 LINE",
"318 566 LINE",
"343 554 LINE",
"394 567 OFFCURVE",
"456 574 OFFCURVE",
"510 574 CURVE SMOOTH",
"647 574 OFFCURVE",
"726 528 OFFCURVE",
"726 441 CURVE SMOOTH",
"726 345 OFFCURVE",
"632 284 OFFCURVE",
"477 284 CURVE SMOOTH",
"315 284 OFFCURVE",
"183 324 OFFCURVE",
"97 396 CURVE",
"68 384 LINE",
"15 84 LINE",
"102 20 OFFCURVE",
"300 -28 OFFCURVE",
"482 -28 CURVE SMOOTH"
);
}
);
width = 1284;
}
);
leftKerningGroup = three;
rightKerningGroup = three;
unicode = 0033;
},
{
glyphname = four;
layers = (
{
layerId = "43807A99-8507-4079-8E7C-8F87E5CA03D3";
paths = (
{
closed = 1;
nodes = (
"992 0 LINE",
"1230 1352 LINE",
"795 1352 LINE",
"57 609 LINE",
"4 309 LINE",
"1282 310 LINE",
"1338 630 LINE",
"183 632 LINE",
"204 461 LINE",
"926 1194 LINE",
"733 1133 LINE",
"533 0 LINE"
);
}
);
width = 1345;
}
);
leftKerningGroup = four;
rightKerningGroup = four;
unicode = 0034;
},
{
glyphname = five;
layers = (
{
layerId = "43807A99-8507-4079-8E7C-8F87E5CA03D3";
paths = (
{
closed = 1;
nodes = (
"920 -28 OFFCURVE",
"1201 172 OFFCURVE",
"1202 483 CURVE SMOOTH",
"1203 737 OFFCURVE",
"1017 876 OFFCURVE",
"670 876 CURVE SMOOTH",
"550 876 OFFCURVE",
"422 848 OFFCURVE",
"305 792 CURVE",
"442 645 LINE",
"537 1007 LINE",
"1226 1007 LINE",
"1287 1352 LINE",
"317 1352 LINE",
"110 518 LINE",
"135 506 LINE",
"241 549 OFFCURVE",
"371 574 OFFCURVE",
"487 574 CURVE SMOOTH",
"639 574 OFFCURVE",
"724 531 OFFCURVE",
"725 438 CURVE SMOOTH",
"726 343 OFFCURVE",
"641 284 OFFCURVE",
"477 284 CURVE SMOOTH",
"332 284 OFFCURVE",
"181 324 OFFCURVE",
"94 386 CURVE",
"65 374 LINE",
"14 84 LINE",
"104 20 OFFCURVE",
"304 -28 OFFCURVE",
"482 -28 CURVE SMOOTH"
);
}
);
width = 1284;
}
);
leftKerningGroup = five;
rightKerningGroup = fice;
unicode = 0035;
},
{
glyphname = six;
layers = (
{
layerId = "43807A99-8507-4079-8E7C-8F87E5CA03D3";
paths = (
{
closed = 1;
nodes = (
"993 -26 OFFCURVE",
"1285 173 OFFCURVE",
"1285 500 CURVE SMOOTH",
"1285 713 OFFCURVE",
"1129 844 OFFCURVE",
"878 844 CURVE SMOOTH",
"745 844 OFFCURVE",
"608 795 OFFCURVE",
"523 684 CURVE",
"554 628 LINE",
"553 665 OFFCURVE",
"556 698 OFFCURVE",
"567 756 CURVE SMOOTH",
"611 990 OFFCURVE",
"733 1100 OFFCURVE",
"887 1100 CURVE SMOOTH",
"979 1100 OFFCURVE",
"1037 1052 OFFCURVE",
"1037 974 CURVE SMOOTH",
"1037 961 OFFCURVE",
"1034 934 OFFCURVE",
"1028 907 CURVE",
"1333 896 LINE",
"1347 933 OFFCURVE",
"1361 971 OFFCURVE",
"1361 1044 CURVE SMOOTH",
"1361 1246 OFFCURVE",
"1182 1372 OFFCURVE",
"904 1372 CURVE SMOOTH",
"418 1372 OFFCURVE",
"82 1003 OFFCURVE",
"82 515 CURVE SMOOTH",
"82 182 OFFCURVE",
"286 -26 OFFCURVE",
"649 -26 CURVE SMOOTH"
);
},
{
closed = 1;
nodes = (
"587 248 OFFCURVE",
"532 302 OFFCURVE",
"532 389 CURVE SMOOTH",
"532 500 OFFCURVE",
"612 588 OFFCURVE",
"722 588 CURVE SMOOTH",
"805 588 OFFCURVE",
"860 538 OFFCURVE",
"860 452 CURVE SMOOTH",
"860 341 OFFCURVE",
"786 248 OFFCURVE",
"670 248 CURVE SMOOTH"
);
}
);
width = 1357;
}
);
leftKerningGroup = zero;
leftMetricsKey = zero;
rightKerningGroup = six;
unicode = 0036;
},
{
glyphname = seven;
layers = (
{
layerId = "43807A99-8507-4079-8E7C-8F87E5CA03D3";
paths = (
{
closed = 1;
nodes = (
"613 0 LINE",
"1321 1067 LINE",
"1371 1352 LINE",
"193 1352 LINE",
"96 798 LINE",
"366 797 LINE",
"431 1027 LINE",
"953 1027 LINE",
"874 1219 LINE",
"26 0 LINE"
);
}
);
width = 1249;
}
);
leftKerningGroup = seven;
rightKerningGroup = seven;
unicode = 0037;
},
{
glyphname = eight;
layers = (
{
layerId = "43807A99-8507-4079-8E7C-8F87E5CA03D3";
paths = (
{
closed = 1;
nodes = (
"1028 -28 OFFCURVE",
"1294 148 OFFCURVE",
"1294 421 CURVE SMOOTH",
"1294 637 OFFCURVE",
"1086 757 OFFCURVE",
"711 757 CURVE SMOOTH",
"283 757 OFFCURVE",
"37 608 OFFCURVE",
"37 348 CURVE SMOOTH",
"37 118 OFFCURVE",
"261 -28 OFFCURVE",
"625 -28 CURVE SMOOTH"
);
},
{
closed = 1;
nodes = (
"538 246 OFFCURVE",
"464 305 OFFCURVE",
"464 394 CURVE SMOOTH",
"464 493 OFFCURVE",
"558 566 OFFCURVE",
"686 566 CURVE SMOOTH",
"798 566 OFFCURVE",
"870 511 OFFCURVE",
"870 426 CURVE SMOOTH",
"870 320 OFFCURVE",
"779 246 OFFCURVE",
"648 246 CURVE SMOOTH"
);
},
{
closed = 1;
nodes = (
"667 778 OFFCURVE",
"614 830 OFFCURVE",
"614 912 CURVE SMOOTH",
"614 1020 OFFCURVE",
"688 1098 OFFCURVE",
"789 1098 CURVE SMOOTH",
"871 1098 OFFCURVE",
"922 1047 OFFCURVE",
"922 965 CURVE SMOOTH",
"922 857 OFFCURVE",
"849 778 OFFCURVE",
"749 778 CURVE SMOOTH"
);
},
{
closed = 1;
nodes = (
"1117 597 OFFCURVE",
"1341 750 OFFCURVE",
"1341 1018 CURVE SMOOTH",
"1341 1236 OFFCURVE",
"1132 1372 OFFCURVE",
"811 1372 CURVE SMOOTH",
"441 1372 OFFCURVE",
"201 1190 OFFCURVE",
"201 919 CURVE SMOOTH",
"201 708 OFFCURVE",
"382 597 OFFCURVE",
"724 597 CURVE SMOOTH"
);
}
);
width = 1384;
}
);
leftKerningGroup = eight;
rightKerningGroup = eight;
unicode = 0038;
},
{
color = 6;
glyphname = zero.tf;
layers = (
{
layerId = "43807A99-8507-4079-8E7C-8F87E5CA03D3";
paths = (
{
closed = 1;
nodes = (
"1050 -26 OFFCURVE",
"1360 329 OFFCURVE",
"1360 853 CURVE SMOOTH",
"1360 1183 OFFCURVE",
"1151 1372 OFFCURVE",
"839 1372 CURVE SMOOTH",
"399 1372 OFFCURVE",
"89 1018 OFFCURVE",
"89 493 CURVE SMOOTH",
"89 163 OFFCURVE",
"298 -26 OFFCURVE",
"610 -26 CURVE SMOOTH"
);
},
{
closed = 1;
nodes = (
"587 292 OFFCURVE",
"545 358 OFFCURVE",
"545 489 CURVE SMOOTH",
"545 713 OFFCURVE",
"623 1054 OFFCURVE",
"786 1054 CURVE SMOOTH",
"862 1054 OFFCURVE",
"904 988 OFFCURVE",
"904 857 CURVE SMOOTH",
"904 633 OFFCURVE",
"826 292 OFFCURVE",
"663 292 CURVE SMOOTH"
);
}
);
width = 1400;
}
);
},
{
color = 6;
glyphname = one.tf;
layers = (
{
layerId = "43807A99-8507-4079-8E7C-8F87E5CA03D3";
paths = (
{
closed = 1;
nodes = (
"1095 0 LINE",
"1151 320 LINE",
"928 320 LINE",
"1114 1372 LINE",
"327 1203 LINE",
"275 910 LINE",
"553 910 LINE",
"449 320 LINE",
"191 320 LINE",
"135 0 LINE"
);
}
);
width = 1400;
}
);
},
{
color = 6;
glyphname = two.tf;
layers = (
{
layerId = "43807A99-8507-4079-8E7C-8F87E5CA03D3";
paths = (
{
closed = 1;
nodes = (
"1193 0 LINE",
"1249 345 LINE",
"498 345 LINE",
"501 281 LINE",
"1017 404 OFFCURVE",
"1323 660 OFFCURVE",
"1323 989 CURVE SMOOTH",
"1323 1231 OFFCURVE",
"1132 1372 OFFCURVE",
"827 1372 CURVE SMOOTH",
"452 1372 OFFCURVE",
"191 1149 OFFCURVE",
"191 827 CURVE SMOOTH",
"191 739 OFFCURVE",
"213 656 OFFCURVE",
"250 606 CURVE",
"526 705 LINE",
"510 750 OFFCURVE",
"502 792 OFFCURVE",
"502 836 CURVE SMOOTH",
"502 985 OFFCURVE",
"578 1085 OFFCURVE",
"705 1085 CURVE SMOOTH",
"789 1085 OFFCURVE",
"839 1032 OFFCURVE",
"839 934 CURVE SMOOTH",
"839 675 OFFCURVE",
"581 444 OFFCURVE",
"120 285 CURVE",
"70 0 LINE"
);
}
);
width = 1400;
}
);
},
{
color = 6;
glyphname = three.tf;
layers = (
{
layerId = "43807A99-8507-4079-8E7C-8F87E5CA03D3";
paths = (
{
closed = 1;
nodes = (
"987 -28 OFFCURVE",
"1269 171 OFFCURVE",
"1269 472 CURVE SMOOTH",
"1269 692 OFFCURVE",
"1086 814 OFFCURVE",
"758 814 CURVE",
"827 730 LINE",
"1328 1077 LINE",
"1376 1352 LINE",
"306 1352 LINE",
"245 1007 LINE",
"1112 1007 LINE",
"911 1067 LINE",
"413 720 LINE",
"386 566 LINE",
"411 554 LINE",
"462 567 OFFCURVE",
"524 574 OFFCURVE",
"578 574 CURVE SMOOTH",
"715 574 OFFCURVE",
"794 528 OFFCURVE",
"794 441 CURVE SMOOTH",
"794 345 OFFCURVE",
"700 284 OFFCURVE",
"545 284 CURVE SMOOTH",
"383 284 OFFCURVE",
"251 324 OFFCURVE",
"165 396 CURVE",
"136 384 LINE",
"83 84 LINE",
"170 20 OFFCURVE",
"368 -28 OFFCURVE",
"550 -28 CURVE SMOOTH"
);
}
);
width = 1400;
}
);
},
{
color = 6;
glyphname = four.tf;
layers = (
{
layerId = "43807A99-8507-4079-8E7C-8F87E5CA03D3";
paths = (
{
closed = 1;
nodes = (
"1019 0 LINE",
"1257 1352 LINE",
"822 1352 LINE",
"84 609 LINE",
"31 309 LINE",
"1309 310 LINE",
"1365 630 LINE",
"210 632 LINE",
"231 461 LINE",
"953 1194 LINE",
"760 1133 LINE",
"560 0 LINE"
);
}
);
width = 1400;
}
);
},
{
color = 6;
glyphname = five.tf;
layers = (
{
layerId = "43807A99-8507-4079-8E7C-8F87E5CA03D3";
paths = (
{
closed = 1;
nodes = (
"988 -28 OFFCURVE",
"1269 172 OFFCURVE",
"1270 483 CURVE SMOOTH",
"1271 737 OFFCURVE",
"1085 876 OFFCURVE",
"738 876 CURVE SMOOTH",
"618 876 OFFCURVE",
"490 848 OFFCURVE",
"373 792 CURVE",
"510 645 LINE",
"605 1007 LINE",
"1294 1007 LINE",
"1355 1352 LINE",
"385 1352 LINE",
"178 518 LINE",
"203 506 LINE",
"309 549 OFFCURVE",
"439 574 OFFCURVE",
"555 574 CURVE SMOOTH",
"707 574 OFFCURVE",
"792 531 OFFCURVE",
"793 438 CURVE SMOOTH",
"794 343 OFFCURVE",
"709 284 OFFCURVE",
"545 284 CURVE SMOOTH",
"400 284 OFFCURVE",
"249 324 OFFCURVE",
"162 386 CURVE",
"133 374 LINE",
"82 84 LINE",
"172 20 OFFCURVE",
"372 -28 OFFCURVE",
"550 -28 CURVE SMOOTH"
);
}
);
width = 1400;
}
);
},
{
color = 6;
glyphname = six.tf;
layers = (
{
layerId = "43807A99-8507-4079-8E7C-8F87E5CA03D3";
paths = (
{
closed = 1;
nodes = (
"1013 -26 OFFCURVE",
"1305 173 OFFCURVE",
"1305 500 CURVE SMOOTH",
"1305 713 OFFCURVE",
"1149 844 OFFCURVE",
"898 844 CURVE SMOOTH",
"765 844 OFFCURVE",
"628 795 OFFCURVE",
"543 684 CURVE",
"574 628 LINE",
"573 665 OFFCURVE",
"576 698 OFFCURVE",
"587 756 CURVE SMOOTH",
"631 990 OFFCURVE",
"753 1100 OFFCURVE",
"907 1100 CURVE SMOOTH",
"999 1100 OFFCURVE",
"1057 1052 OFFCURVE",
"1057 974 CURVE SMOOTH",
"1057 961 OFFCURVE",
"1054 934 OFFCURVE",
"1048 907 CURVE",
"1353 896 LINE",
"1367 933 OFFCURVE",
"1381 971 OFFCURVE",
"1381 1044 CURVE SMOOTH",
"1381 1246 OFFCURVE",
"1202 1372 OFFCURVE",
"924 1372 CURVE SMOOTH",
"438 1372 OFFCURVE",
"102 1003 OFFCURVE",
"102 515 CURVE SMOOTH",
"102 182 OFFCURVE",
"306 -26 OFFCURVE",
"669 -26 CURVE SMOOTH"
);
},
{
closed = 1;
nodes = (
"607 248 OFFCURVE",
"552 302 OFFCURVE",
"552 389 CURVE SMOOTH",
"552 500 OFFCURVE",
"632 588 OFFCURVE",
"742 588 CURVE SMOOTH",
"825 588 OFFCURVE",
"880 538 OFFCURVE",
"880 452 CURVE SMOOTH",
"880 341 OFFCURVE",
"806 248 OFFCURVE",
"690 248 CURVE SMOOTH"
);
}
);
width = 1400;
}
);
},
{
color = 6;
glyphname = seven.tf;
layers = (
{
layerId = "43807A99-8507-4079-8E7C-8F87E5CA03D3";
paths = (
{
closed = 1;
nodes = (
"688 0 LINE",
"1396 1067 LINE",
"1446 1352 LINE",
"268 1352 LINE",
"171 798 LINE",
"441 797 LINE",
"506 1027 LINE",
"1028 1027 LINE",
"949 1219 LINE",
"101 0 LINE"
);
}
);
width = 1400;
}
);
},
{
color = 6;
glyphname = eight.tf;
layers = (
{
layerId = "43807A99-8507-4079-8E7C-8F87E5CA03D3";
paths = (
{
closed = 1;
nodes = (
"1036 -28 OFFCURVE",
"1302 148 OFFCURVE",
"1302 421 CURVE SMOOTH",
"1302 637 OFFCURVE",
"1094 757 OFFCURVE",
"719 757 CURVE SMOOTH",
"291 757 OFFCURVE",
"45 608 OFFCURVE",
"45 348 CURVE SMOOTH",
"45 118 OFFCURVE",
"269 -28 OFFCURVE",
"633 -28 CURVE SMOOTH"
);
},
{
closed = 1;
nodes = (
"546 246 OFFCURVE",
"472 305 OFFCURVE",
"472 394 CURVE SMOOTH",
"472 493 OFFCURVE",
"566 566 OFFCURVE",
"694 566 CURVE SMOOTH",
"806 566 OFFCURVE",
"878 511 OFFCURVE",
"878 426 CURVE SMOOTH",
"878 320 OFFCURVE",
"787 246 OFFCURVE",
"656 246 CURVE SMOOTH"
);
},
{
closed = 1;
nodes = (
"675 778 OFFCURVE",
"622 830 OFFCURVE",
"622 912 CURVE SMOOTH",
"622 1020 OFFCURVE",
"696 1098 OFFCURVE",
"797 1098 CURVE SMOOTH",
"879 1098 OFFCURVE",
"930 1047 OFFCURVE",
"930 965 CURVE SMOOTH",
"930 857 OFFCURVE",
"857 778 OFFCURVE",
"757 778 CURVE SMOOTH"
);
},
{
closed = 1;
nodes = (
"1125 597 OFFCURVE",
"1349 750 OFFCURVE",
"1349 1018 CURVE SMOOTH",
"1349 1236 OFFCURVE",
"1140 1372 OFFCURVE",
"819 1372 CURVE SMOOTH",
"449 1372 OFFCURVE",
"209 1190 OFFCURVE",
"209 919 CURVE SMOOTH",
"209 708 OFFCURVE",
"390 597 OFFCURVE",
"732 597 CURVE SMOOTH"
);
}
);
width = 1400;
}
);
},
{
glyphname = onesuperior;
layers = (
{
layerId = "43807A99-8507-4079-8E7C-8F87E5CA03D3";
paths = (
{
closed = 1;
nodes = (
"610 788 LINE",
"647 998 LINE",
"555 998 LINE",
"665 1623 LINE",
"213 1520 LINE",
"179 1327 LINE",
"305 1327 LINE",
"247 998 LINE",
"133 998 LINE",
"96 788 LINE"
);
}
);
width = 593;
}
);
leftMetricsKey = "=one*0.5";
rightMetricsKey = "=one*0.5";
unicode = 00B9;
},
{
glyphname = twosuperior;
layers = (
{
layerId = "43807A99-8507-4079-8E7C-8F87E5CA03D3";
paths = (
{
closed = 1;
nodes = (
"808 788 LINE",
"848 1013 LINE",
"374 1013 LINE",
"372 959 LINE",
"697 1031 OFFCURVE",
"888 1193 OFFCURVE",
"888 1392 CURVE SMOOTH",
"888 1538 OFFCURVE",
"773 1623 OFFCURVE",
"576 1623 CURVE SMOOTH",
"328 1623 OFFCURVE",
"170 1489 OFFCURVE",
"170 1288 CURVE SMOOTH",
"170 1234 OFFCURVE",
"182 1184 OFFCURVE",
"202 1156 CURVE",
"389 1217 LINE",
"379 1244 OFFCURVE",
"374 1271 OFFCURVE",
"374 1297 CURVE SMOOTH",
"374 1379 OFFCURVE",
"424 1436 OFFCURVE",
"496 1436 CURVE SMOOTH",
"549 1436 OFFCURVE",
"578 1405 OFFCURVE",
"578 1348 CURVE SMOOTH",
"578 1203 OFFCURVE",
"403 1057 OFFCURVE",
"127 971 CURVE",
"95 788 LINE"
);
}
);
width = 786;
}
);
leftMetricsKey = "=two*0.5";
rightMetricsKey = "=two*0.5";
unicode = 00B2;
},
{
glyphname = threesuperior;
layers = (
{
layerId = "43807A99-8507-4079-8E7C-8F87E5CA03D3";
paths = (
{
closed = 1;
nodes = (
"675 757 OFFCURVE",
"848 872 OFFCURVE",
"848 1053 CURVE SMOOTH",
"848 1188 OFFCURVE",
"734 1266 OFFCURVE",
"529 1266 CURVE",
"561 1212 LINE",
"868 1426 LINE",
"897 1592 LINE",
"235 1592 LINE",
"195 1367 LINE",
"695 1367 LINE",
"612 1420 LINE",
"305 1206 LINE",
"288 1111 LINE",
"303 1104 LINE",
"332 1112 OFFCURVE",
"370 1116 OFFCURVE",
"411 1116 CURVE SMOOTH",
"497 1116 OFFCURVE",
"544 1089 OFFCURVE",
"544 1041 CURVE SMOOTH",
"544 985 OFFCURVE",
"485 951 OFFCURVE",
"381 951 CURVE SMOOTH",
"286 951 OFFCURVE",
"202 975 OFFCURVE",
"151 1019 CURVE",
"133 1011 LINE",
"100 825 LINE",
"155 783 OFFCURVE",
"271 757 OFFCURVE",
"401 757 CURVE SMOOTH"
);
}
);
width = 786;
}
);
unicode = 00B3;
},
{
glyphname = foursuperior;
layers = (
{
layerId = "43807A99-8507-4079-8E7C-8F87E5CA03D3";
paths = (
{
closed = 1;
nodes = (
"714 788 LINE",
"856 1592 LINE",
"577 1592 LINE",
"130 1150 LINE",
"96 958 LINE",
"883 958 LINE",
"919 1163 LINE",
"210 1164 LINE",
"228 1062 LINE",
"667 1498 LINE",
"546 1462 LINE",
"427 788 LINE"
);
}
);
width = 821;
}
);
leftMetricsKey = "=four*0.5";
rightMetricsKey = "=four*0.5";
unicode = 2074;
},
{
glyphname = fraction;
layers = (
{
layerId = "43807A99-8507-4079-8E7C-8F87E5CA03D3";
paths = (
{
closed = 1;
nodes = (
"-75 0 LINE",
"1041 1592 LINE",
"716 1592 LINE",
"-400 0 LINE"
);
}
);
width = 360;
}
);
unicode = 2044;
},
{
glyphname = threequarters;
layers = (
{
background = {
paths = (
{
closed = 1;
nodes = (
"1105 -2 LINE",
"1607 1621 LINE",
"1243 1621 LINE",
"752 -2 LINE"
);
},
{
closed = 1;
nodes = (
"729 822 OFFCURVE",
"822 847 OFFCURVE",
"890 897 CURVE SMOOTH",
"958 947 OFFCURVE",
"992 1018 OFFCURVE",
"992 1110 CURVE SMOOTH",
"992 1165 OFFCURVE",
"972 1214 OFFCURVE",
"932 1258 CURVE SMOOTH",
"892 1302 OFFCURVE",
"843 1326 OFFCURVE",
"786 1331 CURVE",
"897 1422 OFFCURVE",
"953 1468 OFFCURVE",
"953 1469 CURVE SMOOTH",
"953 1623 LINE",
"327 1623 LINE",
"327 1358 LINE",
"440 1357 LINE",
"445 1375 OFFCURVE",
"448 1387 OFFCURVE",
"450 1393 CURVE SMOOTH",
"452 1399 OFFCURVE",
"456 1407 OFFCURVE",
"462 1417 CURVE SMOOTH",
"468 1427 OFFCURVE",
"475 1433 OFFCURVE",
"484 1436 CURVE SMOOTH",
"493 1439 OFFCURVE",
"505 1440 OFFCURVE",
"520 1440 CURVE SMOOTH",
"648 1440 LINE",
"648 1434 LINE",
"448 1264 LINE",
"448 1171 LINE",
"449 1168 LINE",
"451 1167 OFFCURVE",
"455 1166 OFFCURVE",
"460 1166 CURVE SMOOTH",
"463 1166 OFFCURVE",
"472 1168 OFFCURVE",
"488 1172 CURVE SMOOTH",
"504 1176 OFFCURVE",
"520 1178 OFFCURVE",
"535 1178 CURVE SMOOTH",
"574 1178 OFFCURVE",
"608 1170 OFFCURVE",
"637 1155 CURVE SMOOTH",
"666 1140 OFFCURVE",
"681 1115 OFFCURVE",
"681 1080 CURVE SMOOTH",
"681 1050 OFFCURVE",
"668 1028 OFFCURVE",
"641 1014 CURVE SMOOTH",
"614 1000 OFFCURVE",
"584 993 OFFCURVE",
"550 993 CURVE SMOOTH",
"476 993 OFFCURVE",
"404 1022 OFFCURVE",
"333 1079 CURVE",
"334 1081 LINE",
"334 878 LINE",
"369 855 OFFCURVE",
"409 840 OFFCURVE",
"453 833 CURVE SMOOTH",
"497 826 OFFCURVE",
"550 822 OFFCURVE",
"612 822 CURVE SMOOTH"
);
},
{
closed = 1;
nodes = (
"1513 395 LINE",
"1624 532 LINE",
"1624 394 LINE"
);
},
{
closed = 1;
nodes = (
"1964 -3 LINE",
"1964 166 LINE",
"1892 166 LINE",
"1892 243 LINE",
"2026 243 LINE",
"2026 394 LINE",
"1893 393 LINE",
"1893 784 LINE",
"1635 785 LINE",
"1311 401 LINE",
"1311 243 LINE",
"1624 243 LINE",
"1624 166 LINE",
"1550 166 LINE",
"1550 -3 LINE"
);
}
);
};
components = (
{
alignment = -1;
name = fraction;
transform = "{1, 0, 0, 1, 788, 0}";
},
{
name = threesuperior;
},
{
name = foursuperior;
transform = "{1, 0, 0, 1, 1053, -803}";
}
);
layerId = "43807A99-8507-4079-8E7C-8F87E5CA03D3";
width = 1874;
}
);
unicode = 00BE;
},
{
glyphname = asterisk;
layers = (
{
layerId = "43807A99-8507-4079-8E7C-8F87E5CA03D3";
paths = (
{
closed = 1;
nodes = (
"663 1100 LINE",
"848 1141 LINE SMOOTH",
"976 1169 OFFCURVE",
"1110 1223 OFFCURVE",
"1128 1328 CURVE SMOOTH",
"1140 1395 OFFCURVE",
"1100 1453 OFFCURVE",
"1020 1453 CURVE SMOOTH",
"965 1453 OFFCURVE",
"881 1411 OFFCURVE",
"808 1334 CURVE SMOOTH",
"695 1216 LINE",
"770 1346 LINE SMOOTH",
"802 1401 OFFCURVE",
"817 1453 OFFCURVE",
"822 1482 CURVE SMOOTH",
"839 1582 OFFCURVE",
"791 1633 OFFCURVE",
"722 1633 CURVE SMOOTH",
"653 1633 OFFCURVE",
"595 1582 OFFCURVE",
"579 1492 CURVE SMOOTH",
"572 1453 OFFCURVE",
"572 1388 OFFCURVE",
"580 1343 CURVE SMOOTH",
"603 1216 LINE",
"534 1336 LINE SMOOTH",
"488 1414 OFFCURVE",
"417 1453 OFFCURVE",
"359 1453 CURVE SMOOTH",
"277 1453 OFFCURVE",
"222 1397 OFFCURVE",
"212 1340 CURVE SMOOTH",
"192 1225 OFFCURVE",
"307 1168 OFFCURVE",
"424 1140 CURVE SMOOTH",
"602 1097 LINE"
);
},
{
closed = 1;
nodes = (
"613 614 OFFCURVE",
"671 665 OFFCURVE",
"687 755 CURVE SMOOTH",
"694 794 OFFCURVE",
"694 859 OFFCURVE",
"686 904 CURVE SMOOTH",
"663 1031 LINE",
"732 911 LINE SMOOTH",
"777 832 OFFCURVE",
"849 794 OFFCURVE",
"907 794 CURVE SMOOTH",
"989 794 OFFCURVE",
"1043 850 OFFCURVE",
"1053 907 CURVE SMOOTH",
"1073 1022 OFFCURVE",
"959 1079 OFFCURVE",
"842 1107 CURVE SMOOTH",
"664 1150 LINE",
"603 1147 LINE",
"418 1106 LINE SMOOTH",
"290 1078 OFFCURVE",
"157 1024 OFFCURVE",
"138 919 CURVE SMOOTH",
"126 852 OFFCURVE",
"166 794 OFFCURVE",
"246 794 CURVE SMOOTH",
"301 794 OFFCURVE",
"385 836 OFFCURVE",
"458 913 CURVE SMOOTH",
"571 1031 LINE",
"496 901 LINE SMOOTH",
"464 846 OFFCURVE",
"449 794 OFFCURVE",
"444 765 CURVE SMOOTH",
"427 665 OFFCURVE",
"475 614 OFFCURVE",
"544 614 CURVE SMOOTH"
);
}
);
width = 1058;
}
);
leftKerningGroup = asterisk;
rightKerningGroup = asterisk;
rightMetricsKey = "=|";
unicode = 002A;
},
{
glyphname = backslash;
layers = (
{
layerId = "43807A99-8507-4079-8E7C-8F87E5CA03D3";
paths = (
{
closed = 1;
nodes = (
"752 0 LINE",
"692 1592 LINE",
"210 1592 LINE",
"270 0 LINE"
);
}
);
width = 871;
}
);
leftKerningGroup = backslash;
rightKerningGroup = backslash;
unicode = 005C;
},
{
glyphname = periodcentered;
layers = (
{
layerId = "43807A99-8507-4079-8E7C-8F87E5CA03D3";
paths = (
{
closed = 1;
nodes = (
"492 293 OFFCURVE",
"626 413 OFFCURVE",
"626 580 CURVE SMOOTH",
"626 709 OFFCURVE",
"519 789 OFFCURVE",
"371 789 CURVE SMOOTH",
"187 789 OFFCURVE",
"52 670 OFFCURVE",
"52 509 CURVE SMOOTH",
"52 377 OFFCURVE",
"152 293 OFFCURVE",
"306 293 CURVE SMOOTH"
);
}
);
width = 675;
}
);
leftKerningGroup = hyphen;
rightKerningGroup = hyphen;
rightMetricsKey = "=|";
unicode = 00B7;
},
{
glyphname = bullet;
layers = (
{
layerId = "43807A99-8507-4079-8E7C-8F87E5CA03D3";
paths = (
{
closed = 1;
nodes = (
"685 152 OFFCURVE",
"856 312 OFFCURVE",
"856 543 CURVE SMOOTH",
"856 774 OFFCURVE",
"685 930 OFFCURVE",
"456 930 CURVE SMOOTH",
"227 930 OFFCURVE",
"56 774 OFFCURVE",
"56 543 CURVE SMOOTH",
"56 312 OFFCURVE",
"227 152 OFFCURVE",
"456 152 CURVE SMOOTH"
);
}
);
width = 910;
}
);
leftKerningGroup = hyphen;
rightKerningGroup = hyphen;
rightMetricsKey = "=|";
unicode = 2022;
},
{
glyphname = colon;
layers = (
{
layerId = "43807A99-8507-4079-8E7C-8F87E5CA03D3";
paths = (
{
closed = 1;
nodes = (
"530 596 OFFCURVE",
"648 704 OFFCURVE",
"648 874 CURVE SMOOTH",
"648 1015 OFFCURVE",
"550 1101 OFFCURVE",
"389 1101 CURVE SMOOTH",
"202 1101 OFFCURVE",
"85 996 OFFCURVE",
"85 828 CURVE SMOOTH",
"85 684 OFFCURVE",
"184 596 OFFCURVE",
"344 596 CURVE SMOOTH"
);
},
{
closed = 1;
nodes = (
"420 -27 OFFCURVE",
"538 81 OFFCURVE",
"538 251 CURVE SMOOTH",
"538 392 OFFCURVE",
"440 478 OFFCURVE",
"279 478 CURVE SMOOTH",
"92 478 OFFCURVE",
"-25 373 OFFCURVE",
"-25 205 CURVE SMOOTH",
"-25 61 OFFCURVE",
"74 -27 OFFCURVE",
"234 -27 CURVE SMOOTH"
);
}
);
width = 622;
}
);
leftKerningGroup = colon;
leftMetricsKey = period;
rightKerningGroup = colon;
rightMetricsKey = period;
unicode = 003A;
},
{
glyphname = comma;
layers = (
{
layerId = "43807A99-8507-4079-8E7C-8F87E5CA03D3";
paths = (
{
closed = 1;
nodes = (
"274 -438 OFFCURVE",
"521 -186 OFFCURVE",
"521 201 CURVE SMOOTH",
"521 381 OFFCURVE",
"430 478 OFFCURVE",
"259 478 CURVE SMOOTH",
"92 478 OFFCURVE",
"-25 373 OFFCURVE",
"-25 205 CURVE SMOOTH",
"-25 61 OFFCURVE",
"74 -27 OFFCURVE",
"234 -27 CURVE",
"172 4 LINE",
"157 -146 OFFCURVE",
"71 -205 OFFCURVE",
"-76 -208 CURVE",
"-117 -438 LINE"
);
}
);
width = 622;
}
);
leftKerningGroup = period;
leftMetricsKey = period;
widthMetricsKey = period;
rightKerningGroup = period;
unicode = 002C;
},
{
glyphname = exclam;
layers = (
{
layerId = "43807A99-8507-4079-8E7C-8F87E5CA03D3";
paths = (
{
closed = 1;
nodes = (
"604 547 LINE",
"830 1192 LINE",
"901 1592 LINE",
"290 1592 LINE",
"219 1192 LINE",
"217 547 LINE"
);
},
{
closed = 1;
nodes = (
"517 -27 OFFCURVE",
"636 81 OFFCURVE",
"636 251 CURVE SMOOTH",
"636 392 OFFCURVE",
"537 478 OFFCURVE",
"376 478 CURVE SMOOTH",
"189 478 OFFCURVE",
"72 373 OFFCURVE",
"72 205 CURVE SMOOTH",
"72 61 OFFCURVE",
"171 -27 OFFCURVE",
"331 -27 CURVE SMOOTH"
);
}
);
width = 818;
}
);
leftKerningGroup = exclam;
rightKerningGroup = exclam;
rightMetricsKey = "=|";
unicode = 0021;
},
{
glyphname = exclamdown;
layers = (
{
layerId = "43807A99-8507-4079-8E7C-8F87E5CA03D3";
paths = (
{
closed = 1;
nodes = (
"550 -398 LINE",
"621 2 LINE",
"623 647 LINE",
"236 647 LINE",
"9 2 LINE",
"-62 -398 LINE"
);
},
{
closed = 1;
nodes = (
"651 716 OFFCURVE",
"768 821 OFFCURVE",
"768 989 CURVE SMOOTH",
"768 1133 OFFCURVE",
"669 1221 OFFCURVE",
"509 1221 CURVE SMOOTH",
"323 1221 OFFCURVE",
"204 1113 OFFCURVE",
"204 943 CURVE SMOOTH",
"204 802 OFFCURVE",
"303 716 OFFCURVE",
"464 716 CURVE SMOOTH"
);
}
);
width = 818;
}
);
leftKerningGroup = exclamdown;
rightKerningGroup = exclamdown;
rightMetricsKey = "=|";
unicode = 00A1;
},
{
glyphname = numbersign;
layers = (
{
layerId = "43807A99-8507-4079-8E7C-8F87E5CA03D3";
paths = (
{
closed = 1;
nodes = (
"806 0 LINE",
"1449 1592 LINE",
"1121 1592 LINE",
"478 0 LINE"
);
},
{
closed = 1;
nodes = (
"1075 316 LINE",
"1190 615 LINE",
"102 615 LINE",
"-13 316 LINE"
);
},
{
closed = 1;
nodes = (
"324 0 LINE",
"967 1592 LINE",
"639 1592 LINE",
"-4 0 LINE"
);
},
{
closed = 1;
nodes = (
"1342 977 LINE",
"1458 1276 LINE",
"370 1276 LINE",
"254 977 LINE"
);
}
);
width = 1354;
}
);
unicode = 0023;
},
{
glyphname = period;
layers = (
{
layerId = "43807A99-8507-4079-8E7C-8F87E5CA03D3";
paths = (
{
closed = 1;
nodes = (
"420 -27 OFFCURVE",
"538 81 OFFCURVE",
"538 251 CURVE SMOOTH",
"538 392 OFFCURVE",
"440 478 OFFCURVE",
"279 478 CURVE SMOOTH",
"92 478 OFFCURVE",
"-25 373 OFFCURVE",
"-25 205 CURVE SMOOTH",
"-25 61 OFFCURVE",
"74 -27 OFFCURVE",
"234 -27 CURVE SMOOTH"
);
}
);
width = 622;
}
);
leftKerningGroup = period;
rightKerningGroup = period;
unicode = 002E;
},
{
glyphname = question;
layers = (
{
layerId = "43807A99-8507-4079-8E7C-8F87E5CA03D3";
paths = (
{
closed = 1;
nodes = (
"766 548 LINE",
"790 686 LINE",
"1173 799 OFFCURVE",
"1353 972 OFFCURVE",
"1353 1229 CURVE SMOOTH",
"1353 1471 OFFCURVE",
"1146 1621 OFFCURVE",
"811 1621 CURVE SMOOTH",
"450 1621 OFFCURVE",
"188 1441 OFFCURVE",
"139 1159 CURVE",
"609 1159 LINE",
"627 1265 OFFCURVE",
"677 1321 OFFCURVE",
"752 1321 CURVE SMOOTH",
"811 1321 OFFCURVE",
"842 1286 OFFCURVE",
"842 1222 CURVE SMOOTH",
"842 1049 OFFCURVE",
"700 914 OFFCURVE",
"434 833 CURVE",
"434 831 LINE",
"384 548 LINE"
);
},
{
closed = 1;
nodes = (
"681 -27 OFFCURVE",
"800 81 OFFCURVE",
"800 251 CURVE SMOOTH",
"800 392 OFFCURVE",
"701 478 OFFCURVE",
"540 478 CURVE SMOOTH",
"353 478 OFFCURVE",
"236 373 OFFCURVE",
"236 205 CURVE SMOOTH",
"236 61 OFFCURVE",
"335 -27 OFFCURVE",
"495 -27 CURVE SMOOTH"
);
}
);
width = 1268;
}
);
unicode = 003F;
},
{
glyphname = questiondown;
layers = (
{
layerId = "43807A99-8507-4079-8E7C-8F87E5CA03D3";
paths = (
{
closed = 1;
nodes = (
"839 -427 OFFCURVE",
"1101 -247 OFFCURVE",
"1150 35 CURVE",
"680 35 LINE",
"662 -71 OFFCURVE",
"612 -127 OFFCURVE",
"537 -127 CURVE SMOOTH",
"478 -127 OFFCURVE",
"447 -92 OFFCURVE",
"447 -28 CURVE SMOOTH",
"447 145 OFFCURVE",
"589 280 OFFCURVE",
"855 361 CURVE",
"855 363 LINE",
"905 646 LINE",
"523 646 LINE",
"499 508 LINE",
"116 395 OFFCURVE",
"-64 222 OFFCURVE",
"-64 -35 CURVE SMOOTH",
"-64 -277 OFFCURVE",
"143 -427 OFFCURVE",
"478 -427 CURVE SMOOTH"
);
},
{
closed = 1;
nodes = (
"936 716 OFFCURVE",
"1053 821 OFFCURVE",
"1053 989 CURVE SMOOTH",
"1053 1133 OFFCURVE",
"954 1221 OFFCURVE",
"794 1221 CURVE SMOOTH",
"608 1221 OFFCURVE",
"489 1113 OFFCURVE",
"489 943 CURVE SMOOTH",
"489 802 OFFCURVE",
"588 716 OFFCURVE",
"749 716 CURVE SMOOTH"
);
}
);
width = 1268;
}
);
unicode = 00BF;
},
{
glyphname = quotedbl;
layers = (
{
layerId = "43807A99-8507-4079-8E7C-8F87E5CA03D3";
paths = (
{
closed = 1;
nodes = (
"1048 842 LINE",
"1271 1592 LINE",
"781 1592 LINE",
"738 842 LINE"
);
},
{
closed = 1;
nodes = (
"503 842 LINE",
"726 1592 LINE",
"236 1592 LINE",
"193 842 LINE"
);
}
);
width = 1135;
}
);
leftKerningGroup = quote_straight;
leftMetricsKey = quotesingle;
rightKerningGroup = quote_straight;
rightMetricsKey = "=|";
unicode = 0022;
},
{
glyphname = quotesingle;
layers = (
{
layerId = "43807A99-8507-4079-8E7C-8F87E5CA03D3";
paths = (
{
closed = 1;
nodes = (
"503 842 LINE",
"726 1592 LINE",
"236 1592 LINE",
"193 842 LINE"
);
}
);
width = 590;
}
);
leftKerningGroup = quote_straight;
rightKerningGroup = quote_straight;
rightMetricsKey = "=|";
unicode = 0027;
},
{
glyphname = semicolon;
layers = (
{
layerId = "43807A99-8507-4079-8E7C-8F87E5CA03D3";
paths = (
{
closed = 1;
nodes = (
"274 -438 OFFCURVE",
"521 -186 OFFCURVE",
"521 201 CURVE SMOOTH",
"521 381 OFFCURVE",
"430 478 OFFCURVE",
"259 478 CURVE SMOOTH",
"92 478 OFFCURVE",
"-25 373 OFFCURVE",
"-25 205 CURVE SMOOTH",
"-25 61 OFFCURVE",
"74 -27 OFFCURVE",
"234 -27 CURVE",
"172 4 LINE",
"157 -146 OFFCURVE",
"71 -205 OFFCURVE",
"-76 -208 CURVE",
"-117 -438 LINE"
);
},
{
closed = 1;
nodes = (
"530 596 OFFCURVE",
"648 704 OFFCURVE",
"648 874 CURVE SMOOTH",
"648 1015 OFFCURVE",
"550 1101 OFFCURVE",
"389 1101 CURVE SMOOTH",
"202 1101 OFFCURVE",
"85 996 OFFCURVE",
"85 828 CURVE SMOOTH",
"85 684 OFFCURVE",
"184 596 OFFCURVE",
"344 596 CURVE SMOOTH"
);
}
);
width = 622;
}
);
leftKerningGroup = colon;
leftMetricsKey = period;
widthMetricsKey = period;
rightKerningGroup = colon;
unicode = 003B;
},
{
glyphname = slash;
layers = (
{
layerId = "43807A99-8507-4079-8E7C-8F87E5CA03D3";
paths = (
{
closed = 1;
nodes = (
"417 0 LINE",
"1039 1592 LINE",
"545 1592 LINE",
"-77 0 LINE"
);
}
);
width = 871;
}
);
unicode = 002F;
},
{
glyphname = underscore;
layers = (
{
layerId = "43807A99-8507-4079-8E7C-8F87E5CA03D3";
paths = (
{
closed = 1;
nodes = (
"1091 -266 LINE",
"1138 -1 LINE",
"-54 -1 LINE",
"-101 -266 LINE"
);
}
);
width = 1273;
}
);
leftKerningGroup = period;
rightKerningGroup = period;
unicode = 005F;
},
{
glyphname = periodcentered.loclCAT.case;
layers = (
{
anchors = (
{
name = _center_case;
position = "{372, 761}";
}
);
layerId = "43807A99-8507-4079-8E7C-8F87E5CA03D3";
paths = (
{
closed = 1;
nodes = (
"524 504 OFFCURVE",
"655 616 OFFCURVE",
"655 792 CURVE SMOOTH",
"655 936 OFFCURVE",
"541 1019 OFFCURVE",
"387 1019 CURVE SMOOTH",
"218 1019 OFFCURVE",
"88 911 OFFCURVE",
"88 737 CURVE SMOOTH",
"88 591 OFFCURVE",
"199 503 OFFCURVE",
"347 503 CURVE SMOOTH"
);
}
);
width = 670;
}
);
},
{
glyphname = periodcentered.loclCAT;
layers = (
{
anchors = (
{
name = _center;
position = "{373, 755}";
}
);
layerId = "43807A99-8507-4079-8E7C-8F87E5CA03D3";
paths = (
{
closed = 1;
nodes = (
"524 504 OFFCURVE",
"655 616 OFFCURVE",
"655 792 CURVE SMOOTH",
"655 936 OFFCURVE",
"541 1019 OFFCURVE",
"387 1019 CURVE SMOOTH",
"218 1019 OFFCURVE",
"88 911 OFFCURVE",
"88 737 CURVE SMOOTH",
"88 591 OFFCURVE",
"199 503 OFFCURVE",
"347 503 CURVE SMOOTH"
);
}
);
width = 670;
}
);
},
{
glyphname = asterisk.ss01;
layers = (
{
layerId = "43807A99-8507-4079-8E7C-8F87E5CA03D3";
paths = (
{
closed = 1;
nodes = (
"703 256 OFFCURVE",
"772 361 OFFCURVE",
"772 529 CURVE SMOOTH",
"772 558 OFFCURVE",
"770 589 OFFCURVE",
"766 622 CURVE SMOOTH",
"745 814 LINE",
"847 659 LINE SMOOTH",
"914 558 OFFCURVE",
"995 502 OFFCURVE",
"1074 502 CURVE SMOOTH",
"1169 502 OFFCURVE",
"1246 585 OFFCURVE",
"1246 686 CURVE SMOOTH",
"1246 775 OFFCURVE",
"1164 840 OFFCURVE",
"971 903 CURVE SMOOTH",
"757 973 LINE",
"749 928 LINE",
"981 997 LINE SMOOTH",
"1253 1078 OFFCURVE",
"1347 1150 OFFCURVE",
"1347 1277 CURVE SMOOTH",
"1347 1348 OFFCURVE",
"1301 1392 OFFCURVE",
"1227 1392 CURVE SMOOTH",
"1148 1392 OFFCURVE",
"1056 1335 OFFCURVE",
"921 1202 CURVE SMOOTH",
"795 1078 LINE",
"885 1272 LINE SMOOTH",
"925 1360 OFFCURVE",
"949 1441 OFFCURVE",
"949 1493 CURVE SMOOTH",
"949 1579 OFFCURVE",
"896 1634 OFFCURVE",
"815 1634 CURVE SMOOTH",
"690 1634 OFFCURVE",
"612 1527 OFFCURVE",
"612 1357 CURVE SMOOTH",
"612 1335 OFFCURVE",
"614 1307 OFFCURVE",
"617 1272 CURVE SMOOTH",
"639 1078 LINE",
"557 1202 LINE SMOOTH",
"470 1333 OFFCURVE",
"396 1392 OFFCURVE",
"317 1392 CURVE SMOOTH",
"219 1392 OFFCURVE",
"145 1313 OFFCURVE",
"145 1210 CURVE SMOOTH",
"145 1122 OFFCURVE",
"217 1067 OFFCURVE",
"425 997 CURVE SMOOTH",
"643 924 LINE",
"652 976 LINE",
"398 904 LINE SMOOTH",
"149 834 OFFCURVE",
"40 752 OFFCURVE",
"40 635 CURVE SMOOTH",
"40 562 OFFCURVE",
"103 502 OFFCURVE",
"178 502 CURVE SMOOTH",
"246 502 OFFCURVE",
"334 555 OFFCURVE",
"439 659 CURVE SMOOTH",
"597 814 LINE",
"508 622 LINE SMOOTH",
"465 532 OFFCURVE",
"441 452 OFFCURVE",
"441 398 CURVE SMOOTH",
"441 313 OFFCURVE",
"501 256 OFFCURVE",
"592 256 CURVE SMOOTH"
);
}
);
width = 1242;
}
);
leftKerningGroup = asterisk.ss01;
rightKerningGroup = asterisk.ss01;
},
{
glyphname = braceleft;
layers = (
{
layerId = "43807A99-8507-4079-8E7C-8F87E5CA03D3";
paths = (
{
closed = 1;
nodes = (
"826 -398 LINE",
"879 -98 LINE",
"849 -98 LINE SMOOTH",
"742 -98 OFFCURVE",
"696 -48 OFFCURVE",
"712 48 CURVE SMOOTH",
"757 304 LINE SMOOTH",
"783 451 OFFCURVE",
"719 569 OFFCURVE",
"561 598 CURVE",
"727 615 OFFCURVE",
"833 732 OFFCURVE",
"857 869 CURVE SMOOTH",
"906 1146 LINE SMOOTH",
"923 1242 OFFCURVE",
"987 1292 OFFCURVE",
"1084 1292 CURVE SMOOTH",
"1124 1292 LINE",
"1177 1592 LINE",
"1025 1592 LINE SMOOTH",
"684 1592 OFFCURVE",
"475 1424 OFFCURVE",
"428 1158 CURVE SMOOTH",
"384 910 LINE SMOOTH",
"363 791 OFFCURVE",
"310 747 OFFCURVE",
"207 747 CURVE SMOOTH",
"147 747 LINE",
"94 447 LINE",
"144 447 LINE SMOOTH",
"257 447 OFFCURVE",
"293 390 OFFCURVE",
"272 274 CURVE SMOOTH",
"232 48 LINE SMOOTH",
"183 -230 OFFCURVE",
"373 -398 OFFCURVE",
"694 -398 CURVE SMOOTH"
);
}
);
width = 1041;
}
);
leftKerningGroup = hyphen;
rightKerningGroup = brace;
unicode = 007B;
},
{
glyphname = braceright;
layers = (
{
layerId = "43807A99-8507-4079-8E7C-8F87E5CA03D3";
paths = (
{
closed = 1;
nodes = (
"37 -398 LINE SMOOTH",
"378 -398 OFFCURVE",
"587 -230 OFFCURVE",
"634 36 CURVE SMOOTH",
"678 284 LINE SMOOTH",
"699 403 OFFCURVE",
"752 447 OFFCURVE",
"855 447 CURVE SMOOTH",
"915 447 LINE",
"968 747 LINE",
"918 747 LINE SMOOTH",
"805 747 OFFCURVE",
"769 804 OFFCURVE",
"790 920 CURVE SMOOTH",
"830 1146 LINE SMOOTH",
"879 1424 OFFCURVE",
"689 1592 OFFCURVE",
"368 1592 CURVE SMOOTH",
"236 1592 LINE",
"183 1292 LINE",
"213 1292 LINE SMOOTH",
"320 1292 OFFCURVE",
"367 1242 OFFCURVE",
"350 1146 CURVE SMOOTH",
"305 890 LINE SMOOTH",
"279 743 OFFCURVE",
"343 625 OFFCURVE",
"501 596 CURVE",
"335 579 OFFCURVE",
"229 462 OFFCURVE",
"205 325 CURVE SMOOTH",
"156 48 LINE SMOOTH",
"139 -48 OFFCURVE",
"75 -98 OFFCURVE",
"-22 -98 CURVE SMOOTH",
"-62 -98 LINE",
"-115 -398 LINE"
);
}
);
width = 1041;
}
);
leftKerningGroup = brace;
leftMetricsKey = "=|braceleft";
rightKerningGroup = hyphen;
rightMetricsKey = "=|braceleft";
unicode = 007D;
},
{
glyphname = bracketleft;
layers = (
{
layerId = "43807A99-8507-4079-8E7C-8F87E5CA03D3";
paths = (
{
closed = 1;
nodes = (
"701 -398 LINE",
"754 -98 LINE",
"594 -98 LINE",
"839 1292 LINE",
"1034 1292 LINE",
"1087 1592 LINE",
"408 1592 LINE",
"57 -398 LINE"
);
}
);
width = 951;
}
);
rightKerningGroup = brace;
rightMetricsKey = braceleft;
unicode = 005B;
},
{
glyphname = bracketright;
layers = (
{
layerId = "43807A99-8507-4079-8E7C-8F87E5CA03D3";
paths = (
{
closed = 1;
nodes = (
"564 -398 LINE",
"915 1592 LINE",
"236 1592 LINE",
"183 1292 LINE",
"378 1292 LINE",
"133 -98 LINE",
"-27 -98 LINE",
"-80 -398 LINE"
);
}
);
width = 951;
}
);
leftKerningGroup = brace;
leftMetricsKey = braceright;
rightMetricsKey = "=|bracketleft";
unicode = 005D;
},
{
glyphname = parenleft;
layers = (
{
layerId = "43807A99-8507-4079-8E7C-8F87E5CA03D3";
paths = (
{
closed = 1;
nodes = (
"872 -98 LINE",
"740 -67 OFFCURVE",
"682 38 OFFCURVE",
"682 281 CURVE SMOOTH",
"682 497 OFFCURVE",
"755 1236 OFFCURVE",
"1116 1292 CURVE",
"1171 1602 LINE",
"449 1574 OFFCURVE",
"154 929 OFFCURVE",
"154 322 CURVE SMOOTH",
"154 -129 OFFCURVE",
"384 -382 OFFCURVE",
"817 -408 CURVE"
);
}
);
width = 1034;
}
);
leftKerningGroup = parenleft;
rightKerningGroup = brace;
rightMetricsKey = braceleft;
unicode = 0028;
},
{
glyphname = parenright;
layers = (
{
layerId = "43807A99-8507-4079-8E7C-8F87E5CA03D3";
paths = (
{
closed = 1;
nodes = (
"605 -380 OFFCURVE",
"901 275 OFFCURVE",
"901 872 CURVE SMOOTH",
"901 1352 OFFCURVE",
"671 1576 OFFCURVE",
"238 1602 CURVE",
"183 1292 LINE",
"315 1261 OFFCURVE",
"373 1156 OFFCURVE",
"373 950 CURVE SMOOTH",
"373 633 OFFCURVE",
"277 -45 OFFCURVE",
"-61 -98 CURVE",
"-116 -408 LINE"
);
}
);
width = 1034;
}
);
leftKerningGroup = brace;
leftMetricsKey = "=|braceleft";
rightMetricsKey = "=|parenleft";
unicode = 0029;
},
{
glyphname = emdash;
layers = (
{
layerId = "43807A99-8507-4079-8E7C-8F87E5CA03D3";
paths = (
{
closed = 1;
nodes = (
"1931 441 LINE",
"1966 641 LINE",
"119 641 LINE",
"84 441 LINE"
);
}
);
width = 2048;
}
);
leftKerningGroup = hyphen;
rightKerningGroup = hyphen;
rightMetricsKey = "=|";
unicode = 2014;
},
{
glyphname = endash;
layers = (
{
layerId = "43807A99-8507-4079-8E7C-8F87E5CA03D3";
paths = (
{
closed = 1;
nodes = (
"907 441 LINE",
"942 641 LINE",
"119 641 LINE",
"84 441 LINE"
);
}
);
width = 1024;
}
);
leftKerningGroup = hyphen;
rightKerningGroup = hyphen;
rightMetricsKey = "=|";
unicode = 2013;
},
{
glyphname = hyphen;
layers = (
{
layerId = "43807A99-8507-4079-8E7C-8F87E5CA03D3";
paths = (
{
closed = 1;
nodes = (
"698 391 LINE",
"751 691 LINE",
"127 691 LINE",
"74 391 LINE"
);
}
);
width = 824;
}
);
leftKerningGroup = hyphen;
rightKerningGroup = hyphen;
rightMetricsKey = "=|";
unicode = 002D;
},
{
glyphname = hyphentwo;
layers = (
{
background = {
paths = (
{
closed = 1;
nodes = (
"713 537 LINE",
"713 836 LINE",
"66 836 LINE",
"66 537 LINE"
);
}
);
};
components = (
{
alignment = 1;
name = hyphen;
}
);
layerId = "43807A99-8507-4079-8E7C-8F87E5CA03D3";
width = 824;
}
);
leftKerningGroup = hyphen;
rightKerningGroup = hyphen;
unicode = 2010;
},
{
glyphname = softhyphen;
layers = (
{
background = {
paths = (
{
closed = 1;
nodes = (
"713 537 LINE",
"713 836 LINE",
"66 836 LINE",
"66 537 LINE"
);
}
);
};
components = (
{
alignment = 1;
name = hyphen;
}
);
layerId = "43807A99-8507-4079-8E7C-8F87E5CA03D3";
width = 824;
}
);
leftKerningGroup = hyphen;
rightKerningGroup = hyphen;
unicode = 00AD;
},
{
glyphname = guillemetleft;
layers = (
{
layerId = "43807A99-8507-4079-8E7C-8F87E5CA03D3";
paths = (
{
closed = 1;
nodes = (
"1211 252 LINE",
"827 718 LINE",
"771 357 LINE",
"1320 823 LINE",
"1131 1050 LINE",
"678 676 LINE",
"630 406 LINE",
"952 32 LINE"
);
},
{
closed = 1;
nodes = (
"651 252 LINE",
"267 718 LINE",
"211 357 LINE",
"760 823 LINE",
"571 1050 LINE",
"118 676 LINE",
"70 406 LINE",
"392 32 LINE"
);
}
);
width = 1301;
}
);
leftKerningGroup = guilsinglleft;
leftMetricsKey = guilsinglleft;
rightKerningGroup = guilsinglleft;
rightMetricsKey = guilsinglleft;
unicode = 00AB;
},
{
glyphname = guillemetright;
layers = (
{
layerId = "43807A99-8507-4079-8E7C-8F87E5CA03D3";
paths = (
{
closed = 1;
nodes = (
"1185 406 LINE",
"1233 676 LINE",
"911 1050 LINE",
"652 830 LINE",
"1036 364 LINE",
"1092 725 LINE",
"543 259 LINE",
"732 32 LINE"
);
},
{
closed = 1;
nodes = (
"625 406 LINE",
"673 676 LINE",
"351 1050 LINE",
"92 830 LINE",
"476 364 LINE",
"532 725 LINE",
"-17 259 LINE",
"172 32 LINE"
);
}
);
width = 1301;
}
);
leftMetricsKey = "=|guilsinglleft";
rightMetricsKey = "=|guilsinglleft";
unicode = 00BB;
},
{
glyphname = guilsinglleft;
layers = (
{
layerId = "43807A99-8507-4079-8E7C-8F87E5CA03D3";
paths = (
{
closed = 1;
nodes = (
"651 252 LINE",
"267 718 LINE",
"211 357 LINE",
"760 823 LINE",
"571 1050 LINE",
"118 676 LINE",
"70 406 LINE",
"392 32 LINE"
);
}
);
width = 741;
}
);
leftKerningGroup = guilsinglleft;
rightKerningGroup = guilsinglleft;
unicode = 2039;
},
{
glyphname = guilsinglright;
layers = (
{
layerId = "43807A99-8507-4079-8E7C-8F87E5CA03D3";
paths = (
{
closed = 1;
nodes = (
"625 406 LINE",
"673 676 LINE",
"351 1050 LINE",
"92 830 LINE",
"476 364 LINE",
"532 725 LINE",
"-17 259 LINE",
"172 32 LINE"
);
}
);
width = 741;
}
);
leftKerningGroup = guilsinglright;
leftMetricsKey = "=|guilsinglleft";
rightKerningGroup = guilsinglright;
rightMetricsKey = "=|guilsinglleft";
unicode = 203A;
},
{
glyphname = quotedblbase;
layers = (
{
background = {
paths = (
{
closed = 1;
nodes = (
"854 -448 OFFCURVE",
"989 -405 OFFCURVE",
"1076 -319 CURVE SMOOTH",
"1163 -233 OFFCURVE",
"1206 -97 OFFCURVE",
"1206 88 CURVE SMOOTH",
"1206 170 OFFCURVE",
"1198 262 OFFCURVE",
"1182 365 CURVE",
"672 365 LINE",
"672 -1 LINE",
"861 -1 LINE",
"861 -29 OFFCURVE",
"861 -51 OFFCURVE",
"860 -66 CURVE SMOOTH",
"859 -81 OFFCURVE",
"857 -99 OFFCURVE",
"853 -119 CURVE SMOOTH",
"849 -139 OFFCURVE",
"843 -154 OFFCURVE",
"835 -165 CURVE SMOOTH",
"827 -176 OFFCURVE",
"816 -187 OFFCURVE",
"802 -197 CURVE SMOOTH",
"788 -207 OFFCURVE",
"770 -214 OFFCURVE",
"748 -218 CURVE SMOOTH",
"726 -222 OFFCURVE",
"700 -224 OFFCURVE",
"670 -224 CURVE",
"671 -223 LINE",
"671 -448 LINE"
);
},
{
closed = 1;
nodes = (
"218 -449 OFFCURVE",
"353 -406 OFFCURVE",
"440 -320 CURVE SMOOTH",
"527 -234 OFFCURVE",
"570 -98 OFFCURVE",
"570 87 CURVE SMOOTH",
"570 169 OFFCURVE",
"562 261 OFFCURVE",
"546 364 CURVE",
"36 364 LINE",
"36 -2 LINE",
"225 -2 LINE",
"225 -30 OFFCURVE",
"225 -52 OFFCURVE",
"224 -67 CURVE SMOOTH",
"223 -82 OFFCURVE",
"221 -100 OFFCURVE",
"217 -120 CURVE SMOOTH",
"213 -140 OFFCURVE",
"207 -155 OFFCURVE",
"199 -166 CURVE SMOOTH",
"191 -177 OFFCURVE",
"180 -188 OFFCURVE",
"166 -198 CURVE SMOOTH",
"152 -208 OFFCURVE",
"134 -215 OFFCURVE",
"112 -219 CURVE SMOOTH",
"90 -223 OFFCURVE",
"64 -225 OFFCURVE",
"34 -225 CURVE",
"35 -224 LINE",
"35 -449 LINE"
);
}
);
};
components = (
{
name = quotesinglbase;
},
{
name = quotesinglbase;
transform = "{1, 0, 0, 1, 621, 0}";
}
);
layerId = "43807A99-8507-4079-8E7C-8F87E5CA03D3";
width = 1242;
}
);
leftKerningGroup = period;
leftMetricsKey = period;
rightKerningGroup = period;
rightMetricsKey = period;
unicode = 201E;
},
{
glyphname = quotedblleft;
layers = (
{
background = {
paths = (
{
closed = 1;
nodes = (
"1216 840 LINE",
"1216 1206 LINE",
"1027 1206 LINE",
"1027 1234 OFFCURVE",
"1027 1255 OFFCURVE",
"1028 1270 CURVE SMOOTH",
"1029 1285 OFFCURVE",
"1031 1302 OFFCURVE",
"1035 1322 CURVE SMOOTH",
"1039 1342 OFFCURVE",
"1045 1357 OFFCURVE",
"1053 1368 CURVE SMOOTH",
"1061 1379 OFFCURVE",
"1072 1389 OFFCURVE",
"1086 1399 CURVE SMOOTH",
"1100 1409 OFFCURVE",
"1118 1416 OFFCURVE",
"1140 1420 CURVE SMOOTH",
"1162 1424 OFFCURVE",
"1188 1426 OFFCURVE",
"1218 1426 CURVE",
"1217 1428 LINE",
"1217 1653 LINE",
"1034 1653 OFFCURVE",
"899 1610 OFFCURVE",
"812 1524 CURVE SMOOTH",
"725 1438 OFFCURVE",
"682 1302 OFFCURVE",
"682 1117 CURVE SMOOTH",
"682 1035 OFFCURVE",
"690 943 OFFCURVE",
"706 840 CURVE"
);
},
{
closed = 1;
nodes = (
"586 838 LINE",
"586 1204 LINE",
"397 1204 LINE",
"397 1232 OFFCURVE",
"397 1253 OFFCURVE",
"398 1268 CURVE SMOOTH",
"399 1283 OFFCURVE",
"401 1300 OFFCURVE",
"405 1320 CURVE SMOOTH",
"409 1340 OFFCURVE",
"415 1355 OFFCURVE",
"423 1366 CURVE SMOOTH",
"431 1377 OFFCURVE",
"442 1387 OFFCURVE",
"456 1397 CURVE SMOOTH",
"470 1407 OFFCURVE",
"488 1414 OFFCURVE",
"510 1418 CURVE SMOOTH",
"532 1422 OFFCURVE",
"558 1424 OFFCURVE",
"588 1424 CURVE",
"587 1426 LINE",
"587 1651 LINE",
"404 1651 OFFCURVE",
"269 1608 OFFCURVE",
"182 1522 CURVE SMOOTH",
"95 1436 OFFCURVE",
"52 1300 OFFCURVE",
"52 1115 CURVE SMOOTH",
"52 1033 OFFCURVE",
"60 941 OFFCURVE",
"76 838 CURVE"
);
}
);
};
components = (
{
name = quoteleft;
},
{
name = quoteleft;
transform = "{1, 0, 0, 1, 621, 0}";
}
);
layerId = "43807A99-8507-4079-8E7C-8F87E5CA03D3";
width = 1242;
}
);
leftKerningGroup = quote;
leftMetricsKey = period;
rightKerningGroup = quote;
rightMetricsKey = period;
unicode = 201C;
},
{
glyphname = quotedblright;
layers = (
{
background = {
paths = (
{
closed = 1;
nodes = (
"898 809 OFFCURVE",
"1033 852 OFFCURVE",
"1120 938 CURVE SMOOTH",
"1207 1024 OFFCURVE",
"1250 1160 OFFCURVE",
"1250 1345 CURVE SMOOTH",
"1250 1426 OFFCURVE",
"1242 1518 OFFCURVE",
"1226 1621 CURVE",
"716 1621 LINE",
"716 1255 LINE",
"905 1255 LINE",
"905 1227 OFFCURVE",
"905 1205 OFFCURVE",
"904 1190 CURVE SMOOTH",
"903 1175 OFFCURVE",
"901 1157 OFFCURVE",
"897 1137 CURVE SMOOTH",
"893 1117 OFFCURVE",
"887 1102 OFFCURVE",
"879 1091 CURVE SMOOTH",
"871 1080 OFFCURVE",
"860 1069 OFFCURVE",
"846 1059 CURVE SMOOTH",
"832 1049 OFFCURVE",
"814 1042 OFFCURVE",
"792 1038 CURVE SMOOTH",
"770 1034 OFFCURVE",
"744 1032 OFFCURVE",
"714 1032 CURVE",
"715 1034 LINE",
"715 809 LINE"
);
},
{
closed = 1;
nodes = (
"246 807 OFFCURVE",
"381 850 OFFCURVE",
"468 936 CURVE SMOOTH",
"555 1022 OFFCURVE",
"598 1158 OFFCURVE",
"598 1343 CURVE SMOOTH",
"598 1424 OFFCURVE",
"590 1516 OFFCURVE",
"574 1619 CURVE",
"64 1619 LINE",
"64 1253 LINE",
"253 1253 LINE",
"253 1225 OFFCURVE",
"253 1203 OFFCURVE",
"252 1188 CURVE SMOOTH",
"251 1173 OFFCURVE",
"249 1155 OFFCURVE",
"245 1135 CURVE SMOOTH",
"241 1115 OFFCURVE",
"235 1100 OFFCURVE",
"227 1089 CURVE SMOOTH",
"219 1078 OFFCURVE",
"208 1067 OFFCURVE",
"194 1057 CURVE SMOOTH",
"180 1047 OFFCURVE",
"162 1040 OFFCURVE",
"140 1036 CURVE SMOOTH",
"118 1032 OFFCURVE",
"92 1030 OFFCURVE",
"62 1030 CURVE",
"63 1032 LINE",
"63 807 LINE"
);
}
);
};
components = (
{
name = quoteright;
},
{
name = quoteright;
transform = "{1, 0, 0, 1, 621, 0}";
}
);
layerId = "43807A99-8507-4079-8E7C-8F87E5CA03D3";
width = 1242;
}
);
leftKerningGroup = quote;
leftMetricsKey = period;
rightKerningGroup = quote;
rightMetricsKey = period;
unicode = 201D;
},
{
glyphname = quoteleft;
layers = (
{
layerId = "43807A99-8507-4079-8E7C-8F87E5CA03D3";
paths = (
{
closed = 1;
nodes = (
"552 725 OFFCURVE",
"669 830 OFFCURVE",
"669 998 CURVE SMOOTH",
"669 1142 OFFCURVE",
"570 1230 OFFCURVE",
"410 1230 CURVE",
"472 1199 LINE",
"487 1349 OFFCURVE",
"573 1408 OFFCURVE",
"720 1411 CURVE",
"761 1641 LINE",
"370 1641 OFFCURVE",
"123 1389 OFFCURVE",
"123 1002 CURVE SMOOTH",
"123 822 OFFCURVE",
"214 725 OFFCURVE",
"385 725 CURVE SMOOTH"
);
}
);
width = 622;
}
);
leftKerningGroup = quote;
leftMetricsKey = period;
widthMetricsKey = period;
rightKerningGroup = quote;
unicode = 2018;
},
{
glyphname = quoteright;
layers = (
{
layerId = "43807A99-8507-4079-8E7C-8F87E5CA03D3";
paths = (
{
closed = 1;
nodes = (
"475 705 OFFCURVE",
"722 957 OFFCURVE",
"722 1344 CURVE SMOOTH",
"722 1524 OFFCURVE",
"631 1621 OFFCURVE",
"460 1621 CURVE SMOOTH",
"293 1621 OFFCURVE",
"176 1516 OFFCURVE",
"176 1348 CURVE SMOOTH",
"176 1204 OFFCURVE",
"275 1116 OFFCURVE",
"435 1116 CURVE",
"373 1147 LINE",
"358 997 OFFCURVE",
"272 938 OFFCURVE",
"125 935 CURVE",
"84 705 LINE"
);
}
);
width = 622;
}
);
leftKerningGroup = quote;
leftMetricsKey = period;
widthMetricsKey = period;
rightKerningGroup = quote;
unicode = 2019;
},
{
glyphname = quotesinglbase;
layers = (
{
layerId = "43807A99-8507-4079-8E7C-8F87E5CA03D3";
paths = (
{
closed = 1;
nodes = (
"274 -438 OFFCURVE",
"521 -186 OFFCURVE",
"521 201 CURVE SMOOTH",
"521 381 OFFCURVE",
"430 478 OFFCURVE",
"259 478 CURVE SMOOTH",
"92 478 OFFCURVE",
"-25 373 OFFCURVE",
"-25 205 CURVE SMOOTH",
"-25 61 OFFCURVE",
"74 -27 OFFCURVE",
"234 -27 CURVE",
"172 4 LINE",
"157 -146 OFFCURVE",
"71 -205 OFFCURVE",
"-76 -208 CURVE",
"-117 -438 LINE"
);
}
);
width = 622;
}
);
leftKerningGroup = period;
leftMetricsKey = period;
widthMetricsKey = period;
rightKerningGroup = period;
unicode = 201A;
},
{
glyphname = "leftanglebracket-math";
layers = (
{
layerId = "43807A99-8507-4079-8E7C-8F87E5CA03D3";
paths = (
{
closed = 1;
nodes = (
"933 -398 LINE",
"577 829 LINE",
"503 365 LINE",
"1292 1592 LINE",
"816 1592 LINE",
"170 597 LINE",
"465 -398 LINE"
);
}
);
width = 1200;
}
);
unicode = 27E8;
},
{
glyphname = "rightanglebracket-math";
layers = (
{
layerId = "43807A99-8507-4079-8E7C-8F87E5CA03D3";
paths = (
{
closed = 1;
nodes = (
"406 -398 LINE",
"1052 597 LINE",
"757 1592 LINE",
"289 1592 LINE",
"645 365 LINE",
"719 829 LINE",
"-70 -398 LINE"
);
}
);
width = 1200;
}
);
unicode = 27E9;
},
{
glyphname = .notdef;
layers = (
{
layerId = "43807A99-8507-4079-8E7C-8F87E5CA03D3";
paths = (
{
closed = 1;
nodes = (
"789 0 LINE",
"1069 1540 LINE",
"255 1540 LINE",
"-25 0 LINE"
);
},
{
closed = 1;
nodes = (
"328 1334 LINE",
"614 112 LINE",
"105 112 LINE"
);
},
{
closed = 1;
nodes = (
"425 1428 LINE",
"939 1428 LINE",
"714 195 LINE"
);
}
);
width = 962;
}
);
},
{
glyphname = cedi;
layers = (
{
layerId = "43807A99-8507-4079-8E7C-8F87E5CA03D3";
paths = (
{
closed = 1;
nodes = (
"997 -26 OFFCURVE",
"1205 28 OFFCURVE",
"1336 113 CURVE",
"1399 471 LINE",
"1376 481 LINE",
"1243 391 OFFCURVE",
"1092 342 OFFCURVE",
"944 342 CURVE SMOOTH",
"722 342 OFFCURVE",
"613 443 OFFCURVE",
"613 629 CURVE SMOOTH",
"613 880 OFFCURVE",
"759 1073 OFFCURVE",
"953 1073 CURVE SMOOTH",
"1110 1073 OFFCURVE",
"1169 984 OFFCURVE",
"1143 786 CURVE",
"1477 786 LINE",
"1576 1352 LINE",
"1325 1352 LINE",
"1255 1217 LINE",
"1182 1319 OFFCURVE",
"1053 1372 OFFCURVE",
"864 1372 CURVE SMOOTH",
"423 1372 OFFCURVE",
"91 1032 OFFCURVE",
"91 576 CURVE SMOOTH",
"91 204 OFFCURVE",
"360 -26 OFFCURVE",
"802 -26 CURVE SMOOTH"
);
},
{
closed = 1;
nodes = (
"831 -200 LINE",
"1140 1552 LINE",
"938 1552 LINE",
"629 -200 LINE"
);
}
);
width = 1525;
}
);
leftKerningGroup = zero;
leftMetricsKey = C;
rightKerningGroup = euro;
rightMetricsKey = C;
unicode = 20B5;
},
{
glyphname = cent;
layers = (
{
anchors = (
{
name = bottom;
position = "{521, 0}";
},
{
name = cedilla;
position = "{564, 0}";
},
{
name = top;
position = "{710, 1072}";
}
);
layerId = "43807A99-8507-4079-8E7C-8F87E5CA03D3";
paths = (
{
closed = 1;
nodes = (
"763 -18 OFFCURVE",
"938 30 OFFCURVE",
"1036 97 CURVE",
"1088 394 LINE",
"1064 406 LINE",
"964 328 OFFCURVE",
"854 292 OFFCURVE",
"726 292 CURVE SMOOTH",
"555 292 OFFCURVE",
"476 367 OFFCURVE",
"476 501 CURVE SMOOTH",
"476 673 OFFCURVE",
"568 799 OFFCURVE",
"718 799 CURVE SMOOTH",
"843 799 OFFCURVE",
"891 743 OFFCURVE",
"884 628 CURVE",
"1152 628 LINE",
"1230 1072 LINE",
"1009 1072 LINE",
"949 957 LINE",
"884 1046 OFFCURVE",
"793 1090 OFFCURVE",
"652 1090 CURVE SMOOTH",
"330 1090 OFFCURVE",
"48 836 OFFCURVE",
"48 441 CURVE SMOOTH",
"48 158 OFFCURVE",
"271 -18 OFFCURVE",
"591 -18 CURVE SMOOTH"
);
},
{
closed = 1;
nodes = (
"656 -200 LINE",
"916 1272 LINE",
"714 1272 LINE",
"454 -200 LINE"
);
}
);
width = 1197;
}
);
leftKerningGroup = o;
leftMetricsKey = c;
rightKerningGroup = c;
rightMetricsKey = c;
unicode = 00A2;
},
{
glyphname = colonsign;
layers = (
{
layerId = "43807A99-8507-4079-8E7C-8F87E5CA03D3";
paths = (
{
closed = 1;
nodes = (
"995 -26 OFFCURVE",
"1203 28 OFFCURVE",
"1338 112 CURVE",
"1401 470 LINE",
"1378 480 LINE",
"1235 386 OFFCURVE",
"1081 334 OFFCURVE",
"944 334 CURVE SMOOTH",
"728 334 OFFCURVE",
"612 433 OFFCURVE",
"612 611 CURVE SMOOTH",
"612 860 OFFCURVE",
"777 1011 OFFCURVE",
"1042 1011 CURVE SMOOTH",
"1202 1011 OFFCURVE",
"1338 962 OFFCURVE",
"1445 865 CURVE",
"1471 875 LINE",
"1534 1232 LINE",
"1421 1319 OFFCURVE",
"1232 1371 OFFCURVE",
"1029 1371 CURVE SMOOTH",
"475 1371 OFFCURVE",
"90 1045 OFFCURVE",
"90 575 CURVE SMOOTH",
"90 203 OFFCURVE",
"370 -26 OFFCURVE",
"801 -26 CURVE SMOOTH"
);
},
{
closed = 1;
nodes = (
"604 -200 LINE",
"1193 1572 LINE",
"991 1572 LINE",
"402 -200 LINE"
);
},
{
closed = 1;
nodes = (
"927 -200 LINE",
"1516 1572 LINE",
"1314 1572 LINE",
"725 -200 LINE"
);
}
);
width = 1515;
}
);
leftKerningGroup = zero;
leftMetricsKey = C;
rightMetricsKey = "=C+10";
unicode = 20A1;
},
{
glyphname = currency;
layers = (
{
layerId = "43807A99-8507-4079-8E7C-8F87E5CA03D3";
paths = (
{
closed = 1;
nodes = (
"750 -16 OFFCURVE",
"866 18 OFFCURVE",
"967 87 CURVE",
"1053 1 LINE",
"1156 104 LINE",
"1075 185 LINE",
"1153 280 OFFCURVE",
"1192 399 OFFCURVE",
"1192 541 CURVE SMOOTH",
"1192 678 OFFCURVE",
"1155 794 OFFCURVE",
"1082 889 CURVE",
"1156 963 LINE",
"1053 1066 LINE",
"976 989 LINE",
"874 1062 OFFCURVE",
"755 1099 OFFCURVE",
"618 1099 CURVE SMOOTH",
"485 1099 OFFCURVE",
"368 1064 OFFCURVE",
"266 994 CURVE",
"195 1066 LINE",
"92 963 LINE",
"159 895 LINE",
"82 800 OFFCURVE",
"44 682 OFFCURVE",
"44 542 CURVE SMOOTH",
"44 541 LINE SMOOTH",
"44 396 OFFCURVE",
"85 275 OFFCURVE",
"166 178 CURVE",
"92 104 LINE",
"195 1 LINE",
"276 82 LINE",
"375 17 OFFCURVE",
"489 -16 OFFCURVE",
"618 -16 CURVE SMOOTH"
);
},
{
closed = 1;
nodes = (
"569 145 OFFCURVE",
"523 153 OFFCURVE",
"478 170 CURVE SMOOTH",
"433 187 OFFCURVE",
"392 211 OFFCURVE",
"356 243 CURVE SMOOTH",
"320 275 OFFCURVE",
"291 317 OFFCURVE",
"269 369 CURVE SMOOTH",
"247 421 OFFCURVE",
"236 478 OFFCURVE",
"236 541 CURVE SMOOTH",
"236 604 OFFCURVE",
"247 661 OFFCURVE",
"269 713 CURVE SMOOTH",
"291 765 OFFCURVE",
"320 807 OFFCURVE",
"356 839 CURVE SMOOTH",
"392 871 OFFCURVE",
"432 895 OFFCURVE",
"477 912 CURVE SMOOTH",
"522 929 OFFCURVE",
"568 937 OFFCURVE",
"616 937 CURVE SMOOTH",
"664 937 OFFCURVE",
"710 928 OFFCURVE",
"755 911 CURVE SMOOTH",
"800 894 OFFCURVE",
"840 870 OFFCURVE",
"876 838 CURVE SMOOTH",
"912 806 OFFCURVE",
"941 764 OFFCURVE",
"962 712 CURVE",
"965 714 LINE",
"987 663 OFFCURVE",
"998 606 OFFCURVE",
"998 543 CURVE SMOOTH",
"998 480 OFFCURVE",
"987 422 OFFCURVE",
"965 370 CURVE SMOOTH",
"943 318 OFFCURVE",
"914 276 OFFCURVE",
"878 244 CURVE SMOOTH",
"842 212 OFFCURVE",
"801 188 OFFCURVE",
"756 171 CURVE SMOOTH",
"711 154 OFFCURVE",
"665 145 OFFCURVE",
"617 145 CURVE SMOOTH"
);
}
);
width = 1248;
}
);
unicode = 00A4;
},
{
glyphname = dollar;
layers = (
{
layerId = "43807A99-8507-4079-8E7C-8F87E5CA03D3";
paths = (
{
closed = 1;
nodes = (
"1058 -27 OFFCURVE",
"1301 179 OFFCURVE",
"1301 472 CURVE SMOOTH",
"1301 944 OFFCURVE",
"581 827 OFFCURVE",
"581 1006 CURVE SMOOTH",
"581 1079 OFFCURVE",
"645 1118 OFFCURVE",
"772 1118 CURVE SMOOTH",
"913 1118 OFFCURVE",
"1012 1035 OFFCURVE",
"1021 909 CURVE",
"1354 909 LINE",
"1432 1352 LINE",
"1192 1352 LINE",
"1132 1231 LINE",
"1055 1318 OFFCURVE",
"928 1372 OFFCURVE",
"730 1372 CURVE SMOOTH",
"377 1372 OFFCURVE",
"128 1165 OFFCURVE",
"128 874 CURVE SMOOTH",
"128 405 OFFCURVE",
"847 542 OFFCURVE",
"847 345 CURVE SMOOTH",
"847 266 OFFCURVE",
"786 227 OFFCURVE",
"663 227 CURVE SMOOTH",
"487 227 OFFCURVE",
"375 315 OFFCURVE",
"378 451 CURVE",
"51 451 LINE",
"-29 0 LINE",
"212 0 LINE",
"272 116 LINE",
"354 26 OFFCURVE",
"494 -27 OFFCURVE",
"709 -27 CURVE SMOOTH"
);
},
{
closed = 1;
nodes = (
"664 -200 LINE",
"973 1552 LINE",
"771 1552 LINE",
"462 -200 LINE"
);
}
);
width = 1381;
}
);
leftKerningGroup = dollar;
leftMetricsKey = S;
rightKerningGroup = dollar;
rightMetricsKey = S;
unicode = 0024;
},
{
glyphname = dong;
layers = (
{
layerId = "43807A99-8507-4079-8E7C-8F87E5CA03D3";
paths = (
{
closed = 1;
nodes = (
"571 -18 OFFCURVE",
"698 31 OFFCURVE",
"796 135 CURVE",
"842 0 LINE",
"1351 0 LINE",
"1404 300 LINE",
"1266 300 LINE",
"1488 1560 LINE",
"996 1515 LINE",
"905 1001 LINE",
"840 1057 OFFCURVE",
"732 1090 OFFCURVE",
"642 1090 CURVE SMOOTH",
"291 1090 OFFCURVE",
"52 819 OFFCURVE",
"52 419 CURVE SMOOTH",
"52 122 OFFCURVE",
"229 -18 OFFCURVE",
"444 -18 CURVE SMOOTH"
);
},
{
closed = 1;
nodes = (
"1293 -333 LINE",
"1325 -150 LINE",
"-13 -150 LINE",
"-45 -333 LINE"
);
},
{
closed = 1;
nodes = (
"566 282 OFFCURVE",
"527 338 OFFCURVE",
"527 443 CURVE SMOOTH",
"527 654 OFFCURVE",
"609 791 OFFCURVE",
"747 791 CURVE SMOOTH",
"786 791 OFFCURVE",
"832 779 OFFCURVE",
"862 757 CURVE",
"802 417 LINE",
"760 322 OFFCURVE",
"695 282 OFFCURVE",
"638 282 CURVE SMOOTH"
);
},
{
closed = 1;
nodes = (
"1537 1222 LINE",
"1569 1405 LINE",
"619 1405 LINE",
"587 1222 LINE"
);
}
);
width = 1493;
}
);
leftKerningGroup = o;
leftMetricsKey = d;
widthMetricsKey = d;
rightKerningGroup = l;
unicode = 20AB;
},
{
glyphname = euro;
layers = (
{
layerId = "43807A99-8507-4079-8E7C-8F87E5CA03D3";
paths = (
{
closed = 1;
nodes = (
"1108 -26 OFFCURVE",
"1316 28 OFFCURVE",
"1447 113 CURVE",
"1510 471 LINE",
"1487 481 LINE",
"1354 391 OFFCURVE",
"1203 342 OFFCURVE",
"1055 342 CURVE SMOOTH",
"833 342 OFFCURVE",
"724 443 OFFCURVE",
"724 629 CURVE SMOOTH",
"724 880 OFFCURVE",
"870 1073 OFFCURVE",
"1064 1073 CURVE SMOOTH",
"1221 1073 OFFCURVE",
"1280 984 OFFCURVE",
"1254 786 CURVE",
"1588 786 LINE",
"1687 1352 LINE",
"1436 1352 LINE",
"1366 1217 LINE",
"1293 1319 OFFCURVE",
"1164 1372 OFFCURVE",
"975 1372 CURVE SMOOTH",
"534 1372 OFFCURVE",
"202 1032 OFFCURVE",
"202 576 CURVE SMOOTH",
"202 204 OFFCURVE",
"471 -26 OFFCURVE",
"913 -26 CURVE SMOOTH"
);
},
{
closed = 1;
nodes = (
"1038 459 LINE",
"1070 642 LINE",
"91 642 LINE",
"58 459 LINE"
);
},
{
closed = 1;
nodes = (
"1092 762 LINE",
"1124 945 LINE",
"144 945 LINE",
"112 762 LINE"
);
}
);
width = 1636;
}
);
rightKerningGroup = euro;
rightMetricsKey = C;
unicode = 20AC;
},
{
glyphname = florin;
layers = (
{
layerId = "43807A99-8507-4079-8E7C-8F87E5CA03D3";
paths = (
{
closed = 1;
nodes = (
"396 -418 OFFCURVE",
"601 -274 OFFCURVE",
"648 -5 CURVE SMOOTH",
"785 772 LINE",
"1025 772 LINE",
"1078 1072 LINE",
"838 1072 LINE",
"849 1135 LINE SMOOTH",
"862 1208 OFFCURVE",
"906 1252 OFFCURVE",
"994 1252 CURVE SMOOTH",
"1048 1252 OFFCURVE",
"1077 1241 OFFCURVE",
"1104 1230 CURVE",
"1133 1242 LINE",
"1183 1528 LINE",
"1111 1548 OFFCURVE",
"1029 1558 OFFCURVE",
"927 1558 CURVE SMOOTH",
"619 1558 OFFCURVE",
"415 1414 OFFCURVE",
"367 1145 CURVE SMOOTH",
"352 1061 LINE",
"186 1045 LINE",
"138 772 LINE",
"301 772 LINE",
"166 5 LINE SMOOTH",
"153 -68 OFFCURVE",
"109 -112 OFFCURVE",
"21 -112 CURVE SMOOTH",
"-32 -112 OFFCURVE",
"-61 -101 OFFCURVE",
"-88 -90 CURVE",
"-117 -102 LINE",
"-168 -388 LINE",
"-96 -408 OFFCURVE",
"-14 -418 OFFCURVE",
"88 -418 CURVE SMOOTH"
);
}
);
width = 1004;
}
);
leftKerningGroup = florin;
leftMetricsKey = "=|f";
rightKerningGroup = florin;
rightMetricsKey = f;
unicode = 0192;
},
{
glyphname = franc;
layers = (
{
layerId = "43807A99-8507-4079-8E7C-8F87E5CA03D3";
paths = (
{
closed = 1;
nodes = (
"855 0 LINE",
"908 300 LINE",
"664 300 LINE",
"724 643 LINE",
"943 643 LINE",
"987 893 LINE",
"768 893 LINE",
"797 1057 LINE",
"1114 1057 LINE",
"1097 790 LINE",
"1397 790 LINE",
"1496 1352 LINE",
"222 1352 LINE",
"169 1052 LINE",
"312 1052 LINE",
"180 300 LINE",
"37 300 LINE",
"-16 0 LINE"
);
},
{
closed = 1;
nodes = (
"1157 380 LINE",
"1189 563 LINE",
"118 563 LINE",
"86 380 LINE"
);
}
);
width = 1387;
}
);
leftKerningGroup = franc;
rightKerningGroup = franc;
rightMetricsKey = F;
unicode = 20A3;
},
{
glyphname = guarani;
layers = (
{
layerId = "43807A99-8507-4079-8E7C-8F87E5CA03D3";
paths = (
{
closed = 1;
nodes = (
"1070 -26 OFFCURVE",
"1289 21 OFFCURVE",
"1445 93 CURVE",
"1544 656 LINE",
"1125 656 LINE",
"1068 332 LINE",
"1027 321 OFFCURVE",
"979 315 OFFCURVE",
"933 315 CURVE SMOOTH",
"729 315 OFFCURVE",
"609 431 OFFCURVE",
"609 629 CURVE SMOOTH",
"609 894 OFFCURVE",
"762 1073 OFFCURVE",
"987 1073 CURVE SMOOTH",
"1150 1073 OFFCURVE",
"1206 1020 OFFCURVE",
"1213 857 CURVE",
"1549 857 LINE",
"1636 1352 LINE",
"1386 1352 LINE",
"1315 1217 LINE",
"1240 1322 OFFCURVE",
"1107 1372 OFFCURVE",
"903 1372 CURVE SMOOTH",
"429 1372 OFFCURVE",
"92 1040 OFFCURVE",
"92 586 CURVE SMOOTH",
"92 197 OFFCURVE",
"389 -26 OFFCURVE",
"856 -26 CURVE SMOOTH"
);
},
{
closed = 1;
nodes = (
"845 -200 LINE",
"1154 1552 LINE",
"952 1552 LINE",
"643 -200 LINE"
);
}
);
width = 1633;
}
);
leftKerningGroup = zero;
leftMetricsKey = G;
rightKerningGroup = euro;
rightMetricsKey = G;
unicode = 20B2;
},
{
glyphname = kip;
layers = (
{
layerId = "43807A99-8507-4079-8E7C-8F87E5CA03D3";
paths = (
{
closed = 1;
nodes = (
"1551 0 LINE",
"1604 300 LINE",
"1478 300 LINE",
"1038 797 LINE",
"822 555 LINE",
"1539 1052 LINE",
"1666 1052 LINE",
"1719 1352 LINE",
"1054 1352 LINE",
"1001 1052 LINE",
"1147 1052 LINE",
"631 691 LINE",
"643 661 LINE",
"946 300 LINE",
"869 300 LINE",
"816 0 LINE"
);
},
{
closed = 1;
nodes = (
"683 0 LINE",
"736 300 LINE",
"661 300 LINE",
"793 1052 LINE",
"881 1052 LINE",
"934 1352 LINE",
"222 1352 LINE",
"169 1052 LINE",
"312 1052 LINE",
"180 300 LINE",
"37 300 LINE",
"-16 0 LINE"
);
},
{
closed = 1;
nodes = (
"1569 585 LINE",
"1601 768 LINE",
"154 768 LINE",
"122 585 LINE"
);
}
);
width = 1661;
}
);
leftKerningGroup = kip;
rightKerningGroup = kip;
rightMetricsKey = K;
unicode = 20AD;
},
{
glyphname = lira;
layers = (
{
layerId = "43807A99-8507-4079-8E7C-8F87E5CA03D3";
paths = (
{
closed = 1;
nodes = (
"1317 0 LINE",
"1416 560 LINE",
"1104 560 LINE",
"1024 295 LINE",
"663 295 LINE",
"756 824 LINE SMOOTH",
"781 965 OFFCURVE",
"891 1034 OFFCURVE",
"1071 1034 CURVE SMOOTH",
"1208 1034 OFFCURVE",
"1303 1016 OFFCURVE",
"1412 969 CURVE",
"1430 976 LINE",
"1487 1297 LINE",
"1367 1349 OFFCURVE",
"1235 1372 OFFCURVE",
"1047 1372 CURVE SMOOTH",
"628 1372 OFFCURVE",
"337 1191 OFFCURVE",
"277 851 CURVE SMOOTH",
"180 300 LINE",
"37 300 LINE",
"-16 0 LINE"
);
},
{
closed = 1;
nodes = (
"948 422 LINE",
"980 605 LINE",
"126 605 LINE",
"94 422 LINE"
);
},
{
closed = 1;
nodes = (
"1001 725 LINE",
"1033 908 LINE",
"179 908 LINE",
"147 725 LINE"
);
}
);
width = 1460;
}
);
leftKerningGroup = lira;
rightKerningGroup = lira;
unicode = 20A4;
},
{
glyphname = liraTurkish;
layers = (
{
layerId = "43807A99-8507-4079-8E7C-8F87E5CA03D3";
paths = (
{
closed = 1;
nodes = (
"640 0 LINE SMOOTH",
"1171 0 OFFCURVE",
"1453 213 OFFCURVE",
"1535 677 CURVE",
"1163 677 LINE",
"1119 423 OFFCURVE",
"978 300 OFFCURVE",
"730 300 CURVE SMOOTH",
"664 300 LINE",
"849 1352 LINE",
"365 1352 LINE",
"180 300 LINE",
"37 300 LINE",
"-16 0 LINE"
);
},
{
closed = 1;
nodes = (
"1117 816 LINE",
"1154 1029 LINE",
"125 600 LINE",
"87 387 LINE"
);
},
{
closed = 1;
nodes = (
"1177 1159 LINE",
"1215 1372 LINE",
"185 943 LINE",
"148 730 LINE"
);
}
);
width = 1521;
}
);
leftKerningGroup = liraTurkish;
rightKerningGroup = liraTurkish;
unicode = 20BA;
},
{
glyphname = manat;
layers = (
{
layerId = "43807A99-8507-4079-8E7C-8F87E5CA03D3";
paths = (
{
closed = 1;
nodes = (
"580 0 LINE",
"652 410 LINE SMOOTH",
"744 927 OFFCURVE",
"853 1075 OFFCURVE",
"1033 1075 CURVE SMOOTH",
"1229 1075 OFFCURVE",
"1288 917 OFFCURVE",
"1191 370 CURVE SMOOTH",
"1126 0 LINE",
"1753 0 LINE",
"1806 300 LINE",
"1663 300 LINE",
"1685 421 LINE SMOOTH",
"1775 929 OFFCURVE",
"1647 1372 OFFCURVE",
"1085 1372 CURVE SMOOTH",
"524 1372 OFFCURVE",
"267 968 OFFCURVE",
"177 461 CURVE SMOOTH",
"149 300 LINE",
"6 300 LINE",
"-47 0 LINE"
);
},
{
closed = 1;
nodes = (
"955 0 LINE",
"1226 1552 LINE",
"1024 1552 LINE",
"753 0 LINE"
);
}
);
width = 1896;
}
);
leftKerningGroup = manat;
leftMetricsKey = U;
rightKerningGroup = manat;
rightMetricsKey = "=|";
unicode = 20BC;
},
{
glyphname = naira;
layers = (
{
layerId = "43807A99-8507-4079-8E7C-8F87E5CA03D3";
paths = (
{
closed = 1;
nodes = (
"1460 0 LINE",
"1645 1052 LINE",
"1788 1052 LINE",
"1841 1352 LINE",
"1244 1352 LINE",
"1191 1052 LINE",
"1338 1052 LINE",
"1215 350 LINE",
"1291 451 LINE",
"863 1352 LINE",
"222 1352 LINE",
"169 1052 LINE",
"312 1052 LINE",
"180 300 LINE",
"37 300 LINE",
"-16 0 LINE",
"580 0 LINE",
"633 300 LINE",
"487 300 LINE",
"611 1002 LINE",
"534 900 LINE",
"959 -1 LINE"
);
},
{
closed = 1;
nodes = (
"421 736 LINE",
"453 919 LINE",
"181 919 LINE",
"149 736 LINE"
);
},
{
closed = 1;
nodes = (
"1084 433 LINE",
"1116 616 LINE",
"128 616 LINE",
"96 433 LINE"
);
},
{
closed = 1;
nodes = (
"1645 433 LINE",
"1677 616 LINE",
"1414 616 LINE",
"1382 433 LINE"
);
},
{
closed = 1;
nodes = (
"1698 736 LINE",
"1730 919 LINE",
"853 919 LINE",
"821 736 LINE"
);
}
);
width = 1777;
}
);
leftKerningGroup = naira;
rightKerningGroup = naira;
unicode = 20A6;
},
{
glyphname = peseta;
layers = (
{
layerId = "43807A99-8507-4079-8E7C-8F87E5CA03D3";
paths = (
{
closed = 1;
nodes = (
"887 0 LINE",
"940 300 LINE",
"664 300 LINE",
"700 503 LINE",
"784 503 LINE SMOOTH",
"1175 503 OFFCURVE",
"1468 641 OFFCURVE",
"1468 990 CURVE SMOOTH",
"1468 1238 OFFCURVE",
"1260 1352 OFFCURVE",
"894 1352 CURVE SMOOTH",
"222 1352 LINE",
"169 1052 LINE",
"312 1052 LINE",
"180 300 LINE",
"37 300 LINE",
"-16 0 LINE"
);
},
{
closed = 1;
nodes = (
"799 1068 LINE",
"903 1068 OFFCURVE",
"967 1035 OFFCURVE",
"967 941 CURVE SMOOTH",
"967 809 OFFCURVE",
"886 762 OFFCURVE",
"745 762 CURVE"
);
},
{
closed = 1;
nodes = (
"1944 -18 OFFCURVE",
"2020 -8 OFFCURVE",
"2099 10 CURVE",
"2149 296 LINE",
"2124 308 LINE",
"2094 299 OFFCURVE",
"2061 288 OFFCURVE",
"2015 288 CURVE SMOOTH",
"1946 288 OFFCURVE",
"1918 334 OFFCURVE",
"1932 415 CURVE SMOOTH",
"1993 772 LINE",
"2233 772 LINE",
"2286 1072 LINE",
"2046 1072 LINE",
"2105 1406 LINE",
"1602 1301 LINE",
"1448 425 LINE SMOOTH",
"1398 139 OFFCURVE",
"1561 -18 OFFCURVE",
"1857 -18 CURVE SMOOTH"
);
},
{
closed = 1;
nodes = (
"3058 -18 OFFCURVE",
"3267 134 OFFCURVE",
"3267 386 CURVE SMOOTH",
"3267 751 OFFCURVE",
"2808 643 OFFCURVE",
"2808 801 CURVE SMOOTH",
"2808 845 OFFCURVE",
"2843 875 OFFCURVE",
"2913 875 CURVE SMOOTH",
"2982 875 OFFCURVE",
"3042 839 OFFCURVE",
"3070 728 CURVE",
"3326 728 LINE",
"3387 1072 LINE",
"3167 1072 LINE",
"3131 1009 LINE",
"3044 1067 OFFCURVE",
"2936 1091 OFFCURVE",
"2806 1091 CURVE SMOOTH",
"2528 1091 OFFCURVE",
"2311 945 OFFCURVE",
"2311 696 CURVE SMOOTH",
"2311 340 OFFCURVE",
"2761 463 OFFCURVE",
"2761 288 CURVE SMOOTH",
"2761 238 OFFCURVE",
"2726 208 OFFCURVE",
"2674 208 CURVE SMOOTH",
"2596 208 OFFCURVE",
"2529 262 OFFCURVE",
"2506 376 CURVE",
"2250 376 LINE",
"2184 0 LINE",
"2404 0 LINE",
"2448 71 LINE",
"2559 3 OFFCURVE",
"2666 -18 OFFCURVE",
"2782 -18 CURVE SMOOTH"
);
}
);
width = 3345;
}
);
leftKerningGroup = H;
rightKerningGroup = s;
rightMetricsKey = "=s";
unicode = 20A7;
},
{
glyphname = peso;
layers = (
{
layerId = "43807A99-8507-4079-8E7C-8F87E5CA03D3";
paths = (
{
closed = 1;
nodes = (
"611 0 LINE",
"643 184 LINE",
"757 184 LINE SMOOTH",
"1239 184 OFFCURVE",
"1549 426 OFFCURVE",
"1549 887 CURVE SMOOTH",
"1549 1199 OFFCURVE",
"1330 1352 OFFCURVE",
"933 1352 CURVE SMOOTH",
"365 1352 LINE",
"127 0 LINE"
);
},
{
closed = 1;
nodes = (
"1608 525 LINE",
"1640 708 LINE",
"103 708 LINE",
"71 525 LINE"
);
},
{
closed = 1;
nodes = (
"806 1104 LINE",
"858 1104 LINE SMOOTH",
"1014 1104 OFFCURVE",
"1084 1037 OFFCURVE",
"1084 882 CURVE SMOOTH",
"1084 623 OFFCURVE",
"985 432 OFFCURVE",
"739 432 CURVE SMOOTH",
"687 432 LINE"
);
},
{
closed = 1;
nodes = (
"1661 828 LINE",
"1693 1011 LINE",
"156 1011 LINE",
"124 828 LINE"
);
}
);
width = 1672;
}
);
leftKerningGroup = peso;
rightKerningGroup = peso;
unicode = 20B1;
},
{
glyphname = ruble;
layers = (
{
layerId = "43807A99-8507-4079-8E7C-8F87E5CA03D3";
paths = (
{
closed = 1;
nodes = (
"639 0 LINE",
"739 568 LINE",
"991 568 LINE SMOOTH",
"1353 568 OFFCURVE",
"1633 702 OFFCURVE",
"1633 1019 CURVE SMOOTH",
"1633 1241 OFFCURVE",
"1448 1352 OFFCURVE",
"1089 1352 CURVE SMOOTH",
"222 1352 LINE",
"169 1052 LINE",
"312 1052 LINE",
"127 0 LINE"
);
},
{
closed = 1;
nodes = (
"1084 265 LINE",
"1116 448 LINE",
"98 448 LINE",
"66 265 LINE"
);
},
{
closed = 1;
nodes = (
"597 568 LINE",
"629 751 LINE",
"151 751 LINE",
"119 568 LINE"
);
},
{
closed = 1;
nodes = (
"829 1077 LINE",
"940 1077 LINE SMOOTH",
"1044 1077 OFFCURVE",
"1101 1029 OFFCURVE",
"1101 943 CURVE SMOOTH",
"1101 818 OFFCURVE",
"1020 751 OFFCURVE",
"880 751 CURVE SMOOTH",
"771 751 LINE"
);
}
);
width = 1595;
}
);
leftKerningGroup = ruble;
rightKerningGroup = ruble;
rightMetricsKey = P;
unicode = 20BD;
},
{
glyphname = rupeeIndian;
layers = (
{
layerId = "43807A99-8507-4079-8E7C-8F87E5CA03D3";
paths = (
{
closed = 1;
nodes = (
"1232 0 LINE",
"1285 300 LINE",
"1169 300 LINE SMOOTH",
"1112 300 OFFCURVE",
"1090 325 OFFCURVE",
"1099 390 CURVE SMOOTH",
"1103 420 LINE SMOOTH",
"1124 578 OFFCURVE",
"1010 661 OFFCURVE",
"750 661 CURVE",
"751 615 LINE",
"1042 615 OFFCURVE",
"1217 742 OFFCURVE",
"1250 927 CURVE SMOOTH",
"1292 1169 OFFCURVE",
"1125 1281 OFFCURVE",
"714 1281 CURVE SMOOTH",
"245 1281 LINE",
"225 1169 LINE",
"528 1169 LINE SMOOTH",
"691 1169 OFFCURVE",
"758 1102 OFFCURVE",
"729 938 CURVE SMOOTH",
"707 813 OFFCURVE",
"627 746 OFFCURVE",
"454 746 CURVE SMOOTH",
"107 746 LINE",
"58 470 LINE",
"389 470 LINE SMOOTH",
"516 470 OFFCURVE",
"558 429 OFFCURVE",
"546 343 CURVE SMOOTH",
"538 286 LINE SMOOTH",
"511 91 OFFCURVE",
"610 0 OFFCURVE",
"824 0 CURVE SMOOTH"
);
},
{
closed = 1;
nodes = (
"1359 866 LINE",
"1391 1049 LINE",
"160 1049 LINE",
"128 866 LINE"
);
},
{
closed = 1;
nodes = (
"1412 1169 LINE",
"1444 1352 LINE",
"213 1352 LINE",
"181 1169 LINE"
);
}
);
width = 1392;
}
);
leftKerningGroup = rupeeIndian;
rightKerningGroup = rupeeIndian;
unicode = 20B9;
},
{
glyphname = sterling;
layers = (
{
layerId = "43807A99-8507-4079-8E7C-8F87E5CA03D3";
paths = (
{
closed = 1;
nodes = (
"1317 0 LINE",
"1416 560 LINE",
"1104 560 LINE",
"1024 295 LINE",
"663 295 LINE",
"756 824 LINE SMOOTH",
"781 965 OFFCURVE",
"891 1034 OFFCURVE",
"1071 1034 CURVE SMOOTH",
"1208 1034 OFFCURVE",
"1303 1016 OFFCURVE",
"1412 969 CURVE",
"1430 976 LINE",
"1487 1297 LINE",
"1367 1349 OFFCURVE",
"1235 1372 OFFCURVE",
"1047 1372 CURVE SMOOTH",
"628 1372 OFFCURVE",
"337 1191 OFFCURVE",
"277 851 CURVE SMOOTH",
"180 300 LINE",
"37 300 LINE",
"-16 0 LINE"
);
},
{
closed = 1;
nodes = (
"974 574 LINE",
"1006 757 LINE",
"152 757 LINE",
"120 574 LINE"
);
}
);
width = 1460;
}
);
leftKerningGroup = lira;
rightKerningGroup = lira;
unicode = 00A3;
},
{
glyphname = won;
layers = (
{
layerId = "43807A99-8507-4079-8E7C-8F87E5CA03D3";
paths = (
{
closed = 1;
nodes = (
"924 0 LINE",
"1313 789 LINE",
"1219 789 LINE",
"1330 0 LINE",
"1848 0 LINE",
"2374 1052 LINE",
"2505 1052 LINE",
"2558 1352 LINE",
"1950 1352 LINE",
"1897 1052 LINE",
"2047 1052 LINE",
"1642 176 LINE",
"1762 176 LINE",
"1634 1352 LINE",
"1279 1352 LINE",
"718 176 LINE",
"846 176 LINE",
"758 1052 LINE",
"907 1052 LINE",
"960 1352 LINE",
"163 1352 LINE",
"110 1052 LINE",
"241 1052 LINE",
"397 0 LINE"
);
},
{
closed = 1;
nodes = (
"723 346 LINE",
"755 529 LINE",
"78 529 LINE",
"46 346 LINE"
);
},
{
closed = 1;
nodes = (
"2372 649 LINE",
"2405 832 LINE",
"132 832 LINE",
"99 649 LINE"
);
},
{
closed = 1;
nodes = (
"2319 346 LINE",
"2351 529 LINE",
"1855 529 LINE",
"1823 346 LINE"
);
}
);
width = 2435;
}
);
leftKerningGroup = won;
rightKerningGroup = won;
unicode = 20A9;
},
{
glyphname = yen;
layers = (
{
layerId = "43807A99-8507-4079-8E7C-8F87E5CA03D3";
paths = (
{
closed = 1;
nodes = (
"1295 0 LINE",
"1348 300 LINE",
"1060 300 LINE",
"1157 850 LINE",
"1027 504 LINE",
"1612 1052 LINE",
"1757 1052 LINE",
"1810 1352 LINE",
"1185 1352 LINE",
"1132 1052 LINE",
"1224 1052 LINE",
"946 787 LINE",
"1081 778 LINE",
"900 1052 LINE",
"992 1052 LINE",
"1045 1352 LINE",
"168 1352 LINE",
"115 1052 LINE",
"260 1052 LINE",
"775 391 LINE",
"626 744 LINE",
"548 300 LINE",
"260 300 LINE",
"207 0 LINE"
);
},
{
closed = 1;
nodes = (
"744 723 LINE",
"777 906 LINE",
"276 906 LINE",
"243 723 LINE"
);
},
{
closed = 1;
nodes = (
"1460 420 LINE",
"1492 603 LINE",
"222 603 LINE",
"190 420 LINE"
);
},
{
closed = 1;
nodes = (
"1513 723 LINE",
"1546 906 LINE",
"1207 906 LINE",
"1174 723 LINE"
);
}
);
width = 1692;
}
);
leftKerningGroup = yen;
rightKerningGroup = yen;
unicode = 00A5;
},
{
color = 9;
glyphname = cedi.ss01;
layers = (
{
layerId = "43807A99-8507-4079-8E7C-8F87E5CA03D3";
paths = (
{
closed = 1;
nodes = (
"1068 -29 OFFCURVE",
"1307 25 OFFCURVE",
"1470 138 CURVE",
"1544 560 LINE",
"1519 572 LINE",
"1370 458 OFFCURVE",
"1195 406 OFFCURVE",
"1047 406 CURVE SMOOTH",
"810 406 OFFCURVE",
"686 533 OFFCURVE",
"686 770 CURVE SMOOTH",
"686 1057 OFFCURVE",
"850 1268 OFFCURVE",
"1063 1268 CURVE SMOOTH",
"1223 1268 OFFCURVE",
"1288 1162 OFFCURVE",
"1264 930 CURVE",
"1629 930 LINE",
"1746 1592 LINE",
"1471 1592 LINE",
"1395 1438 LINE",
"1314 1560 OFFCURVE",
"1173 1621 OFFCURVE",
"976 1621 CURVE SMOOTH",
"479 1621 OFFCURVE",
"115 1235 OFFCURVE",
"115 689 CURVE SMOOTH",
"115 238 OFFCURVE",
"418 -29 OFFCURVE",
"885 -29 CURVE SMOOTH"
);
},
{
closed = 1;
nodes = (
"906 -200 LINE",
"1257 1792 LINE",
"1055 1792 LINE",
"704 -200 LINE"
);
}
);
width = 1652;
}
);
leftKerningGroup = O;
leftMetricsKey = C;
rightKerningGroup = C;
rightMetricsKey = C;
},
{
color = 9;
glyphname = colonsign.ss01;
layers = (
{
layerId = "43807A99-8507-4079-8E7C-8F87E5CA03D3";
paths = (
{
closed = 1;
nodes = (
"1064 -29 OFFCURVE",
"1303 25 OFFCURVE",
"1465 135 CURVE",
"1539 557 LINE",
"1514 569 LINE",
"1364 458 OFFCURVE",
"1197 396 OFFCURVE",
"1059 396 CURVE SMOOTH",
"780 396 OFFCURVE",
"677 547 OFFCURVE",
"677 725 CURVE SMOOTH",
"677 1000 OFFCURVE",
"854 1196 OFFCURVE",
"1150 1196 CURVE SMOOTH",
"1338 1196 OFFCURVE",
"1483 1134 OFFCURVE",
"1594 1023 CURVE",
"1623 1035 LINE",
"1698 1457 LINE",
"1563 1570 OFFCURVE",
"1345 1621 OFFCURVE",
"1128 1621 CURVE SMOOTH",
"569 1621 OFFCURVE",
"111 1232 OFFCURVE",
"111 689 CURVE SMOOTH",
"111 238 OFFCURVE",
"414 -29 OFFCURVE",
"881 -29 CURVE SMOOTH"
);
},
{
closed = 1;
nodes = (
"713 -200 LINE",
"1364 1792 LINE",
"1162 1792 LINE",
"511 -200 LINE"
);
},
{
closed = 1;
nodes = (
"1036 -200 LINE",
"1687 1792 LINE",
"1485 1792 LINE",
"834 -200 LINE"
);
}
);
width = 1638;
}
);
leftKerningGroup = O;
leftMetricsKey = C;
rightKerningGroup = C;
rightMetricsKey = "=C+10";
},
{
color = 9;
glyphname = dollar.ss01;
layers = (
{
layerId = "43807A99-8507-4079-8E7C-8F87E5CA03D3";
paths = (
{
closed = 1;
nodes = (
"1237 -29 OFFCURVE",
"1496 214 OFFCURVE",
"1496 579 CURVE SMOOTH",
"1496 1171 OFFCURVE",
"688 943 OFFCURVE",
"688 1188 CURVE SMOOTH",
"688 1270 OFFCURVE",
"759 1323 OFFCURVE",
"901 1323 CURVE SMOOTH",
"1058 1323 OFFCURVE",
"1164 1229 OFFCURVE",
"1179 1076 CURVE",
"1560 1076 LINE",
"1651 1592 LINE",
"1376 1592 LINE",
"1300 1440 LINE",
"1215 1561 OFFCURVE",
"1063 1623 OFFCURVE",
"850 1623 CURVE SMOOTH",
"423 1623 OFFCURVE",
"157 1379 OFFCURVE",
"157 1017 CURVE SMOOTH",
"157 419 OFFCURVE",
"963 681 OFFCURVE",
"963 407 CURVE SMOOTH",
"963 324 OFFCURVE",
"897 271 OFFCURVE",
"759 271 CURVE SMOOTH",
"568 271 OFFCURVE",
"441 376 OFFCURVE",
"440 536 CURVE",
"67 536 LINE",
"-28 0 LINE",
"247 0 LINE",
"323 152 LINE",
"416 33 OFFCURVE",
"585 -29 OFFCURVE",
"815 -29 CURVE SMOOTH"
);
},
{
closed = 1;
nodes = (
"752 -200 LINE",
"1103 1792 LINE",
"901 1792 LINE",
"550 -200 LINE"
);
}
);
width = 1561;
}
);
leftKerningGroup = S;
leftMetricsKey = S;
rightKerningGroup = S;
rightMetricsKey = S;
},
{
color = 9;
glyphname = euro.ss01;
layers = (
{
layerId = "43807A99-8507-4079-8E7C-8F87E5CA03D3";
paths = (
{
closed = 1;
nodes = (
"1178 -29 OFFCURVE",
"1417 25 OFFCURVE",
"1580 138 CURVE",
"1654 560 LINE",
"1629 572 LINE",
"1480 458 OFFCURVE",
"1305 406 OFFCURVE",
"1157 406 CURVE SMOOTH",
"920 406 OFFCURVE",
"796 533 OFFCURVE",
"796 770 CURVE SMOOTH",
"796 1057 OFFCURVE",
"960 1268 OFFCURVE",
"1173 1268 CURVE SMOOTH",
"1333 1268 OFFCURVE",
"1398 1162 OFFCURVE",
"1374 930 CURVE",
"1739 930 LINE",
"1856 1592 LINE",
"1581 1592 LINE",
"1505 1438 LINE",
"1424 1560 OFFCURVE",
"1283 1621 OFFCURVE",
"1086 1621 CURVE SMOOTH",
"589 1621 OFFCURVE",
"225 1235 OFFCURVE",
"225 689 CURVE SMOOTH",
"225 238 OFFCURVE",
"528 -29 OFFCURVE",
"995 -29 CURVE SMOOTH"
);
},
{
closed = 1;
nodes = (
"1116 589 LINE",
"1148 772 LINE",
"118 772 LINE",
"86 589 LINE"
);
},
{
closed = 1;
nodes = (
"1169 892 LINE",
"1201 1075 LINE",
"171 1075 LINE",
"139 892 LINE"
);
}
);
width = 1762;
}
);
leftKerningGroup = O;
widthMetricsKey = "=C+110";
rightKerningGroup = C;
rightMetricsKey = C;
},
{
color = 9;
glyphname = franc.ss01;
layers = (
{
layerId = "43807A99-8507-4079-8E7C-8F87E5CA03D3";
paths = (
{
closed = 1;
nodes = (
"927 0 LINE",
"988 345 LINE",
"700 345 LINE",
"860 1252 LINE",
"1221 1252 LINE",
"1199 930 LINE",
"1529 930 LINE",
"1646 1592 LINE",
"250 1592 LINE",
"189 1247 LINE",
"347 1247 LINE",
"188 345 LINE",
"30 345 LINE",
"-31 0 LINE"
);
},
{
closed = 1;
nodes = (
"1115 442 LINE",
"1147 625 LINE",
"129 625 LINE",
"97 442 LINE"
);
},
{
closed = 1;
nodes = (
"1024 722 LINE",
"1082 1052 LINE",
"796 1052 LINE",
"738 722 LINE"
);
}
);
width = 1495;
}
);
leftKerningGroup = H;
leftMetricsKey = F;
rightKerningGroup = F;
rightMetricsKey = F;
},
{
color = 9;
glyphname = guarani.ss01;
layers = (
{
layerId = "43807A99-8507-4079-8E7C-8F87E5CA03D3";
paths = (
{
closed = 1;
nodes = (
"1153 -29 OFFCURVE",
"1405 27 OFFCURVE",
"1569 112 CURVE",
"1686 776 LINE",
"1234 776 LINE",
"1166 394 LINE",
"1122 380 OFFCURVE",
"1069 373 OFFCURVE",
"1022 373 CURVE SMOOTH",
"808 373 OFFCURVE",
"685 497 OFFCURVE",
"685 716 CURVE SMOOTH",
"685 1004 OFFCURVE",
"826 1268 OFFCURVE",
"1099 1268 CURVE SMOOTH",
"1242 1268 OFFCURVE",
"1328 1202 OFFCURVE",
"1324 1013 CURVE",
"1694 1013 LINE",
"1796 1592 LINE",
"1521 1592 LINE",
"1445 1438 LINE",
"1364 1560 OFFCURVE",
"1223 1621 OFFCURVE",
"999 1621 CURVE SMOOTH",
"527 1621 OFFCURVE",
"113 1280 OFFCURVE",
"114 675 CURVE SMOOTH",
"115 242 OFFCURVE",
"430 -29 OFFCURVE",
"943 -29 CURVE SMOOTH"
);
},
{
closed = 1;
nodes = (
"931 -200 LINE",
"1282 1792 LINE",
"1080 1792 LINE",
"729 -200 LINE"
);
}
);
width = 1754;
}
);
leftKerningGroup = O;
leftMetricsKey = G;
rightKerningGroup = G;
rightMetricsKey = G;
},
{
color = 9;
glyphname = kip.ss01;
layers = (
{
layerId = "43807A99-8507-4079-8E7C-8F87E5CA03D3";
paths = (
{
closed = 1;
nodes = (
"1641 0 LINE",
"1702 345 LINE",
"1562 345 LINE",
"1105 939 LINE",
"914 653 LINE",
"1651 1247 LINE",
"1786 1247 LINE",
"1847 1592 LINE",
"1139 1592 LINE",
"1078 1247 LINE",
"1228 1247 LINE",
"699 814 LINE",
"709 778 LINE",
"1006 345 LINE",
"919 345 LINE",
"858 0 LINE"
);
},
{
closed = 1;
nodes = (
"717 0 LINE",
"778 345 LINE",
"700 345 LINE",
"859 1247 LINE",
"951 1247 LINE",
"1012 1592 LINE",
"250 1592 LINE",
"189 1247 LINE",
"347 1247 LINE",
"188 345 LINE",
"30 345 LINE",
"-31 0 LINE"
);
},
{
closed = 1;
nodes = (
"1676 705 LINE",
"1708 888 LINE",
"176 888 LINE",
"144 705 LINE"
);
}
);
width = 1751;
}
);
leftKerningGroup = H;
leftMetricsKey = K;
rightKerningGroup = kip;
rightMetricsKey = K;
},
{
color = 9;
glyphname = lira.ss01;
layers = (
{
layerId = "43807A99-8507-4079-8E7C-8F87E5CA03D3";
paths = (
{
closed = 1;
nodes = (
"1385 0 LINE",
"1502 662 LINE",
"1172 662 LINE",
"1080 340 LINE",
"699 340 LINE",
"812 982 LINE SMOOTH",
"840 1142 OFFCURVE",
"957 1222 OFFCURVE",
"1150 1222 CURVE SMOOTH",
"1286 1222 OFFCURVE",
"1387 1200 OFFCURVE",
"1507 1145 CURVE",
"1526 1153 LINE",
"1593 1532 LINE",
"1463 1595 OFFCURVE",
"1325 1621 OFFCURVE",
"1134 1621 CURVE SMOOTH",
"690 1621 OFFCURVE",
"375 1404 OFFCURVE",
"306 1014 CURVE SMOOTH",
"188 345 LINE",
"30 345 LINE",
"-31 0 LINE"
);
},
{
closed = 1;
nodes = (
"1007 527 LINE",
"1039 710 LINE",
"144 710 LINE",
"112 527 LINE"
);
},
{
closed = 1;
nodes = (
"1060 830 LINE",
"1093 1013 LINE",
"198 1013 LINE",
"165 830 LINE"
);
}
);
width = 1528;
}
);
leftKerningGroup = lira.ss01;
rightKerningGroup = lira.ss01;
},
{
color = 9;
glyphname = liraTurkish.ss01;
layers = (
{
layerId = "43807A99-8507-4079-8E7C-8F87E5CA03D3";
paths = (
{
closed = 1;
nodes = (
"704 0 LINE SMOOTH",
"1256 0 OFFCURVE",
"1568 259 OFFCURVE",
"1662 797 CURVE",
"1266 797 LINE",
"1214 504 OFFCURVE",
"1052 345 OFFCURVE",
"805 345 CURVE SMOOTH",
"704 345 LINE",
"924 1592 LINE",
"408 1592 LINE",
"188 345 LINE",
"30 345 LINE",
"-31 0 LINE"
);
},
{
closed = 1;
nodes = (
"1302 1067 LINE",
"1340 1280 LINE",
"144 710 LINE",
"107 497 LINE"
);
},
{
closed = 1;
nodes = (
"1363 1410 LINE",
"1400 1623 LINE",
"205 1053 LINE",
"167 840 LINE"
);
}
);
width = 1656;
}
);
leftKerningGroup = liraTurkish.ss01;
rightKerningGroup = liraTurkish.ss01;
},
{
color = 9;
glyphname = manat.ss01;
layers = (
{
layerId = "43807A99-8507-4079-8E7C-8F87E5CA03D3";
paths = (
{
closed = 1;
nodes = (
"635 0 LINE",
"716 461 LINE SMOOTH",
"829 1106 OFFCURVE",
"943 1270 OFFCURVE",
"1146 1270 CURVE SMOOTH",
"1359 1270 OFFCURVE",
"1422 1096 OFFCURVE",
"1305 431 CURVE SMOOTH",
"1229 0 LINE",
"1911 0 LINE",
"1972 345 LINE",
"1814 345 LINE",
"1840 492 LINE SMOOTH",
"1949 1110 OFFCURVE",
"1816 1621 OFFCURVE",
"1206 1621 CURVE SMOOTH",
"607 1621 OFFCURVE",
"309 1130 OFFCURVE",
"203 522 CURVE SMOOTH",
"172 345 LINE",
"14 345 LINE",
"-47 0 LINE"
);
},
{
closed = 1;
nodes = (
"1033 0 LINE",
"1349 1792 LINE",
"1147 1792 LINE",
"831 0 LINE"
);
}
);
width = 2054;
}
);
leftKerningGroup = manat.ss01;
leftMetricsKey = U;
rightKerningGroup = manat.ss01;
rightMetricsKey = "=|";
},
{
color = 9;
glyphname = naira.ss01;
layers = (
{
layerId = "43807A99-8507-4079-8E7C-8F87E5CA03D3";
paths = (
{
closed = 1;
nodes = (
"1561 0 LINE",
"1781 1247 LINE",
"1939 1247 LINE",
"2000 1592 LINE",
"1354 1592 LINE",
"1293 1247 LINE",
"1451 1247 LINE",
"1304 412 LINE",
"1399 567 LINE",
"950 1592 LINE",
"250 1592 LINE",
"189 1247 LINE",
"347 1247 LINE",
"188 345 LINE",
"30 345 LINE",
"-31 0 LINE",
"615 0 LINE",
"676 345 LINE",
"518 345 LINE",
"665 1180 LINE",
"570 1025 LINE",
"1017 -1 LINE"
);
},
{
closed = 1;
nodes = (
"431 856 LINE",
"463 1039 LINE",
"202 1039 LINE",
"170 856 LINE"
);
},
{
closed = 1;
nodes = (
"1204 553 LINE",
"1236 736 LINE",
"149 736 LINE",
"117 553 LINE"
);
},
{
closed = 1;
nodes = (
"1820 856 LINE",
"1852 1039 LINE",
"863 1039 LINE",
"831 856 LINE"
);
},
{
closed = 1;
nodes = (
"1767 553 LINE",
"1799 736 LINE",
"1536 736 LINE",
"1504 553 LINE"
);
}
);
width = 1878;
}
);
leftKerningGroup = H;
rightKerningGroup = H;
},
{
color = 9;
glyphname = peseta.ss01;
layers = (
{
layerId = "43807A99-8507-4079-8E7C-8F87E5CA03D3";
paths = (
{
closed = 1;
nodes = (
"927 0 LINE",
"988 345 LINE",
"700 345 LINE",
"861 1257 LINE",
"976 1257 OFFCURVE",
"1037 1213 OFFCURVE",
"1037 1125 CURVE SMOOTH",
"1037 986 OFFCURVE",
"963 896 OFFCURVE",
"779 897 CURVE",
"725 592 LINE",
"833 592 LINE SMOOTH",
"1292 592 OFFCURVE",
"1566 811 OFFCURVE",
"1566 1176 CURVE SMOOTH",
"1566 1456 OFFCURVE",
"1373 1592 OFFCURVE",
"977 1592 CURVE SMOOTH",
"250 1592 LINE",
"189 1247 LINE",
"347 1247 LINE",
"188 345 LINE",
"30 345 LINE",
"-31 0 LINE"
);
},
{
closed = 1;
nodes = (
"1996 -18 OFFCURVE",
"2072 -8 OFFCURVE",
"2151 11 CURVE",
"2201 297 LINE",
"2176 309 LINE",
"2146 299 OFFCURVE",
"2113 288 OFFCURVE",
"2064 288 CURVE SMOOTH",
"1992 288 OFFCURVE",
"1968 335 OFFCURVE",
"1983 418 CURVE SMOOTH",
"2045 772 LINE",
"2285 772 LINE",
"2338 1072 LINE",
"2098 1072 LINE",
"2157 1406 LINE",
"1654 1301 LINE",
"1500 426 LINE SMOOTH",
"1448 131 OFFCURVE",
"1591 -18 OFFCURVE",
"1899 -18 CURVE SMOOTH"
);
},
{
closed = 1;
nodes = (
"3110 -18 OFFCURVE",
"3319 134 OFFCURVE",
"3319 386 CURVE SMOOTH",
"3319 751 OFFCURVE",
"2860 643 OFFCURVE",
"2860 801 CURVE SMOOTH",
"2860 845 OFFCURVE",
"2895 875 OFFCURVE",
"2965 875 CURVE SMOOTH",
"3034 875 OFFCURVE",
"3094 839 OFFCURVE",
"3122 728 CURVE",
"3378 728 LINE",
"3439 1072 LINE",
"3219 1072 LINE",
"3183 1009 LINE",
"3096 1067 OFFCURVE",
"2988 1091 OFFCURVE",
"2858 1091 CURVE SMOOTH",
"2580 1091 OFFCURVE",
"2363 945 OFFCURVE",
"2363 696 CURVE SMOOTH",
"2363 340 OFFCURVE",
"2813 463 OFFCURVE",
"2813 288 CURVE SMOOTH",
"2813 238 OFFCURVE",
"2778 208 OFFCURVE",
"2726 208 CURVE SMOOTH",
"2648 208 OFFCURVE",
"2581 262 OFFCURVE",
"2558 376 CURVE",
"2302 376 LINE",
"2236 0 LINE",
"2456 0 LINE",
"2500 71 LINE",
"2611 3 OFFCURVE",
"2718 -18 OFFCURVE",
"2834 -18 CURVE SMOOTH"
);
}
);
width = 3397;
}
);
leftKerningGroup = H;
leftMetricsKey = P;
rightKerningGroup = s;
rightMetricsKey = "=s";
},
{
color = 9;
glyphname = peso.ss01;
layers = (
{
layerId = "43807A99-8507-4079-8E7C-8F87E5CA03D3";
paths = (
{
closed = 1;
nodes = (
"639 0 LINE",
"694 312 LINE",
"813 312 LINE SMOOTH",
"1341 312 OFFCURVE",
"1665 579 OFFCURVE",
"1665 1077 CURVE SMOOTH",
"1665 1404 OFFCURVE",
"1453 1592 OFFCURVE",
"1015 1592 CURVE SMOOTH",
"408 1592 LINE",
"127 0 LINE"
);
},
{
closed = 1;
nodes = (
"1723 709 LINE",
"1755 892 LINE",
"176 892 LINE",
"144 709 LINE"
);
},
{
closed = 1;
nodes = (
"864 1277 LINE",
"909 1277 LINE SMOOTH",
"1065 1277 OFFCURVE",
"1161 1235 OFFCURVE",
"1161 1060 CURVE SMOOTH",
"1161 783 OFFCURVE",
"1062 627 OFFCURVE",
"799 627 CURVE SMOOTH",
"750 627 LINE"
);
},
{
closed = 1;
nodes = (
"1777 1012 LINE",
"1809 1195 LINE",
"230 1195 LINE",
"198 1012 LINE"
);
}
);
width = 1755;
}
);
leftKerningGroup = peso.ss01;
rightKerningGroup = peso.ss01;
},
{
color = 9;
glyphname = ruble.ss01;
layers = (
{
layerId = "43807A99-8507-4079-8E7C-8F87E5CA03D3";
paths = (
{
closed = 1;
nodes = (
"897 0 LINE",
"958 345 LINE",
"700 345 LINE",
"774 768 LINE",
"1023 768 LINE SMOOTH",
"1392 768 OFFCURVE",
"1671 912 OFFCURVE",
"1671 1243 CURVE SMOOTH",
"1671 1477 OFFCURVE",
"1489 1592 OFFCURVE",
"1139 1592 CURVE SMOOTH",
"250 1592 LINE",
"189 1247 LINE",
"347 1247 LINE",
"188 345 LINE",
"30 345 LINE",
"-31 0 LINE"
);
},
{
closed = 1;
nodes = (
"1119 465 LINE",
"1151 648 LINE",
"133 648 LINE",
"101 465 LINE"
);
},
{
closed = 1;
nodes = (
"632 768 LINE",
"664 951 LINE",
"186 951 LINE",
"154 768 LINE"
);
},
{
closed = 1;
nodes = (
"864 1277 LINE",
"965 1277 LINE SMOOTH",
"1076 1277 OFFCURVE",
"1136 1238 OFFCURVE",
"1136 1144 CURVE SMOOTH",
"1136 1021 OFFCURVE",
"1056 951 OFFCURVE",
"930 951 CURVE SMOOTH",
"807 951 LINE"
);
}
);
width = 1595;
}
);
leftKerningGroup = ruble.ss01;
leftMetricsKey = P;
rightKerningGroup = ruble.ss01;
rightMetricsKey = P;
},
{
color = 9;
glyphname = rupeeIndian.ss01;
layers = (
{
layerId = "43807A99-8507-4079-8E7C-8F87E5CA03D3";
paths = (
{
closed = 1;
nodes = (
"1252 0 LINE",
"1313 345 LINE",
"1204 345 LINE SMOOTH",
"1127 345 OFFCURVE",
"1102 378 OFFCURVE",
"1113 451 CURVE SMOOTH",
"1125 534 LINE SMOOTH",
"1152 724 OFFCURVE",
"1037 818 OFFCURVE",
"757 818 CURVE",
"758 764 LINE",
"1049 764 OFFCURVE",
"1256 897 OFFCURVE",
"1293 1115 CURVE SMOOTH",
"1339 1384 OFFCURVE",
"1155 1509 OFFCURVE",
"744 1509 CURVE SMOOTH",
"285 1509 LINE",
"267 1409 LINE",
"530 1409 LINE SMOOTH",
"733 1409 OFFCURVE",
"809 1332 OFFCURVE",
"776 1144 CURVE SMOOTH",
"750 996 OFFCURVE",
"654 919 OFFCURVE",
"464 919 CURVE SMOOTH",
"137 919 LINE",
"88 641 LINE",
"439 641 LINE SMOOTH",
"556 641 OFFCURVE",
"608 584 OFFCURVE",
"591 481 CURVE SMOOTH",
"569 348 LINE SMOOTH",
"531 118 OFFCURVE",
"637 0 OFFCURVE",
"889 0 CURVE SMOOTH"
);
},
{
closed = 1;
nodes = (
"1421 1106 LINE",
"1453 1289 LINE",
"202 1289 LINE",
"170 1106 LINE"
);
},
{
closed = 1;
nodes = (
"1474 1409 LINE",
"1506 1592 LINE",
"255 1592 LINE",
"223 1409 LINE"
);
}
);
width = 1392;
}
);
leftKerningGroup = rupeeIndian.ss01;
rightKerningGroup = rupeeIndian.ss01;
},
{
color = 9;
glyphname = sterling.ss01;
layers = (
{
layerId = "43807A99-8507-4079-8E7C-8F87E5CA03D3";
paths = (
{
closed = 1;
nodes = (
"1385 0 LINE",
"1502 662 LINE",
"1172 662 LINE",
"1080 340 LINE",
"711 340 LINE",
"824 982 LINE SMOOTH",
"852 1142 OFFCURVE",
"969 1222 OFFCURVE",
"1155 1222 CURVE SMOOTH",
"1286 1222 OFFCURVE",
"1387 1200 OFFCURVE",
"1507 1145 CURVE",
"1526 1153 LINE",
"1593 1532 LINE",
"1463 1595 OFFCURVE",
"1325 1621 OFFCURVE",
"1134 1621 CURVE SMOOTH",
"690 1621 OFFCURVE",
"375 1404 OFFCURVE",
"306 1014 CURVE SMOOTH",
"188 345 LINE",
"30 345 LINE",
"-31 0 LINE"
);
},
{
closed = 1;
nodes = (
"1034 679 LINE",
"1066 862 LINE",
"171 862 LINE",
"139 679 LINE"
);
}
);
width = 1528;
}
);
leftKerningGroup = lira.ss01;
rightKerningGroup = lira.ss01;
},
{
color = 9;
glyphname = won.ss01;
layers = (
{
layerId = "43807A99-8507-4079-8E7C-8F87E5CA03D3";
paths = (
{
closed = 1;
nodes = (
"1032 0 LINE",
"1473 929 LINE",
"1373 929 LINE",
"1487 0 LINE",
"2056 0 LINE",
"2654 1247 LINE",
"2799 1247 LINE",
"2860 1592 LINE",
"2192 1592 LINE",
"2131 1247 LINE",
"2297 1247 LINE",
"1828 207 LINE",
"1978 207 LINE",
"1842 1592 LINE",
"1449 1592 LINE",
"804 207 LINE",
"962 207 LINE",
"868 1247 LINE",
"1033 1247 LINE",
"1094 1592 LINE",
"206 1592 LINE",
"145 1247 LINE",
"290 1247 LINE",
"448 0 LINE"
);
},
{
closed = 1;
nodes = (
"849 491 LINE",
"881 674 LINE",
"104 674 LINE",
"72 491 LINE"
);
},
{
closed = 1;
nodes = (
"2659 794 LINE",
"2691 977 LINE",
"157 977 LINE",
"125 794 LINE"
);
},
{
closed = 1;
nodes = (
"2606 491 LINE",
"2638 674 LINE",
"2230 674 LINE",
"2198 491 LINE"
);
}
);
width = 2694;
}
);
leftKerningGroup = won.ss01;
rightKerningGroup = won.ss01;
},
{
color = 9;
glyphname = yen.ss01;
layers = (
{
layerId = "43807A99-8507-4079-8E7C-8F87E5CA03D3";
paths = (
{
closed = 1;
nodes = (
"1315 0 LINE",
"1376 345 LINE",
"1088 345 LINE",
"1204 1002 LINE",
"1061 594 LINE",
"1687 1248 LINE",
"1832 1248 LINE",
"1893 1593 LINE",
"1248 1593 LINE",
"1187 1248 LINE",
"1299 1248 LINE",
"992 929 LINE",
"1128 919 LINE",
"931 1248 LINE",
"1043 1248 LINE",
"1104 1593 LINE",
"211 1593 LINE",
"150 1248 LINE",
"295 1248 LINE",
"805 461 LINE",
"670 877 LINE",
"576 345 LINE",
"288 345 LINE",
"227 0 LINE"
);
},
{
closed = 1;
nodes = (
"1488 465 LINE",
"1520 648 LINE",
"250 648 LINE",
"218 465 LINE"
);
},
{
closed = 1;
nodes = (
"1541 768 LINE",
"1574 951 LINE",
"304 951 LINE",
"271 768 LINE"
);
}
);
width = 1732;
}
);
leftKerningGroup = yen.ss01;
rightKerningGroup = yen.ss01;
},
{
glyphname = commercialMinusSign;
layers = (
{
layerId = "43807A99-8507-4079-8E7C-8F87E5CA03D3";
paths = (
{
closed = 1;
nodes = (
"300 0 LINE",
"1381 1592 LINE",
"991 1592 LINE",
"-90 0 LINE"
);
},
{
closed = 1;
nodes = (
"997 -20 OFFCURVE",
"1116 95 OFFCURVE",
"1116 257 CURVE SMOOTH",
"1116 389 OFFCURVE",
"1024 476 OFFCURVE",
"880 476 CURVE SMOOTH",
"721 476 OFFCURVE",
"609 366 OFFCURVE",
"609 203 CURVE SMOOTH",
"609 69 OFFCURVE",
"697 -20 OFFCURVE",
"846 -20 CURVE SMOOTH"
);
},
{
closed = 1;
nodes = (
"562 1116 OFFCURVE",
"682 1231 OFFCURVE",
"682 1393 CURVE SMOOTH",
"682 1525 OFFCURVE",
"590 1612 OFFCURVE",
"446 1612 CURVE SMOOTH",
"286 1612 OFFCURVE",
"175 1501 OFFCURVE",
"175 1337 CURVE SMOOTH",
"175 1204 OFFCURVE",
"263 1116 OFFCURVE",
"411 1116 CURVE SMOOTH"
);
}
);
width = 1200;
}
);
leftKerningGroup = commercialMinusSign;
rightKerningGroup = commercialMinusSign;
unicode = 2052;
},
{
glyphname = plus;
layers = (
{
layerId = "43807A99-8507-4079-8E7C-8F87E5CA03D3";
paths = (
{
closed = 1;
nodes = (
"690 36 LINE",
"867 1036 LINE",
"509 1036 LINE",
"332 36 LINE"
);
},
{
closed = 1;
nodes = (
"1070 366 LINE",
"1130 706 LINE",
"130 706 LINE",
"70 366 LINE"
);
}
);
width = 1200;
}
);
leftKerningGroup = hyphen;
rightKerningGroup = hyphen;
unicode = 002B;
},
{
glyphname = minus;
layers = (
{
layerId = "43807A99-8507-4079-8E7C-8F87E5CA03D3";
paths = (
{
closed = 1;
nodes = (
"1070 366 LINE",
"1130 706 LINE",
"130 706 LINE",
"70 366 LINE"
);
}
);
width = 1200;
}
);
leftKerningGroup = hyphen;
rightKerningGroup = hyphen;
unicode = 2212;
},
{
glyphname = multiply;
layers = (
{
layerId = "43807A99-8507-4079-8E7C-8F87E5CA03D3";
paths = (
{
closed = 1;
nodes = (
"562 293 LINE",
"753 57 LINE",
"1032 292 LINE",
"842 526 LINE",
"1128 764 LINE",
"922 1015 LINE",
"638 779 LINE",
"447 1015 LINE",
"169 780 LINE",
"358 546 LINE",
"72 308 LINE",
"278 57 LINE"
);
}
);
width = 1200;
}
);
unicode = 00D7;
},
{
glyphname = divide;
layers = (
{
layerId = "43807A99-8507-4079-8E7C-8F87E5CA03D3";
paths = (
{
closed = 1;
nodes = (
"1072 376 LINE",
"1128 696 LINE",
"128 696 LINE",
"72 376 LINE"
);
},
{
closed = 1;
nodes = (
"659 -25 OFFCURVE",
"758 54 OFFCURVE",
"758 174 CURVE SMOOTH",
"758 274 OFFCURVE",
"678 337 OFFCURVE",
"549 337 CURVE SMOOTH",
"406 337 OFFCURVE",
"307 258 OFFCURVE",
"307 138 CURVE SMOOTH",
"307 38 OFFCURVE",
"387 -25 OFFCURVE",
"516 -25 CURVE SMOOTH"
);
},
{
closed = 1;
nodes = (
"793 735 OFFCURVE",
"892 814 OFFCURVE",
"892 934 CURVE SMOOTH",
"892 1034 OFFCURVE",
"812 1097 OFFCURVE",
"683 1097 CURVE SMOOTH",
"540 1097 OFFCURVE",
"441 1018 OFFCURVE",
"441 898 CURVE SMOOTH",
"441 798 OFFCURVE",
"521 735 OFFCURVE",
"650 735 CURVE SMOOTH"
);
}
);
width = 1200;
}
);
leftKerningGroup = hyphen;
rightKerningGroup = hyphen;
unicode = 00F7;
},
{
glyphname = equal;
layers = (
{
layerId = "43807A99-8507-4079-8E7C-8F87E5CA03D3";
paths = (
{
closed = 1;
nodes = (
"1112 606 LINE",
"1168 926 LINE",
"169 926 LINE",
"113 606 LINE"
);
},
{
closed = 1;
nodes = (
"1031 146 LINE",
"1087 466 LINE",
"88 466 LINE",
"32 146 LINE"
);
}
);
width = 1200;
}
);
leftKerningGroup = equal;
rightKerningGroup = equal;
unicode = 003D;
},
{
glyphname = notequal;
layers = (
{
layerId = "43807A99-8507-4079-8E7C-8F87E5CA03D3";
paths = (
{
closed = 1;
nodes = (
"1052 1022 LINE",
"886 1123 LINE",
"147 46 LINE",
"313 -55 LINE"
);
},
{
closed = 1;
nodes = (
"1031 146 LINE",
"1087 466 LINE",
"88 466 LINE",
"32 146 LINE"
);
},
{
closed = 1;
nodes = (
"1112 606 LINE",
"1168 926 LINE",
"169 926 LINE",
"113 606 LINE"
);
}
);
width = 1200;
}
);
leftKerningGroup = equal;
rightKerningGroup = equal;
unicode = 2260;
},
{
glyphname = greater;
layers = (
{
layerId = "43807A99-8507-4079-8E7C-8F87E5CA03D3";
paths = (
{
closed = 1;
nodes = (
"1065 340 LINE",
"1134 732 LINE",
"194 1071 LINE",
"133 728 LINE",
"1004 436 LINE",
"1041 650 LINE",
"68 358 LINE",
"5 1 LINE"
);
}
);
width = 1200;
}
);
leftKerningGroup = equal;
rightKerningGroup = hyphen;
unicode = 003E;
},
{
glyphname = less;
layers = (
{
layerId = "43807A99-8507-4079-8E7C-8F87E5CA03D3";
paths = (
{
closed = 1;
nodes = (
"1066 344 LINE",
"195 636 LINE",
"158 422 LINE",
"1131 714 LINE",
"1194 1071 LINE",
"134 732 LINE",
"65 340 LINE",
"1005 1 LINE"
);
}
);
width = 1200;
}
);
leftKerningGroup = hyphen;
rightKerningGroup = equal;
unicode = 003C;
},
{
glyphname = greaterequal;
layers = (
{
layerId = "43807A99-8507-4079-8E7C-8F87E5CA03D3";
paths = (
{
closed = 1;
nodes = (
"1101 547 LINE",
"1171 939 LINE",
"205 1130 LINE",
"151 826 LINE",
"977 704 LINE",
"993 794 LINE",
"125 672 LINE",
"69 356 LINE"
);
},
{
closed = 1;
nodes = (
"1005 0 LINE",
"1061 320 LINE",
"62 320 LINE",
"6 0 LINE"
);
}
);
width = 1200;
}
);
leftKerningGroup = equal;
rightKerningGroup = equal;
unicode = 2265;
},
{
glyphname = lessequal;
layers = (
{
layerId = "43807A99-8507-4079-8E7C-8F87E5CA03D3";
paths = (
{
closed = 1;
nodes = (
"1122 660 LINE",
"296 782 LINE",
"280 692 LINE",
"1148 814 LINE",
"1204 1130 LINE",
"172 939 LINE",
"102 547 LINE",
"1068 356 LINE"
);
},
{
closed = 1;
nodes = (
"1005 0 LINE",
"1061 320 LINE",
"62 320 LINE",
"6 0 LINE"
);
}
);
width = 1200;
}
);
leftKerningGroup = equal;
rightKerningGroup = equal;
unicode = 2264;
},
{
glyphname = plusminus;
layers = (
{
layerId = "43807A99-8507-4079-8E7C-8F87E5CA03D3";
paths = (
{
closed = 1;
nodes = (
"756 410 LINE",
"882 1122 LINE",
"524 1122 LINE",
"398 410 LINE"
);
},
{
closed = 1;
nodes = (
"1005 0 LINE",
"1061 320 LINE",
"62 320 LINE",
"6 0 LINE"
);
},
{
closed = 1;
nodes = (
"1112 606 LINE",
"1168 926 LINE",
"169 926 LINE",
"113 606 LINE"
);
}
);
width = 1200;
}
);
leftKerningGroup = equal;
rightKerningGroup = equal;
unicode = 00B1;
},
{
glyphname = approxequal;
layers = (
{
layerId = "43807A99-8507-4079-8E7C-8F87E5CA03D3";
paths = (
{
closed = 1;
nodes = (
"953 559 OFFCURVE",
"1092 640 OFFCURVE",
"1139 706 CURVE",
"1059 953 LINE",
"995 903 OFFCURVE",
"934 879 OFFCURVE",
"867 879 CURVE SMOOTH",
"773 879 OFFCURVE",
"602 973 OFFCURVE",
"445 973 CURVE SMOOTH",
"328 973 OFFCURVE",
"188 892 OFFCURVE",
"141 826 CURVE",
"221 579 LINE",
"285 629 OFFCURVE",
"346 653 OFFCURVE",
"413 653 CURVE SMOOTH",
"506 653 OFFCURVE",
"679 559 OFFCURVE",
"836 559 CURVE SMOOTH"
);
},
{
closed = 1;
nodes = (
"871 99 OFFCURVE",
"1011 180 OFFCURVE",
"1058 246 CURVE",
"978 493 LINE",
"914 443 OFFCURVE",
"853 419 OFFCURVE",
"786 419 CURVE SMOOTH",
"692 419 OFFCURVE",
"520 513 OFFCURVE",
"363 513 CURVE SMOOTH",
"246 513 OFFCURVE",
"107 432 OFFCURVE",
"60 366 CURVE",
"140 119 LINE",
"204 169 OFFCURVE",
"265 193 OFFCURVE",
"332 193 CURVE SMOOTH",
"425 193 OFFCURVE",
"597 99 OFFCURVE",
"754 99 CURVE SMOOTH"
);
}
);
width = 1200;
}
);
leftKerningGroup = equal;
rightKerningGroup = equal;
unicode = 2248;
},
{
glyphname = asciitilde;
layers = (
{
layerId = "43807A99-8507-4079-8E7C-8F87E5CA03D3";
paths = (
{
closed = 1;
nodes = (
"912 327 OFFCURVE",
"1051 408 OFFCURVE",
"1099 474 CURVE",
"1018 721 LINE",
"954 671 OFFCURVE",
"893 647 OFFCURVE",
"826 647 CURVE SMOOTH",
"732 647 OFFCURVE",
"561 741 OFFCURVE",
"404 741 CURVE SMOOTH",
"287 741 OFFCURVE",
"147 660 OFFCURVE",
"100 594 CURVE",
"180 347 LINE",
"244 397 OFFCURVE",
"305 421 OFFCURVE",
"372 421 CURVE SMOOTH",
"465 421 OFFCURVE",
"638 327 OFFCURVE",
"795 327 CURVE SMOOTH"
);
}
);
width = 1200;
}
);
leftKerningGroup = hyphen;
rightKerningGroup = hyphen;
unicode = 007E;
},
{
glyphname = logicalnot;
layers = (
{
layerId = "43807A99-8507-4079-8E7C-8F87E5CA03D3";
paths = (
{
closed = 1;
nodes = (
"1049 246 LINE",
"1169 926 LINE",
"169 926 LINE",
"113 606 LINE",
"756 606 LINE",
"692 246 LINE"
);
}
);
width = 1200;
}
);
leftKerningGroup = hyphen;
rightKerningGroup = equal;
unicode = 00AC;
},
{
glyphname = emptyset;
layers = (
{
layerId = "43807A99-8507-4079-8E7C-8F87E5CA03D3";
paths = (
{
closed = 1;
nodes = (
"373 131 LINE",
"445 97 OFFCURVE",
"521 76 OFFCURVE",
"605 76 CURVE SMOOTH",
"882 76 OFFCURVE",
"1109 293 OFFCURVE",
"1109 558 CURVE SMOOTH",
"1109 692 OFFCURVE",
"1053 810 OFFCURVE",
"964 899 CURVE",
"1106 1076 LINE",
"1000 1157 LINE",
"858 979 LINE",
"782 1019 OFFCURVE",
"697 1042 OFFCURVE",
"605 1042 CURVE SMOOTH",
"315 1042 OFFCURVE",
"98 814 OFFCURVE",
"98 558 CURVE SMOOTH",
"98 414 OFFCURVE",
"164 286 OFFCURVE",
"265 203 CURVE",
"124 28 LINE",
"231 -44 LINE"
);
},
{
closed = 1;
nodes = (
"332 407 OFFCURVE",
"298 479 OFFCURVE",
"298 558 CURVE SMOOTH",
"298 725 OFFCURVE",
"431 848 OFFCURVE",
"605 848 CURVE SMOOTH",
"653 848 OFFCURVE",
"701 835 OFFCURVE",
"742 819 CURVE",
"383 354 LINE"
);
},
{
closed = 1;
nodes = (
"566 270 OFFCURVE",
"528 276 OFFCURVE",
"492 289 CURVE",
"844 744 LINE",
"888 690 OFFCURVE",
"911 628 OFFCURVE",
"911 558 CURVE SMOOTH",
"911 390 OFFCURVE",
"769 270 OFFCURVE",
"605 270 CURVE SMOOTH"
);
}
);
width = 1200;
}
);
leftKerningGroup = emptyset;
rightKerningGroup = emptyset;
unicode = 2205;
},
